<svg width="316" height="272" fill="none" xmlns="http://www.w3.org/2000/svg"><path d="M41.398 94.932c13.458 0 24.368-10.91 24.368-24.369 0-13.458-10.91-24.368-24.368-24.368-13.459 0-24.37 10.91-24.37 24.368 0 13.459 10.911 24.37 24.37 24.37z" fill="#fff" stroke="#000" stroke-linecap="round" stroke-linejoin="round"/><path d="M39.584 92.511c13.458 0 24.368-10.91 24.368-24.368 0-13.459-10.91-24.37-24.368-24.37-13.459 0-24.37 10.911-24.37 24.37 0 13.458 10.911 24.368 24.37 24.368z" fill="#fff" stroke="#000" stroke-linecap="round" stroke-linejoin="round"/><path d="M39.584 90.09c12.121 0 21.948-9.826 21.948-21.947 0-12.122-9.826-21.948-21.948-21.948S17.636 56.02 17.636 68.143c0 12.121 9.826 21.948 21.948 21.948z" fill="#000" stroke="#000" stroke-linecap="round" stroke-linejoin="round"/><path d="M37.008 51.643s-2.42-6.055-6.655-10.29c-4.234-4.234-21.497-6.965-21.497-6.965a63.287 63.287 0 017.573 8.779c3.93 5.448 16.937 17.862 16.937 17.862s-6.351-5.448-12.11-6.055c-5.759-.607-20.282 2.42-21.172 2.42-.889 0 5.449 2.421 9.993 4.538 4.545 2.117 22.097 3.938 22.097 3.938s-7.566 2.117-12.703 3.938C14.333 71.63 9.463 84.94 9.463 84.94s6.662-6.055 12.414-7.565c5.752-1.51 13.924-4.235 13.924-4.235s-5.145 5.752-6.351 9.69c-1.207 3.938-.304 13.014-.304 13.014s2.724-8.47 6.055-11.807c3.331-3.338 6.952-9.048 6.952-9.048a83.3 83.3 0 014.545 8.469c2.42 5.145 3.93 12.703 3.93 12.703s3.938-8.469 3.635-12.703c-.303-4.234-4.841-11.807-4.841-11.807s3.027-2.117 7.565-.303c4.538 1.813 12.414 9.386 12.414 9.386s-1.82-9.993-4.849-13.924c-3.027-3.931-16.04-5.152-16.04-5.152s7.268-4.234 11.806-5.145c4.538-.91 10.586 1.214 10.586 1.214s-6.958-9.69-12.407-10.296c-5.448-.607-13.62 7.847-13.62 7.847l2.427-12.11c.6-3.028-.606-10.586-.606-10.586s-3.331 1.814-7.27 7.565a15.074 15.074 0 00-2.42 11.497z" fill="#FC6E8E"/><path opacity=".5" d="M37.008 51.643s-2.42-6.055-6.655-10.29c-4.234-4.234-21.497-6.965-21.497-6.965a63.287 63.287 0 017.573 8.779c3.93 5.448 16.937 17.862 16.937 17.862s-6.351-5.448-12.11-6.055c-5.759-.607-20.282 2.42-21.172 2.42-.889 0 5.449 2.421 9.993 4.538 4.545 2.117 22.097 3.938 22.097 3.938s-7.566 2.117-12.703 3.938C14.333 71.63 9.463 84.94 9.463 84.94s6.662-6.055 12.414-7.565c5.752-1.51 13.924-4.235 13.924-4.235s-5.145 5.752-6.351 9.69c-1.207 3.938-.304 13.014-.304 13.014s2.724-8.47 6.055-11.807c3.331-3.338 6.952-9.048 6.952-9.048a83.3 83.3 0 014.545 8.469c2.42 5.145 3.93 12.703 3.93 12.703s3.938-8.469 3.635-12.703c-.303-4.234-4.841-11.807-4.841-11.807s3.027-2.117 7.565-.303c4.538 1.813 12.414 9.386 12.414 9.386s-1.82-9.993-4.849-13.924c-3.027-3.931-16.04-5.152-16.04-5.152s7.268-4.234 11.806-5.145c4.538-.91 10.586 1.214 10.586 1.214s-6.958-9.69-12.407-10.296c-5.448-.607-13.62 7.847-13.62 7.847l2.427-12.11c.6-3.028-.606-10.586-.606-10.586s-3.331 1.814-7.27 7.565a15.074 15.074 0 00-2.42 11.497z" fill="#000"/><path d="M42.971 42.426a47.15 47.15 0 01.706-2.59m-20.925 2.59c2.823 2.068 6.352 4.94 8.201 7.403 3.331 4.538 9.993 14.228 9.993 14.228a90.014 90.014 0 011.539-19.415m-23.939-5.11s.882.565 2.202 1.475" stroke="#000" stroke-width=".5" stroke-linecap="round" stroke-linejoin="round"/><path d="M40.946 64.056S52.449 52.553 57.29 51.643c4.842-.91 9.083 2.724 9.083 2.724M20.388 73.675c-2.823 1.779-3.056 2.823-3.056 2.823M66.07 74.65s-1.814-4.545-8.172-6.663c-6.359-2.117-16.338-2.42-16.338-2.42s-14.009 4.587-19.132 6.98m13.006-8.709c3.388.988 6.119 1.729 6.119 1.729M14.114 58.46c3.289.198 7.523.65 9.88 1.658 1.92.826 5.703 2.019 9.274 3.085M9.463 58.305s1.108 0 2.739.063" stroke="#000" stroke-width=".5" stroke-linecap="round" stroke-linejoin="round"/><path d="M40.946 67.38s-8.469 12.704-9.083 15.745a30.835 30.835 0 00-.607 5.448m13.458-17.191c1.63 2.117 3.585 4.94 4.404 7.198a49.667 49.667 0 012.117 8.47m-9.082-18.76s.706.749 1.616 1.9" stroke="#000" stroke-width=".5" stroke-linecap="round" stroke-linejoin="round"/><path d="M33.162 54.254s-1.56-6.352-.593-12.244c.967-5.893 13.409-18.194 13.409-18.194a63.66 63.66 0 00-1.024 11.546c0 6.718-3.352 24.39-3.352 24.39s1.983-8.13 6.302-11.998c4.32-3.867 17.89-9.88 18.624-10.395.734-.515-3.013 5.145-5.462 9.52C58.617 51.255 45.4 62.991 45.4 62.991s7.382-2.696 12.618-4.234c5.237-1.539 16.938 6.464 16.938 6.464s-8.942-1.03-14.496 1.094-13.783 4.679-13.783 4.679 7.538 1.672 10.812 4.164c3.275 2.49 7.848 10.416 7.848 10.416s-7.156-5.3-11.807-6.062c-4.65-.762-10.953-3.31-10.953-3.31.24 3.197.658 6.378 1.256 9.527 1.038 5.597 4.235 12.626 4.235 12.626S39.93 93.768 37.7 90.147c-2.23-3.62-2.95-12.413-2.95-12.413s-3.698.042-6.352 4.163C25.744 86.02 23.79 96.76 23.79 96.76s-4.348-9.175-4.185-14.115c.162-4.94 10.028-13.535 10.028-13.535s-8.37.797-12.59 2.702c-4.22 1.906-7.904 7.164-7.904 7.164s0-11.927 4.079-15.597 15.66-1.553 15.66-1.553l-9.033-8.419c-2.259-2.117-5.689-8.963-5.689-8.963s3.769-.465 10.318 1.913a15.039 15.039 0 018.688 7.897z" fill="#FC6E8E"/><path d="M22.942 50.245c-.705-.585-1.369-1.15-2.074-1.7m18.497-10.092c-1.094 3.33-2.315 7.713-2.343 10.79-.056 5.646.184 17.382.184 17.382a89.716 89.716 0 00-12.583-14.862m16.478-18.116s-.395.974-.932 2.477m-2.963 30.501s-16.056-2.632-20.516-.543c-4.46 2.089-5.787 7.495-5.787 7.495m48.617-11.13c3.31-.183 4.1.487 4.1.487M22.978 89.886s-1.171-4.75 2.752-10.176c3.924-5.427 11.87-11.497 11.87-11.497s14.052-4.453 19.606-5.49m-15.646.515a483.976 483.976 0 01-3.952 4.975m18.13-21.779c-2.554 2.118-5.73 4.94-7.057 7.107-1.08 1.793-3.458 4.94-5.738 7.911M59.422 43.59s-.896.65-2.188 1.652" stroke="#000" stroke-width=".5" stroke-linecap="round" stroke-linejoin="round"/><path d="M39.147 69.342s14.305 5.378 16.556 7.488a30.64 30.64 0 013.67 4.072M38.42 74.776c-.1 2.668-.05 6.09.62 8.42a49.2 49.2 0 003.226 8.123m-3.571-20.565s-.113 1.002-.198 2.484" stroke="#000" stroke-width=".5" stroke-linecap="round" stroke-linejoin="round"/><path d="M80.255 86.583h159.967a7.533 7.533 0 017.53 7.53v103.742a8.233 8.233 0 01-5.084 7.609 8.233 8.233 0 01-3.152.627H80.96a8.234 8.234 0 01-8.235-8.236V94.114a7.53 7.53 0 017.53-7.53z" fill="#fff" stroke="#000" stroke-linecap="round" stroke-linejoin="round"/><path d="M138.802 98.348h-9.852v6.471h9.852v-6.471zm-31.92 39.923h-9.146v9.075h9.146v-9.075zm40.41-31.899h-9.217v9.075h9.217v-9.075zm-19.901-8.024h-9.852v6.471h9.852v-6.471zm30.671 8.024h-9.217v9.075h9.217v-9.075zm-7.855-8.024h-9.852v6.471h9.852v-6.471zm-48.851 29.287H84.023v9.076h17.333v-9.076zm24.39-21.263h-9.217v9.075h9.217v-9.075zm-29.563 31.899h-12.16v9.075h12.16v-9.075zm65.435-39.923h-9.852v6.471h9.852v-6.471zm-57.418 8.024h-9.217v9.075h9.217v-9.075zm.375-8.024h-9.852v6.471h9.852v-6.471zm11.411 0h-9.852v6.471h9.852v-6.471zm-1.016 8.024h-9.217v9.075h9.217v-9.075zm21.546 0h-9.217v9.075h9.217v-9.075zm70.742-8.024h-9.852v6.471h9.852v-6.471zm11.404 0h-9.852v6.471h9.852v-6.471zm-6.732 8.024h-9.217v9.075h9.217v-9.075zm10.776 0h-9.217v9.075h9.217v-9.075zm17.043 31.899h-13.571v9.075h13.571v-9.075zm-9.675-39.923h-9.852v6.471h9.852v-6.471zM93.43 106.372h-9.407v9.075h9.408v-9.075zm79.6-8.024h-9.852v6.471h9.852v-6.471zm11.404 0h-9.851v6.471h9.851v-6.471zm-4.82 8.024h-9.217v9.075h9.217v-9.075zm21.546 0h-9.217v9.075h9.217v-9.075zm-32.322 0h-9.217v9.075h9.217v-9.075zm21.546 0h-9.217v9.075h9.217v-9.075zm5.462-8.024h-9.852v6.471h9.852v-6.471zm-14.037 39.923h-9.146v9.075h9.146v-9.075zm47.99-10.636h-9.147v9.076h9.147v-9.076zm-10.706 0h-9.147v9.076h9.147v-9.076zm5.525 10.636h-9.146v9.075h9.146v-9.075zm-10.698 0h-9.147v9.075h9.147v-9.075zm-21.412 0h-9.146v9.075h9.146v-9.075zm10.706 0h-9.146v9.075h9.146v-9.075zm5.172-10.636h-9.146v9.076h9.146v-9.076zm-10.698 0h-9.146v9.076h9.146v-9.076zm42.068-29.287h-8.123v6.471h8.123v-6.471zm-146.586 0h-9.147v6.471h9.147v-6.471zm146.586 50.551H84.023v9.436h155.733v-9.436zm-.007-42.527h-15.49v9.075h15.49v-9.075zm0 21.263h-8.398v9.076h8.398v-9.076zm-10.981-1.623h-1.56v-9.005h-9.146v9.005h-1.552v-9.005h-9.147v9.005h-1.559v-9.005h-9.146v9.005h-1.56v-9.005h-9.146v9.005h-1.553v-9.005h-9.146v9.005h-1.56v-9.005h-9.146v9.005h-1.56v-9.005h-9.146v9.005h-1.553v-9.005h-9.146v9.005h-1.559v-9.005h-9.147v9.005h-1.559v-9.005h-9.147v9.005h-1.552v-9.005h-9.146v9.005h-1.56v-9.005h-9.146v9.005h-1.56v-9.005H84.023v9.076H239.75v-9.076h-10.981v9.005zm-73.897 1.623h-9.146v9.076h9.146v-9.076zm32.111 0h-9.146v9.076h9.146v-9.076zm-53.515 0h-9.147v9.076h9.147v-9.076zm5.526 10.636h-9.146v9.075h9.146v-9.075zm5.173-10.636h-9.146v9.076h9.146v-9.076zm-21.405 0h-9.146v9.076h9.146v-9.076zm-5.173 10.636h-9.146v9.075h9.146v-9.075zm10.699 0h-9.146v9.075h9.146v-9.075zm37.29-10.636h-9.146v9.076h9.146v-9.076zm5.526 10.636h-9.146v9.075h9.146v-9.075zm5.173-10.636h-9.146v9.076h9.146v-9.076zm-26.578 10.636h-9.146v9.075h9.146v-9.075zm10.699 0h-9.146v9.075h9.146v-9.075zm-48.342-10.636h-9.146v9.076h9.146v-9.076z" fill="#000"/><path d="M257.745 21.656H61.793a6.266 6.266 0 00-6.048 7.89l14.326 53.34a6.267 6.267 0 006.049 4.643h20v3.69h128.223V87.55h19.055a6.268 6.268 0 006.048-4.644l14.326-53.338a6.26 6.26 0 00-1.062-5.443 6.257 6.257 0 00-4.965-2.469z" fill="#000" stroke="#000" stroke-linecap="round" stroke-linejoin="round"/><path d="M235.586 82.822H83.953L68.787 28.248h181.958l-15.159 54.574z" fill="#FC6E8E" stroke="#000" stroke-linecap="round" stroke-linejoin="round"/><path d="M94.016 58.87v.705h-2.674v-.706h2.674zm3.332 0v.705h-2.682v-.706h2.682zm3.331 0v.705h-2.66v-.706h2.66zm3.324 0v.705h-2.675v-.706h2.675zm3.331 0v.705h-2.682v-.706h2.682zm3.331 0v.705h-2.682v-.706h2.682zm3.324 0v.705h-2.675v-.706h2.675zm3.295 3.719l-2.95-7.862h.706l2.95 7.862h-.706zM91.32 47.422v.706h-2.674v-.706h2.675zm3.332 0v.706h-2.675v-.706h2.675zm3.366 0v.706h-2.682v-.706h2.682zm3.296 0v.706h-2.682v-.706h2.682zm3.324 0v.706h-2.675v-.706h2.675zm5.632 0v.706h-2.682v-.706h2.682zm3.324 0v.706h-2.675v-.706h2.675zm3.331 0v.706h-2.675v-.706h2.675zm3.33 0v.706h-2.681v-.706h2.681zm3.324 0v.706h-2.674v-.706h2.674zm3.332 0v.706h-2.675v-.706h2.675zm3.33 0v.706h-2.681v-.706h2.681zm5.625 0v.706h-2.675v-.706h2.675zm3.331 0v.706h-2.681v-.706h2.681zm3.331 0v.706h-2.681v-.706h2.681zm5.597 0v.706h-2.675v-.706h2.675zm3.359 0v.706h-2.653v-.706h2.653zm3.331 0v.706h-2.682v-.706h2.682zm12.52 0v.706h-2.675v-.706h2.675zm3.331 0v.706h-2.682v-.706h2.682zm3.331 0v.706h-2.682v-.706h2.682zm3.324 0v.706h-2.675v-.706h2.675zm3.331 0v.706h-2.682v-.706h2.682zm5.624 0v.706h-2.674v-.706h2.674zm3.331 0v.706h-2.668v-.706h2.668zm3.332 0v.706h-2.682v-.706h2.682zm5.624 0v.706h-2.675v-.706h2.675zm5.632 0v.706h-2.682v-.706h2.682z" fill="#000"/><path d="M248.825 163.409l-7.551 29.132 7.142 2.096.409-31.228z" fill="#fff" stroke="#000" stroke-linecap="round" stroke-linejoin="round"/><path d="M252.213 132.618a6.031 6.031 0 01-.868-4.432c.388-2.872 3.853-3.529 3.853-3.529s.755-.571 3.529.48c2.773 1.052 24.22 3.959 37.925 5.815 13.706 1.856 18.145.657 17.954 5.364-.191 4.707-12.216 46.952-12.4 48.279-.183 1.326-49.993-51.977-49.993-51.977z" fill="#fff" stroke="#000" stroke-miterlimit="10"/><path d="M309.859 140.435l-57.652-7.816-9.317 68.723 57.653 7.816 9.316-68.723z" fill="#fff" stroke="#000" stroke-linecap="round" stroke-linejoin="round"/><path d="M299.144 154.143l3.352.458m-24.348-3.303l18.342 2.492m-40.573-5.505l19.577 2.654m18.399 8.715l7.777 1.059m-46.578-6.316l30.848 4.178m-15.195 4.163l30.099 4.079m-46.585-6.316l13.388 1.821m13.098 7.996l19.266 2.611m-35.617-4.834l14.142 1.919m-25.102-3.401l8.525 1.157m30.332 10.332l6.895.932m-46.578-6.31l35.046 4.75m-8.786 5.025l19.492 2.646m-46.585-6.316l23.776 3.225m9.337 7.488l12.639 1.708m-38.271-5.187l22.541 3.056m-30.848-4.179l5.653.763" stroke="#000" stroke-width=".5" stroke-linecap="round" stroke-linejoin="round"/><path d="M309.864 140.437s.988-9.583 4.516-5.73" stroke="#000" stroke-linecap="round" stroke-linejoin="round"/><path d="M290.315 214.264l-.063 6.09-3.55-5.011-14.249-47.926 3.613-1.079 14.249 47.926z" fill="#fff" stroke="#000" stroke-linecap="round" stroke-linejoin="round"/><path d="M274.652 168.386l-1.971.575 14 48 1.971-.575-14-48z" fill="#FC6E8E" stroke="#000" stroke-width=".5" stroke-linecap="round" stroke-linejoin="round"/><path d="M290.315 214.278l-3.607 1.072 3.543 5.004.064-6.076z" stroke="#000" stroke-linecap="round" stroke-linejoin="round"/><path d="M288.48 217.849l1.771 2.505.036-3.042-1.807.537z" fill="#000" stroke="#000" stroke-linecap="round" stroke-linejoin="round"/><path d="M272.664 161.51a1.893 1.893 0 00-1.27 2.343l1.059 3.564 3.613-1.072-1.058-3.564a1.893 1.893 0 00-2.344-1.271z" fill="#fff" stroke="#000" stroke-linecap="round" stroke-linejoin="round"/><path d="M272.664 161.51a1.893 1.893 0 00-1.27 2.343l.508 1.701 3.607-1.072-.501-1.701a1.893 1.893 0 00-2.344-1.271z" fill="#000" stroke="#000" stroke-linecap="round" stroke-linejoin="round"/><path d="M94.948 133.204a46.391 46.391 0 00-1.341 1.997m8.723-10.494a50.831 50.831 0 00-5.441 5.907m-2.569-2.16a75.326 75.326 0 00-5.23 8.469m55.005 7.05a61.329 61.329 0 00-1.341 1.99m8.723-10.487a51.245 51.245 0 00-5.434 5.907m-2.569-2.174a76.311 76.311 0 00-5.229 8.511m76.296-21.214a62.216 62.216 0 00-2.019-1.312m10.629 8.567a51.747 51.747 0 00-5.992-5.342m2.124-2.618a76.473 76.473 0 00-8.581-5.103" stroke="#fff" stroke-linecap="round" stroke-linejoin="round"/><path d="M141.949 170.261c-.367 2.654-.917 6.352-1.468 8.547m1.878-11.772s-.057.501-.163 1.313m2.047 6.217a59.476 59.476 0 01-2.823 7.531m38.109-3.769s.473 6.119 3.762 9.414m-4.234-3.295s1.411 4.234 4.234 6.118" stroke="#000" stroke-linecap="round" stroke-linejoin="round"/><path d="M83.198 217.15s3.133-2.52 3.133-24.178c0-21.659 3.606-37.481 8.052-44.419 4.447-6.937 8.603-9.718 10.551-9.718 1.948 0 .551 2.499-2.223 6.105-2.773 3.606-5.272 5.554-6.387 10-1.115 4.446-1.108 9.993.283 9.436 1.39-.558 3.606-11.659 5.547-15.823 1.94-4.164 6.669-9.442 9.442-11.941 2.774-2.498 8.885-9.993 11.659-8.052 2.773 1.941 1.115 4.721-.551 5.829-1.665 1.108-8.334 7.763-11.383 11.941-3.049 4.178-4.997 14.715-3.331 14.99 1.665.275 6.662-15.265 9.436-18.596 2.773-3.331 13.881-12.499 16.379-12.774 2.499-.275 2.781 3.607.558 5.554-2.223 1.948-9.718 10.269-12.216 15.265-2.498 4.997-3.613 14.164-1.412 11.941 2.202-2.223 5.83-11.383 8.885-14.439 3.056-3.056 12.217-12.767 14.44-11.659 2.223 1.108 1.665 3.889-.276 5.83-1.94 1.94-9.442 12.498-11.383 18.045-1.941 5.547-4.171 21.101-3.056 18.885 1.115-2.216 4.722-13.606 6.662-18.349 1.941-4.742 5.83-6.937 6.387-4.721.558 2.216-.557 3.331-1.948 8.335-1.39 5.003-1.411 18.349-5.547 25.815-4.135 7.467-20.734 23.445-22.95 28.992a75.7 75.7 0 01-5.73 11.009m131.215-11.426s-3.211-4.397-3.211-26.055c0-21.659-3.613-37.481-8.052-44.419-4.439-6.937-8.61-9.718-10.551-9.718-1.94 0-.557 2.499 2.223 6.105 2.781 3.606 5.272 5.554 6.352 10s1.115 9.993-.275 9.436c-1.39-.558-3.606-11.659-5.554-15.823-1.948-4.164-6.662-9.442-9.436-11.941-2.773-2.498-8.885-9.993-11.666-8.052-2.78 1.941-1.108 4.721.558 5.829 1.666 1.108 8.328 7.763 11.383 11.941 3.056 4.178 4.997 14.715 3.331 14.99-1.665.275-6.64-15.265-9.414-18.582s-13.889-12.498-16.387-12.774c-2.498-.275-2.773 3.607-.55 5.554 2.223 1.948 9.717 10.269 12.216 15.265 2.498 4.997 3.606 14.164 1.411 11.941-2.195-2.223-5.829-11.383-8.878-14.439-3.049-3.056-12.216-12.767-14.439-11.659-2.223 1.108-1.666 3.889.275 5.83 1.941 1.94 9.443 12.498 11.384 18.045 1.94 5.547 4.163 21.101 3.055 18.885-1.108-2.216-4.721-13.606-6.662-18.348-1.941-4.743-5.829-6.938-6.387-4.722-.557 2.216.558 3.331 1.941 8.335 1.383 5.003 1.412 18.349 5.554 25.815 4.143 7.467 20.269 22.04 22.492 27.594 2.223 5.554 6.245 14.305 6.245 14.305" fill="#FC6E8E"/><path d="M82.14 222.485s4.163-13.599 4.163-35.286 3.606-37.481 8.052-44.419c4.446-6.937 8.603-9.717 10.551-9.717 1.948 0 .55 2.498-2.223 6.104-2.774 3.606-5.272 5.554-6.387 9.993-1.115 4.439-1.108 10 .282 9.443 1.39-.558 3.607-11.659 5.547-15.823 1.941-4.163 6.669-9.442 9.443-11.941 2.773-2.498 8.885-9.993 11.659-8.052 2.773 1.941 1.115 4.721-.551 5.829-1.665 1.108-8.335 7.763-11.383 11.941-3.049 4.178-4.997 14.715-3.331 14.99 1.665.275 6.662-15.265 9.435-18.603 2.774-3.338 13.882-12.491 16.38-12.767 2.499-.275 2.781 3.607.558 5.555-2.223 1.947-9.718 10.268-12.216 15.264-2.499 4.997-3.614 14.164-1.412 11.941 2.202-2.223 5.829-11.383 8.885-14.439 3.056-3.056 12.216-12.766 14.439-11.659 2.223 1.108 1.666 3.889-.275 5.83-1.941 1.941-9.442 12.491-11.383 18.045-1.941 5.554-4.171 21.101-3.056 18.878 1.115-2.223 4.721-13.599 6.662-18.348 1.941-4.75 5.829-6.945 6.387-4.722.557 2.223-.558 3.331-1.948 8.328-1.39 4.996-1.411 18.349-5.547 25.822-4.135 7.474-20.268 27.764-22.491 33.318-2.223 5.554-7.22 17.77-7.22 17.77" fill="#fff"/><path d="M82.14 222.485s4.163-13.599 4.163-35.286 3.606-37.481 8.052-44.419c4.446-6.937 8.603-9.717 10.551-9.717 1.948 0 .55 2.498-2.223 6.104-2.774 3.606-5.272 5.554-6.387 9.993-1.115 4.439-1.108 10 .282 9.443 1.39-.558 3.607-11.659 5.547-15.823 1.941-4.163 6.669-9.442 9.443-11.941 2.773-2.498 8.885-9.993 11.659-8.052 2.773 1.941 1.115 4.721-.551 5.829-1.665 1.108-8.335 7.763-11.383 11.941-3.049 4.178-4.997 14.715-3.331 14.99 1.665.275 6.662-15.265 9.435-18.603 2.774-3.338 13.882-12.491 16.38-12.767 2.499-.275 2.781 3.607.558 5.555-2.223 1.947-9.718 10.268-12.216 15.264-2.499 4.997-3.614 14.164-1.412 11.941 2.202-2.223 5.829-11.383 8.885-14.439 3.056-3.056 12.216-12.766 14.439-11.659 2.223 1.108 1.666 3.889-.275 5.83-1.941 1.941-9.442 12.491-11.383 18.045-1.941 5.554-4.171 21.101-3.056 18.878 1.115-2.223 4.721-13.599 6.662-18.348 1.941-4.75 5.829-6.945 6.387-4.722.557 2.223-.558 3.331-1.948 8.328-1.39 4.996-1.411 18.349-5.547 25.822-4.135 7.474-20.268 27.764-22.491 33.318-2.223 5.554-7.22 17.77-7.22 17.77" stroke="#000" stroke-linecap="round" stroke-linejoin="round"/><path d="M238.38 222.485s-4.164-13.599-4.164-35.286-3.613-37.481-8.052-44.419c-4.439-6.937-8.61-9.717-10.551-9.717-1.94 0-.557 2.498 2.223 6.104 2.781 3.606 5.272 5.554 6.352 9.993s1.115 10-.275 9.443c-1.391-.558-3.607-11.659-5.554-15.823-1.948-4.163-6.663-9.442-9.436-11.941-2.774-2.498-8.885-9.993-11.666-8.052-2.78 1.941-1.108 4.721.558 5.829 1.665 1.108 8.327 7.763 11.383 11.941 3.056 4.178 4.997 14.715 3.331 14.99-1.665.275-6.662-15.265-9.435-18.603-2.774-3.338-13.889-12.491-16.387-12.767-2.499-.275-2.774 3.607-.551 5.555 2.223 1.947 9.718 10.268 12.216 15.264 2.499 4.997 3.607 14.164 1.412 11.941-2.195-2.223-5.829-11.383-8.878-14.439-3.049-3.056-12.216-12.766-14.439-11.659-2.223 1.108-1.666 3.889.275 5.83 1.941 1.941 9.442 12.491 11.383 18.045 1.941 5.554 4.164 21.101 3.056 18.878-1.108-2.223-4.721-13.599-6.662-18.348-1.941-4.75-5.829-6.945-6.387-4.722-.557 2.223.558 3.331 1.941 8.328 1.383 4.996 1.411 18.349 5.554 25.822 4.143 7.474 20.268 27.764 22.491 33.318 2.224 5.554 7.22 17.77 7.22 17.77" fill="#fff"/><path d="M238.38 222.485s-4.164-13.599-4.164-35.286-3.613-37.481-8.052-44.419c-4.439-6.937-8.61-9.717-10.551-9.717-1.94 0-.557 2.498 2.223 6.104 2.781 3.606 5.272 5.554 6.352 9.993s1.115 10-.275 9.443c-1.391-.558-3.607-11.659-5.554-15.823-1.948-4.163-6.663-9.442-9.436-11.941-2.774-2.498-8.885-9.993-11.666-8.052-2.78 1.941-1.108 4.721.558 5.829 1.665 1.108 8.327 7.763 11.383 11.941 3.056 4.178 4.997 14.715 3.331 14.99-1.665.275-6.662-15.265-9.435-18.603-2.774-3.338-13.889-12.491-16.387-12.767-2.499-.275-2.774 3.607-.551 5.555 2.223 1.947 9.718 10.268 12.216 15.264 2.499 4.997 3.607 14.164 1.412 11.941-2.195-2.223-5.829-11.383-8.878-14.439-3.049-3.056-12.216-12.766-14.439-11.659-2.223 1.108-1.666 3.889.275 5.83 1.941 1.941 9.442 12.491 11.383 18.045 1.941 5.554 4.164 21.101 3.056 18.878-1.108-2.223-4.721-13.599-6.662-18.348-1.941-4.75-5.829-6.945-6.387-4.722-.557 2.223.558 3.331 1.941 8.328 1.383 4.996 1.411 18.349 5.554 25.822 4.143 7.474 20.268 27.764 22.491 33.318 2.224 5.554 7.22 17.77 7.22 17.77" stroke="#000" stroke-linecap="round" stroke-linejoin="round"/><path d="M64.566 264.829h42.344a100.028 100.028 0 012.117-7.058c3.331-9.979 14.115-22.456 14.115-22.456a72.98 72.98 0 00-26.648-14.947c-16.232-4.997-28.117-3.529-28.117-3.529a65.332 65.332 0 01.706 27.524c-2.117 10.275-3.529 16.775-4.517 20.466zm148.768 0h43.995c-1.412-3.656-4.46-11.595-7.509-19.535-4.164-10.811-2.498-25.363-4.164-25.363-1.665 0-20.374-1.25-29.52 1.658-9.147 2.908-19.549 11.228-19.549 11.228a91.98 91.98 0 0112.061 17.897 61.938 61.938 0 014.686 14.115z" fill="#000" stroke="#000" stroke-linecap="round" stroke-linejoin="round"/><path d="M91.017 225.449c-.303-1.199-4.82.607-4.82.607s1.51-5.716-.896-5.716c-2.407 0-2.71 4.234-2.71 4.234s-4.517-1.799-4.517.904c0 2.702 3.007 2.653 3.007 2.653s-3.614 4.517-.904 5.413c2.71.896 4.51-2.407 4.51-2.407s1.807 3.014 4.234 1.807c2.428-1.207.6-3.91.6-3.91s1.793-2.378 1.496-3.585zm-6.02 4.517a1.237 1.237 0 01-.899-1.609 1.238 1.238 0 011.026-.823 1.228 1.228 0 011.186.568c.124.197.19.424.19.657a1.412 1.412 0 01-1.503 1.207zm12.64 29.217c-.303-1.2-4.82.607-4.82.607s1.51-5.716-.903-5.716c-2.414 0-2.703 4.234-2.703 4.234s-4.517-1.807-4.517.896 3.013 2.71 3.013 2.71-3.613 4.517-.903 5.42c2.71.904 4.51-2.413 4.51-2.413s1.806 3.013 4.234 1.806c2.428-1.206.6-3.909.6-3.909s1.785-2.463 1.489-3.635zm-6.02 4.517a1.236 1.236 0 01.127-2.433c.23-.026.465.013.675.113a1.236 1.236 0 01.701 1.113 1.376 1.376 0 01-1.503 1.171v.036zm-20.466 0c-.303-1.207-4.813.6-4.813.6s1.503-5.717-.903-5.717c-2.407 0-2.71 4.235-2.71 4.235s-4.517-1.807-4.517.903 3.014 2.71 3.014 2.71-3.614 4.51-.904 5.413c2.71.903 4.51-2.407 4.51-2.407s1.806 3.007 4.234 1.807c2.428-1.2.607-3.91.607-3.91s1.785-2.47 1.49-3.67l-.008.036zm-6.02 4.509a1.23 1.23 0 01-.935-.927 1.234 1.234 0 112.438-.272 1.38 1.38 0 01-1.496 1.164l-.007.035zm38.815-27.982h3.31c2.407 0 3.91 2.71 3.91 2.71-5.11 1.468-7.213-2.745-7.213-2.745l-.007.035zm-3.31 23.473h3.31c2.407 0 3.91 2.71 3.91 2.71-5.11 1.468-7.213-2.746-7.213-2.746l-.007.036zm-28.878-4.517h3.31c2.406 0 3.91 2.71 3.91 2.71-5.117 1.468-7.22-2.71-7.22-2.71zm15.999-21.235l1.933 2.689c1.412 1.961.078 4.756.078 4.756-4.206-3.31-2.011-7.481-2.011-7.481v.036zM71.2 246.939l1.51-2.943c1.108-2.117 4.199-2.244 4.199-2.244-1.038 5.236-5.71 5.187-5.71 5.187zm161.534-15.773c-.303-1.2-4.82.607-4.82.607s1.51-5.717-.896-5.717c-2.407 0-2.71 4.235-2.71 4.235s-4.517-1.8-4.517.903c0 2.703 3.014 2.71 3.014 2.71s-3.614 4.516-.904 5.42c2.71.903 4.51-2.414 4.51-2.414s1.807 3.014 4.234 1.807c2.428-1.207.6-3.91.6-3.91s1.786-2.442 1.489-3.641zm-6.02 4.516a1.225 1.225 0 01-.6-.328 1.235 1.235 0 112.104-.879 1.38 1.38 0 01-1.504 1.207zm20.156 18.956c-.296-1.207-4.813.6-4.813.6s1.503-5.716-.903-5.716c-2.407 0-2.703 4.234-2.703 4.234s-4.517-1.807-4.517.903 3.006 2.71 3.006 2.71-3.606 4.51-.896 5.413c2.71.904 4.51-2.406 4.51-2.406s1.806 3.006 4.234 1.806c2.428-1.199.6-3.909.6-3.909s1.785-2.435 1.482-3.635zm-6.013 4.545a1.238 1.238 0 01-.898-1.612 1.242 1.242 0 011.029-.821 1.232 1.232 0 011.372 1.233 1.373 1.373 0 01-1.503 1.2zm-9.026 4.517c-.304-1.207-4.813.6-4.813.6s1.503-5.717-.904-5.717c-2.406 0-2.71 4.234-2.71 4.234s-4.516-1.806-4.516.904 3.013 2.71 3.013 2.71-3.613 4.509-.903 5.413c2.71.903 4.51-2.407 4.51-2.407s1.806 3.007 4.234 1.807c2.428-1.2.607-3.91.607-3.91s1.757-2.47 1.482-3.67v.036zm-6.02 4.509a1.228 1.228 0 01-.935-.927 1.237 1.237 0 011.066-1.506 1.236 1.236 0 011.372 1.234 1.373 1.373 0 01-1.503 1.164v.035zm19.859-22.265h3.31c2.407 0 3.91 2.71 3.91 2.71-5.117 1.467-7.22-2.746-7.22-2.746v.036zm-35.505 17.12h3.31c2.406 0 3.91 2.703 3.91 2.703-5.117 1.511-7.22-2.703-7.22-2.703zm19.309-19.407l1.933 2.689c1.412 1.962.078 4.756.078 4.756-4.206-3.302-2.011-7.445-2.011-7.445zm19.57 16.825l1.926 2.688c1.412 1.955.078 4.757.078 4.757-4.206-3.282-2.004-7.445-2.004-7.445zm-36.155-7.827l1.51-2.943c1.108-2.117 4.235-2.244 4.235-2.244-1.045 5.236-5.752 5.187-5.752 5.187h.007z" fill="#fff"/></svg>