<svg width="254" height="241" viewBox="0 0 254 241" fill="none" xmlns="http://www.w3.org/2000/svg">
<path d="M126.153 241C195.825 241 252.305 229.734 252.305 215.837C252.305 201.941 195.825 190.675 126.153 190.675C56.4805 190.675 0 201.941 0 215.837C0 229.734 56.4805 241 126.153 241Z" fill="#9BE69E"/>
<path opacity="0.5" d="M126.153 241C195.825 241 252.305 229.734 252.305 215.837C252.305 201.941 195.825 190.675 126.153 190.675C56.4805 190.675 0 201.941 0 215.837C0 229.734 56.4805 241 126.153 241Z" fill="white"/>
<path d="M178.304 3.07242H180.702C189.722 3.07242 198.373 6.65569 204.751 13.034C211.129 19.4122 214.712 28.063 214.712 37.0832V164.898H144.294V37.0832C144.294 28.063 147.877 19.4122 154.255 13.034C160.633 6.65569 169.284 3.07242 178.304 3.07242V3.07242Z" stroke="#4F4F4F" stroke-linecap="round" stroke-linejoin="round"/>
<path d="M152.242 164.536V39.4146C152.242 32.1854 155.114 25.2522 160.226 20.1403C165.338 15.0284 172.271 12.1566 179.5 12.1566V12.1566C183.082 12.1537 186.629 12.8567 189.938 14.2252C193.248 15.5938 196.255 17.6011 198.789 20.1326C201.322 22.664 203.332 25.6699 204.703 28.9784C206.074 32.2869 206.78 35.8332 206.78 39.4146V164.536" stroke="#4F4F4F" stroke-linecap="round" stroke-linejoin="round"/>
<path d="M179.5 3.07242V164.723" stroke="#4F4F4F" stroke-linecap="round" stroke-linejoin="round"/>
<path d="M144.672 34.2088H214.235" stroke="#4F4F4F" stroke-linecap="round" stroke-linejoin="round"/>
<path d="M144.672 56.1677H214.235" stroke="#4F4F4F" stroke-linecap="round" stroke-linejoin="round"/>
<path d="M144.672 78.1266H214.235" stroke="#4F4F4F" stroke-linecap="round" stroke-linejoin="round"/>
<path d="M144.672 100.08H214.235" stroke="#4F4F4F" stroke-linecap="round" stroke-linejoin="round"/>
<path d="M144.672 122.039H214.235" stroke="#4F4F4F" stroke-linecap="round" stroke-linejoin="round"/>
<path d="M144.672 143.998H214.235" stroke="#4F4F4F" stroke-linecap="round" stroke-linejoin="round"/>
<path d="M153.97 14.0601L160.279 19.8036" stroke="#4F4F4F" stroke-linecap="round" stroke-linejoin="round"/>
<path d="M204.762 14.0601L198.453 19.8036" stroke="#4F4F4F" stroke-linecap="round" stroke-linejoin="round"/>
<path d="M232.234 193.034C232.234 193.034 244.812 170.828 247.741 160.586C250.671 150.345 239.65 158.392 239.65 158.392C239.65 158.392 252.733 136.773 253.748 122.549C254.763 108.325 239.754 125.95 239.754 125.95C239.754 125.95 244.911 107.623 246.035 91.7529C247.16 75.883 240.001 83.6232 240.001 83.6232C240.001 83.6232 239.403 53.3371 235.338 56.3432C231.274 59.3493 229.48 69.1302 229.48 69.1302C229.48 69.1302 227.203 39.2665 223.884 47.281C220.566 55.2955 225.815 97.4634 225.815 97.4634C225.815 97.4634 218.031 75.4606 216.122 86.8762C214.213 98.2917 228.443 130.097 228.443 130.097C228.443 130.097 221.213 131.233 220.319 136.132C219.425 141.03 230.917 165.441 230.917 165.441C230.917 165.441 221.377 152.665 219.66 161.338C217.943 170.011 227.604 196.55 227.604 196.55L232.234 193.034Z" fill="#9BE69E"/>
<path d="M246.364 148.94C244.609 142.769 239.919 146.834 239.919 146.834C239.919 146.834 249.875 115.094 245.651 112.593C241.427 110.091 237.878 121.37 237.878 121.37C237.878 121.37 242.985 72.7891 240.072 75.3289C237.16 77.8688 235.47 93.7003 235.47 93.7003C235.47 93.7003 232.014 49.4807 228.174 56.9082C224.334 64.3358 228.854 109.203 228.854 109.203C228.854 109.203 221.657 86.7116 220.961 96.5418C220.264 106.372 227.851 138.825 227.851 138.825C227.851 138.825 219.249 136.016 219.447 140.975C219.644 145.934 224.614 168.842 224.614 168.842C224.614 168.842 219.298 166.264 220.588 171.305C221.877 176.347 227.944 191.602 227.944 191.602L234.395 193.709C234.395 193.709 243.72 178.426 239.88 178.7C238.78 178.756 237.704 179.042 236.721 179.54C235.738 180.038 234.871 180.737 234.175 181.591C234.175 181.591 248.125 155.101 246.364 148.94Z" stroke="#4F4F4F" stroke-linecap="round" stroke-linejoin="round"/>
<path d="M231.153 191.01C231.153 191.01 233.983 140.383 232.799 108.341" stroke="#4F4F4F" stroke-linecap="round" stroke-linejoin="round"/>
<path d="M236.452 214.345H224.455L223.045 188.563H237.856L236.452 214.345Z" fill="#4F4F4F" stroke="#4F4F4F" stroke-linecap="round" stroke-linejoin="round"/>
<path d="M134.847 28.5641H101.813V73.8314H134.847V28.5641Z" stroke="#4F4F4F" stroke-linecap="round" stroke-linejoin="round"/>
<path d="M129.938 35.2894H106.723V67.1005H129.938V35.2894Z" stroke="#4F4F4F" stroke-linecap="round" stroke-linejoin="round"/>
<path d="M52.4315 75.5868C54.087 75.9193 55.6535 76.5979 57.0285 77.5781C58.9484 79.0592 65.9535 90.4638 68.5482 92.9378C71.1429 95.4118 74.2204 98.4563 73.1507 100.908C72.081 103.36 70.4079 107.656 65.789 105.845C61.1701 104.035 59.9303 101.693 58.7016 99.548C57.4728 97.4031 53.4902 94.183 53.4902 94.183" fill="#9BE69E"/>
<path d="M52.4315 75.5868C54.087 75.9193 55.6535 76.5979 57.0285 77.5781C58.9484 79.0592 65.9535 90.4638 68.5482 92.9378C71.1429 95.4118 74.2204 98.4563 73.1507 100.908C72.081 103.36 70.4079 107.656 65.789 105.845C61.1701 104.035 59.9303 101.693 58.7016 99.548C57.4728 97.4031 53.4902 94.183 53.4902 94.183" stroke="#4F4F4F" stroke-linecap="round" stroke-linejoin="round"/>
<path d="M71.4446 99.0817C68.1917 95.56 65.3172 98.1931 63.3972 101.221C61.2633 104.595 59.3653 108.117 57.4783 111.644C57.4783 111.644 54.6367 114.343 54.4941 115.621C54.3515 116.899 56.6225 120.306 57.7855 120.168C58.9484 120.031 61.1975 119.313 61.3401 118.605C61.4828 117.897 60.3472 118.056 60.3472 118.056L61.1975 116.778L60.6489 113.745C64.3847 110.563 70.1665 105.61 71.7847 103.986C73.2713 102.466 72.7447 100.492 71.4446 99.0817Z" fill="white" stroke="#4F4F4F" stroke-linecap="round" stroke-linejoin="round"/>
<path d="M31.9866 119.653C31.9866 119.653 30.4836 126.087 31.1254 128.024C31.7672 129.96 34.1041 134.733 34.1041 134.733L38.9643 196.567L44.2196 196.435L46.6003 131.354L47.6645 131.227L49.5571 196.435L54.9714 196.649L58.6193 133.603C58.6193 133.603 59.1679 125.451 59.1679 124.59C59.1679 123.729 57.7471 115.813 57.7471 115.813L31.9866 119.653Z" fill="#4F4F4F" stroke="#4F4F4F" stroke-linecap="round" stroke-linejoin="round"/>
<path d="M38.9643 196.567C38.9643 196.567 32.7272 201.729 32.5955 203.484C32.4639 205.239 37.6094 204.433 39.7762 201.838C41.943 199.244 44.0166 199.94 44.1153 198.179L44.2195 196.418L38.9643 196.567Z" fill="white" stroke="#4F4F4F" stroke-linecap="round" stroke-linejoin="round"/>
<path d="M54.7903 196.567C54.7903 196.567 61.0275 201.723 61.1646 203.484C61.3018 205.245 56.1453 204.433 53.9785 201.838C51.8116 199.244 49.7436 199.94 49.6393 198.179L49.5351 196.418L54.7903 196.567Z" fill="white" stroke="#4F4F4F" stroke-linecap="round" stroke-linejoin="round"/>
<path d="M54.5764 83.4038L53.962 76.2012C49.974 74.5116 42.892 74.2812 40.7965 75.1041C40.7965 75.1041 28.6898 81.237 27.461 82.4658C26.2322 83.6945 22.0796 102.104 22.0796 105.182C22.0796 108.259 23.7692 110.393 26.8301 111.007C29.8911 111.622 31.8934 107.787 31.8934 107.787C31.8934 107.787 30.2038 117.113 30.511 118.21C30.8182 119.307 31.3887 120.871 32.612 121.024C33.8353 121.178 56.2605 120.201 57.1821 119.741C58.1036 119.28 58.7125 118.364 58.7125 116.219C58.7125 114.074 55.6461 92.3069 55.6461 92.3069" fill="#9BE69E"/>
<path d="M54.5764 83.4038L53.962 76.2012C49.974 74.5116 42.892 74.2812 40.7965 75.1041C40.7965 75.1041 28.6898 81.237 27.461 82.4658C26.2322 83.6945 22.0796 102.104 22.0796 105.182C22.0796 108.259 23.7692 110.393 26.8301 111.007C29.8911 111.622 31.8934 107.787 31.8934 107.787C31.8934 107.787 30.2038 117.113 30.511 118.21C30.8182 119.307 31.3887 120.871 32.612 121.024C33.8353 121.178 56.2605 120.201 57.1821 119.741C58.1036 119.28 58.7125 118.364 58.7125 116.219C58.7125 114.074 55.6461 92.3069 55.6461 92.3069" stroke="#4F4F4F" stroke-linecap="round" stroke-linejoin="round"/>
<path d="M32.4748 96.0481L32.3487 90.3047" stroke="#4F4F4F" stroke-linecap="round" stroke-linejoin="round"/>
<path d="M43.4625 87.2382C46.5527 87.2382 49.0579 84.4924 49.0579 81.1053C49.0579 77.7182 46.5527 74.9724 43.4625 74.9724C40.3723 74.9724 37.8672 77.7182 37.8672 81.1053C37.8672 84.4924 40.3723 87.2382 43.4625 87.2382Z" fill="white" stroke="#4F4F4F" stroke-linecap="round" stroke-linejoin="round"/>
<path d="M39.8585 70.3755C39.8585 70.3755 39.8585 81.4125 40.9556 83.4038C42.0527 85.3951 46.0133 86.0095 46.3205 83.4038C46.6277 80.7982 46.4741 71.2971 46.4741 71.2971L39.8585 70.3755Z" fill="white" stroke="#4F4F4F" stroke-linecap="round" stroke-linejoin="round"/>
<path d="M46.4906 75.702C46.4906 73.2883 46.4522 71.3135 46.4522 71.3135L39.8695 70.3919C39.8695 70.3919 39.8695 72.1473 39.9408 74.3854C40.8516 75.1055 41.9196 75.6 43.0579 75.8288C44.1961 76.0576 45.3723 76.0142 46.4906 75.702Z" fill="#4F4F4F" stroke="#4F4F4F" stroke-linecap="round" stroke-linejoin="round"/>
<path d="M50.8955 49.6837C50.8955 49.6837 51.9927 60.8744 52.2779 64.0944C52.5632 67.3145 51.3563 71.2971 47.2202 72.8275C43.084 74.358 39.7104 72.2186 37.56 69.3058C35.4097 66.3929 34.8172 66.2393 34.8172 66.2393C34.4753 66.3222 34.1203 66.3364 33.7728 66.2809C33.4254 66.2254 33.0925 66.1014 32.7934 65.9161C32.4943 65.7309 32.235 65.488 32.0306 65.2016C31.8262 64.9152 31.6807 64.5911 31.6026 64.248C30.8347 61.6424 32.9795 60.5672 34.6636 60.1064C34.6636 60.1064 31.9208 53.8254 31.9208 52.1358C31.9208 50.4462 34.8282 46.9245 40.9611 45.394C47.094 43.8635 50.8955 49.6837 50.8955 49.6837Z" fill="white" stroke="#4F4F4F" stroke-linecap="round" stroke-linejoin="round"/>
<path d="M45.9914 56.2775L46.145 58.7295C46.145 58.7295 49.6722 59.0367 48.4435 60.1064C47.4888 60.8371 46.392 61.3603 45.2234 61.6424" stroke="#4F4F4F" stroke-linecap="round" stroke-linejoin="round"/>
<path d="M40.3193 64.8569C40.8984 65.4182 41.6093 65.8249 42.3867 66.0397C43.1641 66.2544 43.983 66.2702 44.7681 66.0857" stroke="#4F4F4F" stroke-linecap="round" stroke-linejoin="round"/>
<path d="M42.1624 58.2687C42.1624 58.9873 41.8168 59.5688 41.3945 59.5688C40.9721 59.5688 40.6265 58.9873 40.6265 58.2687C40.6265 57.5501 40.9721 56.9631 41.3945 56.9631C41.8168 56.9631 42.1624 57.5501 42.1624 58.2687Z" fill="#4F4F4F"/>
<path d="M47.9827 58.1919C48.4068 58.1919 48.7507 57.6074 48.7507 56.8863C48.7507 56.1653 48.4068 55.5807 47.9827 55.5807C47.5585 55.5807 47.2147 56.1653 47.2147 56.8863C47.2147 57.6074 47.5585 58.1919 47.9827 58.1919Z" fill="#4F4F4F"/>
<path d="M38.4816 55.9702C38.4816 55.9702 39.8585 54.127 42.9249 54.2806" stroke="#4F4F4F" stroke-linecap="round" stroke-linejoin="round"/>
<path d="M45.5306 52.5966C45.7086 51.9145 46.1424 51.3271 46.742 50.9563C47.3415 50.5855 48.0609 50.4598 48.7507 50.6053" stroke="#4F4F4F" stroke-linecap="round" stroke-linejoin="round"/>
<path d="M33.1167 60.1064C33.1167 60.1064 35.4151 62.5585 36.1831 61.3352C36.9511 60.1119 36.1831 57.9615 36.3367 56.2774C36.4903 54.5934 38.328 54.7415 37.7136 53.3646C37.0992 51.9877 34.9708 53.5182 34.9708 51.9822C34.9708 50.4462 39.1124 47.9997 43.095 47.9997C47.0776 47.9997 51.3728 51.8396 54.9 50.1445C58.4273 48.4495 57.0449 44.7796 55.0536 43.0955C53.0624 41.4114 49.0743 41.5595 49.0743 41.5595C49.0743 41.5595 53.9785 40.0291 52.2944 38.4931C50.6103 36.9571 46.3151 36.809 44.0166 37.7306C41.7181 38.6522 39.2496 39.9029 39.2496 39.9029C39.2496 39.9029 41.2409 36.6828 38.4816 38.0652C37.3993 38.5727 36.4328 39.2972 35.6421 40.1936C34.8513 41.0901 34.2532 42.1394 33.8846 43.2765C33.1167 45.2678 32.5023 46.6447 32.5023 46.6447C32.5023 46.6447 30.6646 45.2678 29.2877 45.8822C27.9108 46.4966 30.3848 46.9793 30.3848 46.9793C30.3848 46.9793 27.1648 48.8225 27.642 51.2746C28.1193 53.7266 31.0157 57.2484 31.7837 57.7092C32.5516 58.17 33.1167 60.1064 33.1167 60.1064Z" fill="#4F4F4F" stroke="#4F4F4F" stroke-linecap="round" stroke-linejoin="round"/>
<path d="M48.7507 85.7023V79.2676C48.7507 78.6533 52.7387 78.3461 52.7387 78.3461L52.8868 79.2676L51.2027 80.1837L52.3437 82.7291C52.3437 82.7291 58.0981 78.9605 58.7125 79.7284C58.9567 80.0984 59.0738 80.5378 59.0461 80.9802C59.0184 81.4226 58.8474 81.8439 58.5589 82.1805C58.2548 82.5296 58.0452 82.9507 57.95 83.4038C57.95 83.4038 58.0981 87.5454 57.0285 88.0007C55.9588 88.4561 50.2811 89.9975 50.2811 89.9975C45.7884 95.3186 41.2463 100.694 35.843 105.132C33.6488 106.943 31.0212 109.998 28.2125 108.281C25.5136 106.635 25.5794 102.494 27.2909 100.267C30.3574 96.2785 34.4222 95.5106 38.4926 93.2505C42.1694 91.1045 45.608 88.5742 48.7507 85.7023Z" fill="white" stroke="#4F4F4F" stroke-linecap="round" stroke-linejoin="round"/>
<path d="M52.3438 82.7291L53.4409 72.6904C53.4639 72.3967 53.5949 72.122 53.8087 71.9194C54.0225 71.7167 54.3039 71.6005 54.5983 71.5933L58.2627 71.33C58.4235 71.3263 58.5833 71.355 58.7327 71.4145C58.882 71.474 59.0179 71.5629 59.1321 71.6761C59.2463 71.7893 59.3365 71.9243 59.3973 72.0731C59.4581 72.222 59.4883 72.3815 59.486 72.5423L58.718 79.7504L52.3438 82.7291Z" fill="#4F4F4F" stroke="#4F4F4F" stroke-linecap="round" stroke-linejoin="round"/>
<path d="M204.202 164.553C204.202 164.553 207.274 156.873 205.299 140.964C204.438 133.976 205.052 119.62 195.496 119.154C185.299 118.66 181.135 119.669 170.915 119.784C134.052 120.207 106.942 123.882 84.4675 121.715C66.4034 119.971 50.8187 117.107 44.4225 123.531C38.0263 129.955 38.5584 143.636 39.1179 146.291C39.6775 148.946 43.8575 167.087 43.8575 167.087L203.226 166.368L204.202 164.553Z" fill="#828282" stroke="#4F4F4F" stroke-linecap="round" stroke-linejoin="round"/>
<path d="M45.953 159.967C45.953 159.967 42.8811 147.679 37.8508 144.327C32.8204 140.975 26.2651 144.607 20.8453 149.911C15.4256 155.216 13.8622 161.503 16.1003 171.975C18.3384 182.447 24.8773 197.943 26.8521 204.927C28.8269 211.91 28.805 215.541 35.3658 217.774C41.9266 220.007 48.2131 220.149 52.2615 214.559C56.3098 208.97 55.1963 183.291 51.9817 173.648C48.7671 164.004 45.953 159.967 45.953 159.967Z" fill="#BDBDBD" stroke="#4F4F4F" stroke-linecap="round" stroke-linejoin="round"/>
<path d="M45.3935 214.143C42.6013 208.86 34.2248 171.009 34.3619 165.831C34.499 160.652 30.3135 152.007 25.1461 151.305C20.8892 150.756 17.4662 154.805 16.4184 156.242C14.7728 160.34 14.6521 165.304 16.0729 171.964C18.3055 182.436 18.0257 198.256 19.9786 205.239C21.9315 212.223 21.915 215.865 28.4978 218.098C32.815 219.568 43.8575 219.804 47.3738 218.427C46.813 216.955 46.1513 215.523 45.3935 214.143Z" fill="#828282" stroke="#4F4F4F" stroke-linecap="round" stroke-linejoin="round"/>
<path d="M195.809 159.731C195.809 159.731 199.057 147.443 204.361 144.091C209.666 140.739 216.605 144.371 222.354 149.676C228.103 154.98 229.732 161.267 227.373 171.739C225.014 182.211 218.081 197.708 216.013 204.691C213.944 211.674 213.95 215.305 207.016 217.538C200.082 219.771 193.45 219.913 189.171 214.329C184.893 208.745 186.078 183.061 189.468 173.412C192.858 163.763 195.809 159.731 195.809 159.731Z" fill="#BDBDBD" stroke="#4F4F4F" stroke-linecap="round" stroke-linejoin="round"/>
<path d="M196.391 214.686C199.336 209.31 208.185 171.004 208.042 165.776C207.899 160.548 212.315 151.809 217.751 151.074C222.25 150.487 225.843 154.613 226.967 156.077C228.728 160.224 228.838 165.249 227.34 171.986C224.976 182.589 221.372 198.278 219.304 205.349C217.236 212.42 217.241 216.09 210.308 218.355C205.749 219.842 197.992 220.413 194.273 219.014C194.878 217.524 195.585 216.078 196.391 214.686Z" fill="#828282" stroke="#4F4F4F" stroke-linecap="round" stroke-linejoin="round"/>
<path d="M208.113 183.544C208.113 183.544 204.624 205.223 202.386 212.486C200.148 219.749 200.85 219.749 197.082 220.029C193.313 220.308 50.2812 219.908 45.8104 219.211C41.3396 218.514 38.9698 215.157 37.7136 210.434C36.4574 205.711 35.2012 184.142 35.2012 184.142L202.107 183.593L208.113 183.544Z" fill="#828282" stroke="#4F4F4F" stroke-linecap="round" stroke-linejoin="round"/>
<path d="M35.2067 187.554C35.5248 188.327 36.0375 189.004 36.695 189.521C37.3525 190.037 38.1324 190.374 38.9588 190.5C41.9101 191.048 117.518 191.843 119.927 191.843C122.335 191.843 184.004 191.843 193.927 191.037C203.851 190.231 208.898 188.92 208.113 183.544C207.329 178.168 207.598 182.447 207.598 182.447L33.5994 184.602L35.2067 187.554Z" fill="#4F4F4F"/>
<path d="M46.3699 159.264C46.3699 159.264 35.6291 166.527 32.5462 169.879C29.4632 173.231 31.1528 175.88 31.449 178.398C31.7453 180.916 32.985 186.495 36.611 188.448C40.237 190.401 85.3452 189.545 111.599 190.406C137.854 191.267 194.29 190.247 201.295 188.563C208.3 186.879 209.934 178.228 210.351 173.341C210.768 168.453 205.76 161.612 202.968 160.778C200.176 159.945 176.949 159.818 151.118 160.378C125.286 160.938 113.448 163.187 83.9848 162.627C54.5215 162.068 53.0733 158.008 46.3699 159.264Z" fill="#BDBDBD"/>
<path d="M31.4326 178.398C31.7068 180.911 32.9685 186.495 36.5945 188.448C40.2205 190.401 85.3287 189.545 111.583 190.406C137.837 191.267 194.29 190.247 201.295 188.563C208.3 186.879 212.463 180.187 212.88 175.299C212.928 174.559 212.847 173.816 212.639 173.105C211.651 174.087 209.759 173.022 207.515 172.704C202.54 171.986 150.191 175.244 111.012 175.244C68.466 175.244 54.6038 175.244 33.55 171.196C30.4177 170.592 32.5681 169.863 32.5681 169.863C29.4742 173.231 31.1528 175.88 31.4326 178.398Z" fill="#828282"/>
<path d="M46.3699 159.264C46.3699 159.264 35.6291 166.527 32.5462 169.879C29.4632 173.231 31.1528 175.88 31.449 178.398C31.7453 180.916 32.985 186.495 36.611 188.448C40.237 190.401 85.3452 189.545 111.599 190.406C137.854 191.267 194.289 190.247 201.295 188.563C208.3 186.879 209.934 178.228 210.351 173.341C210.768 168.453 205.76 161.612 202.968 160.778C200.176 159.945 176.949 159.818 151.118 160.378C125.286 160.938 113.448 163.187 83.9848 162.627C54.5215 162.068 53.0733 158.008 46.3699 159.264Z" stroke="#4F4F4F" stroke-linecap="round" stroke-linejoin="round"/>
<path d="M122.379 122.264L122.159 161.832C122.159 161.832 120.431 172.655 120.656 174.152C120.881 175.65 120.87 190.368 120.87 190.368" stroke="#4F4F4F" stroke-linecap="round" stroke-linejoin="round"/>
<path d="M192.518 132.346C194.202 132.087 195.925 132.388 197.422 133.202C199.616 134.552 203.187 138.968 203.187 138.968L206.989 128.419C206.989 128.419 205.272 125.232 205.272 124.129C205.272 123.026 205.151 121.935 205.151 121.43C205.151 120.925 206.248 120.448 206.248 120.942C206.325 121.602 206.448 122.257 206.616 122.9L207.877 124.381L208.612 118.254C208.612 118.254 209.221 117.519 209.468 118.128C209.715 118.737 209.611 121.896 209.611 121.896H210.22L210.801 116.932C210.801 116.932 210.977 116.696 211.564 116.756C211.634 116.754 211.704 116.769 211.767 116.801C211.83 116.832 211.884 116.879 211.925 116.937C211.965 116.994 211.99 117.061 211.998 117.132C212.006 117.202 211.996 117.273 211.97 117.338L211.564 122.017L211.915 122.072L212.891 117.755C212.891 117.755 213.303 117.349 213.593 117.579C213.785 117.787 213.889 118.06 213.884 118.342L213.259 122.834L214.647 120.267C214.647 120.267 215.228 120.037 215.228 120.503C214.806 122.053 214.284 123.574 213.665 125.056C213.549 125.232 211.328 129.318 211.328 129.318C211.328 129.318 209.518 140.131 208.7 142.484C207.883 144.837 206.127 146.922 203.615 147.042C201.103 147.163 198.239 144.3 198.239 144.3L192.518 132.346Z" fill="white" stroke="#4F4F4F" stroke-linecap="round" stroke-linejoin="round"/>
<path d="M209.238 127.854C209.238 127.854 209.666 125.95 210.187 125.347C210.661 124.894 211.22 124.539 211.833 124.305" stroke="#4F4F4F" stroke-linecap="round" stroke-linejoin="round"/>
<path d="M184.289 128.172C184.289 128.172 184.048 131.606 183.801 132.56C183.554 133.515 182.084 133.295 180.735 133.295C179.385 133.295 178.897 135.49 178.65 137.465C178.403 139.439 175.463 161.256 175.951 164.344C176.439 167.432 181.596 170.724 187.235 171.091C192.874 171.459 200.845 170.598 204.037 168.146C207.23 165.694 207.592 163.757 206.857 161.278C206.122 158.798 204.158 156.253 203.176 155.15C202.194 154.048 201.212 152.698 201.212 152.698C201.212 152.698 195.694 134.426 194.344 133.076C192.995 131.727 190.301 132.341 190.301 132.341L189.44 127.799L184.289 128.172Z" fill="#9BE69E" stroke="#4F4F4F" stroke-linecap="round" stroke-linejoin="round"/>
<path d="M179.166 162.232C179.166 162.232 184.964 149.467 199.77 153.455" stroke="#4F4F4F" stroke-linecap="round" stroke-linejoin="round"/>
<path d="M182.923 155.276C182.923 155.276 187.109 151.842 191.613 151.952" stroke="#4F4F4F" stroke-linecap="round" stroke-linejoin="round"/>
<path d="M191.382 132.215C191.023 132.229 190.665 132.273 190.312 132.346L189.451 127.804L184.3 128.172C184.3 128.172 184.059 131.606 183.812 132.56C183.691 133.049 183.263 133.23 182.715 133.295C183.126 134.393 184.635 137.755 188.107 137.958C191.185 138.167 191.453 134.255 191.382 132.215Z" fill="white" stroke="#4F4F4F" stroke-linecap="round" stroke-linejoin="round"/>
<path d="M184.053 130.964C184.981 131.173 185.928 131.287 186.878 131.304C187.949 131.328 189.015 131.163 190.027 130.816L189.479 127.788L184.328 128.155C184.328 128.155 184.196 129.675 184.053 130.964Z" fill="#4F4F4F" stroke="#4F4F4F" stroke-linecap="round" stroke-linejoin="round"/>
<path d="M197.301 107.573C197.301 107.573 201.349 104.628 206.254 105.379C211.158 106.131 210.79 113.843 208.953 115.928C207.115 118.012 202.699 116.663 202.699 115.681C202.699 114.699 203.434 111.391 201.602 109.647C201.115 109.156 200.505 108.806 199.836 108.633C199.167 108.461 198.464 108.471 197.8 108.665L197.301 107.573Z" fill="#4F4F4F" stroke="#4F4F4F" stroke-linecap="round" stroke-linejoin="round"/>
<path d="M177.706 116.526C177.575 117.618 177.535 118.719 177.586 119.817C177.706 121.046 175.989 121.902 177.092 123.986C178.195 126.071 180.773 129.631 186.906 129.752C193.039 129.872 197.082 124.112 197.082 118.715C197.082 113.317 190.323 109.164 186.752 109.164C183.181 109.164 179.275 112.231 178.524 113.459C178.052 114.418 177.775 115.46 177.706 116.526Z" fill="white" stroke="#4F4F4F" stroke-linecap="round" stroke-linejoin="round"/>
<path d="M184.794 121.09C184.835 121.304 184.808 121.525 184.718 121.724C184.629 121.922 184.48 122.088 184.293 122.199C184.105 122.31 183.888 122.36 183.671 122.343C183.454 122.326 183.247 122.242 183.079 122.104C182.912 121.965 182.79 121.778 182.733 121.568C182.675 121.358 182.684 121.135 182.757 120.93C182.831 120.725 182.966 120.548 183.144 120.422C183.322 120.297 183.534 120.229 183.752 120.229C184.004 120.207 184.254 120.285 184.449 120.446C184.644 120.607 184.768 120.839 184.794 121.09Z" stroke="#4F4F4F" stroke-linecap="round" stroke-linejoin="round"/>
<path d="M181.848 123.026C181.848 123.026 183.324 124.743 186.264 123.147" stroke="#4F4F4F" stroke-linecap="round" stroke-linejoin="round"/>
<path d="M181.113 119.839C181.519 119.839 181.848 119.289 181.848 118.61C181.848 117.932 181.519 117.382 181.113 117.382C180.707 117.382 180.378 117.932 180.378 118.61C180.378 119.289 180.707 119.839 181.113 119.839Z" fill="#4F4F4F"/>
<path d="M187.125 118.731C187.125 119.411 186.791 119.96 186.385 119.96C185.979 119.96 185.65 119.411 185.65 118.731C185.65 118.051 185.979 117.508 186.385 117.508C186.791 117.508 187.125 118.056 187.125 118.731Z" fill="#4F4F4F"/>
<path d="M179.901 116.526C180.211 116.202 180.6 115.964 181.03 115.835C181.46 115.706 181.915 115.691 182.353 115.791" stroke="#4F4F4F" stroke-linecap="round" stroke-linejoin="round"/>
<path d="M185.386 115.665C185.386 115.665 187.712 115.176 188.447 117.261" stroke="#4F4F4F" stroke-linecap="round" stroke-linejoin="round"/>
<path d="M185.282 109.905C185.282 109.905 188.716 117.508 191.783 119.466C194.849 121.425 197.789 120.081 198.283 118.978C199.581 116.433 199.844 113.484 199.018 110.75C197.789 106.58 195.217 103.882 191.168 104.128C187.12 104.375 182.463 107.683 182.463 107.683L185.282 109.905Z" fill="#4F4F4F" stroke="#4F4F4F" stroke-linecap="round" stroke-linejoin="round"/>
<path d="M186.752 110.272C186.752 110.272 178.804 116.279 177.312 117.508C175.819 118.737 173.878 117.996 172.528 113.58C171.179 109.164 174.004 105.489 177.805 105.489C181.607 105.489 185.897 107.924 185.897 107.924" fill="#4F4F4F"/>
<path d="M186.752 110.272C186.752 110.272 178.804 116.279 177.312 117.508C175.819 118.737 173.878 117.996 172.528 113.58C171.179 109.164 174.004 105.489 177.805 105.489C181.607 105.489 185.897 107.924 185.897 107.924" stroke="#4F4F4F" stroke-linecap="round" stroke-linejoin="round"/>
<path d="M193.549 120.92C193.549 120.92 195.507 117.629 197.35 117.853C199.194 118.078 198.206 122.637 197.224 123.739C196.242 124.842 194.405 123.619 194.405 123.619" fill="white"/>
<path d="M193.549 120.92C193.549 120.92 195.507 117.629 197.35 117.853C199.194 118.078 198.206 122.637 197.224 123.739C196.242 124.842 194.405 123.619 194.405 123.619" stroke="#4F4F4F" stroke-linecap="round" stroke-linejoin="round"/>
<path d="M182.463 135.287C182.382 134.971 182.235 134.675 182.032 134.42C181.83 134.164 181.575 133.954 181.286 133.803C180.997 133.653 180.679 133.565 180.353 133.545C180.027 133.526 179.701 133.575 179.396 133.69C176.944 134.431 176.105 139.823 175.474 143.257C174.843 146.691 170.937 166.193 170.937 166.193C170.937 166.193 166.889 166.802 165.172 167.29C163.455 167.778 164.804 168.025 167.256 168.272C169.708 168.519 171.179 168.76 171.179 168.76C171.179 168.76 168.485 170.109 170.937 170.109C173.389 170.109 174.859 168.513 175.106 167.915C175.353 167.317 181.974 142.528 182.463 139.708C182.951 136.888 182.463 135.287 182.463 135.287Z" fill="white" stroke="#4F4F4F" stroke-linecap="round" stroke-linejoin="round"/>
<path d="M205.776 157.295C205.776 157.295 202.238 154.931 198.59 157.399C194.942 159.868 197.729 166.626 198.481 168.99C199.232 171.355 202.128 178.107 203.527 181.541C204.926 184.975 206.1 190.318 206.424 191.306C206.747 192.293 209.32 192.919 210.39 192.705C212.918 191.904 215.364 190.861 217.691 189.589C218.975 188.733 219.298 187.23 218.547 186.906C217.795 186.583 210.39 186.692 210.39 186.692C210.39 186.692 208.996 182.304 208.783 178.969C208.569 175.633 207.279 165.984 207.175 162.764C207.071 159.544 206.232 157.959 205.776 157.295Z" fill="white" stroke="#4F4F4F" stroke-linecap="round" stroke-linejoin="round"/>
<path d="M209.644 187.68C209.634 188.055 209.56 188.426 209.424 188.777C208.237 188.983 207.036 189.102 205.831 189.134C206.111 190.231 206.314 191.032 206.424 191.328C206.742 192.293 209.32 192.941 210.39 192.727C212.918 191.926 215.364 190.883 217.691 189.611C218.975 188.755 219.298 187.252 218.547 186.928C217.795 186.605 210.39 186.714 210.39 186.714C210.39 186.714 209.644 187.148 209.644 187.68Z" fill="#4F4F4F" stroke="#4F4F4F" stroke-linecap="round" stroke-linejoin="round"/>
<path d="M200.093 191.01C200.093 191.01 199.21 191.01 197.246 177.548C196.385 171.656 197.032 162.035 194.778 158.815C192.523 155.594 185.452 156.565 185.452 163.483C185.452 170.4 191.887 185.535 193.681 189.88C195.474 194.224 195.935 196.962 197.521 197.285C199.106 197.609 205.409 195.996 207.823 194.389C210.236 192.781 210.719 190.549 209.112 190.549C207.504 190.549 200.093 191.01 200.093 191.01Z" fill="white" stroke="#4F4F4F" stroke-linecap="round" stroke-linejoin="round"/>
<path d="M198.996 191.679C198.887 191.953 198.844 192.25 198.873 192.544C198.902 192.838 199 193.12 199.161 193.368C199.462 193.698 198.404 193.862 195.173 193.917C195.913 195.892 196.484 197.093 197.515 197.302C199.128 197.625 205.403 196.012 207.817 194.405C210.231 192.798 210.713 190.565 209.106 190.565C207.499 190.565 200.093 191.048 200.093 191.048C199.878 191.076 199.67 191.145 199.482 191.254C199.293 191.362 199.128 191.506 198.996 191.679Z" fill="#4F4F4F" stroke="#4F4F4F" stroke-linecap="round" stroke-linejoin="round"/>
<path d="M146.054 87.6277C145.95 85.134 144.913 82.7706 143.147 81.0066C140.24 78.2638 133.783 77.6165 130.717 81.813C127.65 86.0095 127.65 89.4051 128.78 90.2114L129.91 91.0178C129.91 91.0178 128.457 93.7606 130.069 95.0552C131.682 96.3498 132.977 97.639 133.3 96.1853C133.624 94.7316 131.199 91.6651 134.913 89.2405C138.627 86.8158 146.054 87.6277 146.054 87.6277Z" fill="#4F4F4F" stroke="#4F4F4F" stroke-linecap="round" stroke-linejoin="round"/>
<path d="M144.277 84.2266C144.277 84.2266 149.121 80.1892 151.864 83.5793C154.607 86.9694 148.962 91.3305 148.155 91.8077C147.349 92.285 144.118 85.6748 144.118 85.6748C144.118 85.6748 143.312 85.033 144.277 84.2266Z" fill="#4F4F4F" stroke="#4F4F4F" stroke-linecap="round" stroke-linejoin="round"/>
<path d="M148.693 92.6251C148.693 92.6251 150.52 89.9371 151.485 92.1917C152.451 94.4463 150.388 97.5676 149.445 98.2259C148.501 98.8842 148.693 92.6251 148.693 92.6251Z" fill="white" stroke="#4F4F4F" stroke-linecap="round" stroke-linejoin="round"/>
<path d="M132.253 95.3075C132.253 95.3075 130.53 91.336 129.351 93.053C128.171 94.77 129.461 99.2846 131.715 99.2846C132.008 98.8209 132.224 98.3135 132.357 97.7816" fill="white"/>
<path d="M132.253 95.3075C132.253 95.3075 130.53 91.336 129.351 93.053C128.171 94.77 129.461 99.2846 131.715 99.2846C132.008 98.8209 132.224 98.3135 132.357 97.7816" stroke="#4F4F4F" stroke-linecap="round" stroke-linejoin="round"/>
<path d="M158.425 134.255C156.543 129.285 159.286 116.268 155.002 114.211C150.717 112.154 144.727 111.468 144.727 111.468L139.757 111.649L134.787 111.468C134.787 111.468 128.791 112.154 124.507 114.211C120.223 116.268 122.966 129.285 121.084 134.255C119.202 139.225 117.655 145.726 118.341 149.84C119.027 153.954 121.424 155.49 123.311 156.006C124.606 156.357 134.014 156.225 139.768 156.11C145.506 156.225 154.914 156.357 156.225 156.006C158.106 155.49 160.504 153.949 161.189 149.84C161.875 145.731 160.312 139.192 158.425 134.255Z" fill="#9BE69E" stroke="#4F4F4F" stroke-linecap="round" stroke-linejoin="round"/>
<path d="M128.769 135.967C128.769 135.967 140.744 130.064 150.256 134.321" stroke="#4F4F4F" stroke-linecap="round" stroke-linejoin="round"/>
<path d="M136.482 130.229C136.482 130.229 142.22 129.406 146.159 131.54" stroke="#4F4F4F" stroke-linecap="round" stroke-linejoin="round"/>
<path d="M137.113 108.308C137.113 108.308 133.783 109.406 133.246 110.892C132.708 112.379 131.633 116.477 131.743 118.303C131.852 120.13 132.922 121.095 133.46 120.24C133.997 119.384 139.154 117.124 139.801 116.8C140.448 116.477 144.42 117.661 145.171 118.517C145.923 119.373 148.073 121.743 148.397 120.881C148.721 120.02 148.397 116.153 147.3 112.719C146.203 109.285 145.259 108.742 143.323 108.204C141.386 107.667 137.113 108.308 137.113 108.308Z" fill="white" stroke="#4F4F4F" stroke-linecap="round" stroke-linejoin="round"/>
<path d="M135.906 108.095C135.906 108.095 136.12 113.47 137.003 116.263C137.886 119.055 140.223 122.818 141.298 122.297C142.374 121.776 143.559 116.811 144.091 114.776C144.509 112.754 144.797 110.707 144.952 108.649C144.952 108.649 137.299 109.17 135.906 108.095Z" fill="white" stroke="#4F4F4F" stroke-linecap="round" stroke-linejoin="round"/>
<path d="M144.93 108.632C144.93 108.632 137.299 109.181 135.906 108.084C135.906 108.084 135.966 109.548 136.142 111.348C138.698 112.172 141.414 112.371 144.063 111.929C144.25 111.891 144.42 111.841 144.612 111.797C144.793 110.157 144.93 108.632 144.93 108.632Z" fill="#4F4F4F" stroke="#4F4F4F" stroke-linecap="round" stroke-linejoin="round"/>
<path d="M132.116 89.981C132.116 89.981 130.289 104.425 132.116 106.915C133.942 109.406 140.245 110.755 144.063 109.899C147.881 109.044 149.708 106.608 149.878 101.764C150.048 96.9203 148.715 88.9826 147.053 87.8252C145.391 86.6677 141.244 85.1647 137.59 86.3276C133.937 87.4906 132.609 88.6535 132.116 89.981Z" fill="white" stroke="#4F4F4F" stroke-linecap="round" stroke-linejoin="round"/>
<path d="M137.596 85.4335C137.596 85.4335 136.499 89.5916 133.876 90.9191C131.254 92.2466 131.907 88.7248 132.565 86.761" fill="#4F4F4F"/>
<path d="M137.596 85.4335C137.596 85.4335 136.499 89.5916 133.876 90.9191C131.254 92.2466 131.907 88.7248 132.565 86.761" stroke="#4F4F4F" stroke-linecap="round" stroke-linejoin="round"/>
<path d="M136.071 95.1539C136.071 95.1539 137.941 93.5083 139.362 94.9345" stroke="#4F4F4F" stroke-linecap="round" stroke-linejoin="round"/>
<path d="M143.24 94.8193C143.24 94.8193 144.782 92.7238 146.438 94.9345" stroke="#4F4F4F" stroke-linecap="round" stroke-linejoin="round"/>
<path d="M142.138 92.0875L142.78 99.1804C142.78 99.1804 140.849 100.146 139.987 98.3192" fill="white"/>
<path d="M142.138 92.0875L142.78 99.1804C142.78 99.1804 140.849 100.146 139.987 98.3192" stroke="#4F4F4F" stroke-linecap="round" stroke-linejoin="round"/>
<path d="M135.796 92.0875C136.922 91.3274 138.294 91.0199 139.636 91.2262" stroke="#4F4F4F" stroke-linecap="round" stroke-linejoin="round"/>
<path d="M142.352 91.336C142.891 90.9804 143.518 90.7819 144.163 90.7625C144.808 90.7431 145.446 90.9037 146.005 91.2263" stroke="#4F4F4F" stroke-linecap="round" stroke-linejoin="round"/>
<path d="M140.635 99.0707C140.635 99.0707 136.186 99.9155 136.51 100.667C136.833 101.419 138.199 102.313 139.488 102.214C140.777 102.115 141.71 100.568 141.71 100.568C141.71 100.568 143.789 103.64 146.548 100.991C147.431 100.146 142.78 99.1749 142.78 99.1749C142.78 99.1749 141.277 99.8222 140.635 99.0707Z" fill="#4F4F4F"/>
<path d="M158.128 151.771C158.128 151.771 157.799 148.88 147.47 146.499C137.14 144.119 129.592 146.324 126.142 148.88C122.691 151.436 120.563 153.131 119.252 157.723C117.941 162.314 117.606 171.322 127.946 173.702C138.287 176.083 154.678 175.727 159.434 171.064C167.108 163.549 159.604 153.455 158.128 151.771Z" fill="#4F4F4F" stroke="#4F4F4F" stroke-linecap="round" stroke-linejoin="round"/>
<path d="M146.872 150.021C146.872 150.021 143.679 149.725 142.763 149.522C141.847 149.319 138.687 151.052 136.954 151.968C135.636 152.767 134.628 153.989 134.096 155.435C134.096 155.743 133.794 157.268 134.304 157.476C134.814 157.684 137.36 157.065 138.073 157.065C138.786 157.065 142.763 155.841 143.783 155.967C144.804 156.094 148.485 154.004 148.485 154.004L146.872 150.021Z" fill="white" stroke="#4F4F4F" stroke-linecap="round" stroke-linejoin="round"/>
<path d="M142.664 154.415C142.664 154.415 139.806 154.722 139.093 155.331C138.319 155.905 137.501 156.416 136.647 156.862" stroke="#4F4F4F" stroke-linecap="round" stroke-linejoin="round"/>
<path d="M141.441 152.906C140.205 153.259 139.009 153.737 137.87 154.333C136.801 155.153 135.811 156.071 134.913 157.076" stroke="#4F4F4F" stroke-linecap="round" stroke-linejoin="round"/>
<path d="M140.827 151.562C140.827 151.562 136.85 152.989 136.137 153.499C135.413 154.097 134.731 154.744 134.096 155.435" stroke="#4F4F4F" stroke-linecap="round" stroke-linejoin="round"/>
<path d="M154.875 113.525C154.875 113.525 159.845 114.381 162.243 116.948C164.64 119.516 167.553 132.533 168.924 137.503C170.295 142.473 170.981 149.933 170.295 151.475C169.61 153.016 166.543 154.004 163.992 154.004C161.442 154.004 148.04 154.294 148.04 154.294L146.159 150.18L159.604 143.921L156.225 124.315" fill="#9BE69E"/>
<path d="M154.875 113.525C154.875 113.525 159.845 114.381 162.243 116.948C164.64 119.516 167.553 132.533 168.924 137.503C170.295 142.473 170.981 149.933 170.295 151.475C169.61 153.016 166.543 154.004 163.992 154.004C161.442 154.004 148.04 154.294 148.04 154.294L146.159 150.18L159.604 143.921L156.225 124.315" stroke="#4F4F4F" stroke-linecap="round" stroke-linejoin="round"/>
<path d="M126.564 113.525C126.564 113.525 121.594 114.381 119.197 116.948C116.8 119.516 113.887 132.533 112.521 137.503C111.155 142.473 110.365 148.792 111.051 150.334C111.736 151.875 115.335 154.272 117.902 154.272C120.47 154.272 132.988 153.982 132.988 153.982L134.601 150.021L122.017 143.142L125.193 124.315" fill="#9BE69E"/>
<path d="M126.564 113.525C126.564 113.525 121.594 114.381 119.197 116.948C116.8 119.516 113.887 132.533 112.521 137.503C111.155 142.473 110.365 148.792 111.051 150.334C111.736 151.875 115.335 154.272 117.902 154.272C120.47 154.272 132.988 153.982 132.988 153.982L134.601 150.021L122.017 143.142L125.193 124.315" stroke="#4F4F4F" stroke-linecap="round" stroke-linejoin="round"/>
<path d="M134.601 150.021C134.601 150.021 137.788 149.725 138.704 149.522C139.62 149.319 142.785 151.052 144.519 151.968C145.836 152.766 146.842 153.989 147.371 155.435C147.371 155.743 147.678 157.268 147.168 157.476C146.658 157.684 144.107 157.065 143.394 157.065C142.681 157.065 138.704 155.841 137.683 155.967C136.663 156.094 132.988 154.004 132.988 154.004L134.601 150.021Z" fill="white" stroke="#4F4F4F" stroke-linecap="round" stroke-linejoin="round"/>
<path d="M138.808 154.415C138.808 154.415 141.661 154.722 142.374 155.331C143.149 155.903 143.967 156.415 144.82 156.862" stroke="#4F4F4F" stroke-linecap="round" stroke-linejoin="round"/>
<path d="M140.031 152.906C141.266 153.258 142.46 153.736 143.597 154.333C144.667 155.152 145.657 156.07 146.554 157.076" stroke="#4F4F4F" stroke-linecap="round" stroke-linejoin="round"/>
<path d="M140.64 151.562C140.64 151.562 144.617 152.989 145.33 153.499C146.054 154.097 146.736 154.744 147.371 155.435" stroke="#4F4F4F" stroke-linecap="round" stroke-linejoin="round"/>
<path d="M136.806 160.241C136.806 160.241 128.605 152.698 121.72 152.533C114.836 152.369 110.749 157.29 111.056 164.832C111.363 172.375 119.082 222.876 119.082 222.876L126.954 222.711L128.934 165.326" fill="#4F4F4F"/>
<path d="M136.806 160.241C136.806 160.241 128.605 152.698 121.72 152.533C114.836 152.369 110.749 157.29 111.056 164.832C111.363 172.375 119.082 222.876 119.082 222.876L126.954 222.711L128.934 165.326" stroke="#4F4F4F" stroke-linecap="round" stroke-linejoin="round"/>
<path d="M119.082 222.875C119.082 222.875 114.814 225.827 113.667 229.272C112.521 232.717 119.082 231.735 121.896 228.948C123.765 227.017 125.466 224.93 126.981 222.711L119.082 222.875Z" fill="white" stroke="#4F4F4F" stroke-linecap="round" stroke-linejoin="round"/>
<path d="M143.515 160.241C143.515 160.241 151.716 152.698 158.606 152.533C165.496 152.369 169.577 157.29 169.264 164.832C168.951 172.375 158.26 222.876 158.26 222.876L150.388 222.711L151.376 165.326" fill="#4F4F4F"/>
<path d="M143.515 160.241C143.515 160.241 151.716 152.698 158.606 152.533C165.496 152.369 169.577 157.29 169.264 164.832C168.951 172.375 158.26 222.876 158.26 222.876L150.388 222.711L151.376 165.326" stroke="#4F4F4F" stroke-linecap="round" stroke-linejoin="round"/>
<path d="M158.26 222.875C158.26 222.875 162.528 225.827 163.674 229.272C164.821 232.717 158.26 231.735 155.473 228.948C153.604 227.017 151.903 224.93 150.388 222.711L158.26 222.875Z" fill="white" stroke="#4F4F4F" stroke-linecap="round" stroke-linejoin="round"/>
<path d="M97.1887 95.5654C97.1887 95.5654 101.517 94.1227 102.181 91.5718C102.844 89.021 100.409 80.469 93.0799 77.4683C85.7511 74.4677 73.7596 76.5797 69.6509 81.2479C65.5421 85.9162 69.8758 90.2388 69.9855 91.2372C70.0952 92.2356 66.7654 92.8829 66.2114 97.1233C65.6573 101.364 71.0991 105.67 76.9796 106.997C82.8602 108.325 85.7566 106.663 85.7566 104.441C85.7566 102.219 84.4236 100.223 86.9799 98.5605C89.5362 96.8984 92.4162 93.788 93.6395 93.8977C94.8627 94.0075 97.1887 95.5654 97.1887 95.5654Z" fill="#4F4F4F"/>
<path d="M87.8467 81.813C84.9109 86.5386 80.465 90.1341 75.2297 92.0162C66.6338 94.973 63.6825 92.8226 63.6825 92.8226" stroke="#828282" stroke-linecap="round" stroke-linejoin="round"/>
<path d="M83.8147 79.9479C83.8147 79.9479 75.7618 90.6887 65.8219 90.4199" stroke="#828282" stroke-linecap="round" stroke-linejoin="round"/>
<path d="M91.0667 81.813C91.0667 81.813 77.3527 102.494 60.9891 102.494" stroke="#828282" stroke-linecap="round" stroke-linejoin="round"/>
<path d="M85.4275 78.3022C85.4275 78.3022 99.0647 85.4609 102.181 91.5499" stroke="#828282" stroke-linecap="round" stroke-linejoin="round"/>
<path d="M97.1887 95.5654C97.1887 95.5654 101.517 94.1227 102.181 91.5718C102.844 89.021 100.409 80.469 93.0799 77.4683C85.7511 74.4677 73.7596 76.5797 69.6509 81.2479C65.5421 85.9162 69.8758 90.2388 69.9855 91.2372C70.0952 92.2356 66.7654 92.8829 66.2114 97.1233C65.6573 101.364 71.0991 105.67 76.9796 106.997C82.8602 108.325 85.7566 106.663 85.7566 104.441C85.7566 102.219 84.4236 100.223 86.9799 98.5605C89.5362 96.8984 92.4162 93.788 93.6395 93.8977C94.8627 94.0075 97.1887 95.5654 97.1887 95.5654Z" stroke="#4F4F4F" stroke-linecap="round" stroke-linejoin="round"/>
<path d="M94.6323 116.992C94.6323 116.992 101.072 118.769 104.068 122.988C107.063 127.206 109.619 137.311 110.65 141.639C111.682 145.967 110.338 150.718 107.359 152.27C104.38 153.823 99.4487 147.882 98.2309 145.638C97.0131 143.394 97.0076 135.314 96.0367 129.872C95.0657 124.431 93.0415 117.661 93.0415 117.661C93.0415 117.661 92.0815 116.548 94.6323 116.992Z" fill="white" stroke="#4F4F4F" stroke-linecap="round" stroke-linejoin="round"/>
<path d="M81.7521 102.987C81.7521 102.987 82.4214 109.652 81.7521 111.095C81.0829 112.538 78.6473 114.2 74.5385 115.533C70.4298 116.866 67.6541 117.98 65.4324 121.754C63.2107 125.528 60.7806 144.689 57.9939 149.73C55.1524 154.876 54.4886 165.397 61.225 170.62C66.7106 174.893 85.9761 174.377 92.855 173.362C99.734 172.348 105.856 173.324 107.743 168.551C109.63 163.779 105.735 155.71 103.848 153.269C101.961 150.827 98.1651 148.414 98.1651 148.414C98.1651 148.414 100.535 144.3 100.716 140.866C101.051 134.645 94.6104 116.992 94.6104 116.992C94.6104 116.992 90.7266 115.347 89.8379 113.218C88.9493 111.09 89.2894 108.111 89.2894 108.111L81.7521 102.987Z" fill="#9BE69E" stroke="#4F4F4F" stroke-linecap="round" stroke-linejoin="round"/>
<path d="M71.3185 154.881C71.3185 154.881 82.6408 155.375 88.7956 160.296" stroke="#4F4F4F" stroke-linecap="round" stroke-linejoin="round"/>
<path d="M78.6473 144.64C78.6473 144.64 85.3068 145.638 91.522 143.307" stroke="#4F4F4F" stroke-linecap="round" stroke-linejoin="round"/>
<path d="M86.3052 145.638C86.3052 145.638 90.7485 144.974 93.2993 143.416" stroke="#4F4F4F" stroke-linecap="round" stroke-linejoin="round"/>
<path d="M68.433 136.45C70.8741 135.007 73.8693 128.347 74.4288 123.015C74.8677 118.78 73.8364 116.652 73.3975 115.961C69.9087 117.146 67.4401 118.386 65.4324 121.798C64.061 124.129 62.2672 132.187 60.649 139.291C62.8377 139.302 66.2223 137.728 68.433 136.45Z" fill="white" stroke="#4F4F4F" stroke-linecap="round" stroke-linejoin="round"/>
<path d="M89.8599 113.218C88.9712 111.112 89.3113 108.111 89.3113 108.111L81.7521 102.987C81.7521 102.987 82.4214 109.652 81.7521 111.095C81.2365 112.192 79.6511 113.465 77.0455 114.595C77.5062 116.63 78.8557 121.847 80.9786 123.97C83.6392 126.636 88.7463 127.19 90.5236 123.641C92.301 120.092 91.4123 115.204 91.4123 115.204L91.4562 115.089C90.7829 114.601 90.2356 113.96 89.8599 113.218Z" fill="white" stroke="#4F4F4F" stroke-linecap="round" stroke-linejoin="round"/>
<path d="M89.3058 108.111L82.7505 103.679L81.8564 104.167C81.9222 105.006 82.0045 106.186 82.0374 107.359C83.4911 109.005 85.5975 111.04 87.5504 111.413C88.1592 111.53 88.7805 111.569 89.3991 111.529C89.2322 110.397 89.2009 109.25 89.3058 108.111Z" fill="#4F4F4F"/>
<path d="M92.1912 88.0172C92.1912 88.0172 89.7501 92.1259 85.8608 94.2323C83.7595 95.4197 81.5238 96.3515 79.2013 97.0081C79.2013 97.0081 79.311 98.3411 78.757 98.3411C78.2029 98.3411 76.9796 96.3443 76.2062 96.2346C75.4327 96.1249 72.9861 99.3395 73.8693 100.672C74.6952 101.869 75.8551 102.797 77.2045 103.338C78.3017 103.783 79.5359 102.34 79.5359 102.34C79.5359 102.34 88.0825 112.763 92.9702 110.113C97.8579 107.464 97.5178 93.7935 97.5178 93.7935C97.5178 93.7935 96.4097 90.7929 92.1912 88.0172Z" fill="white" stroke="#4F4F4F" stroke-linecap="round" stroke-linejoin="round"/>
<path d="M88.9163 96.679C88.9163 97.3811 88.5927 97.9516 88.1922 97.9516C87.7918 97.9516 87.4736 97.4031 87.4736 96.679C87.4736 95.9549 87.7973 95.4008 88.1922 95.4008C88.5872 95.4008 88.9163 95.9713 88.9163 96.679Z" fill="#4F4F4F"/>
<path d="M95.8008 96.0097C95.8008 96.7174 95.4771 97.2879 95.0767 97.2879C94.6762 97.2879 94.358 96.7393 94.358 96.0097C94.358 95.2801 94.6762 94.7371 95.0767 94.7371C95.4771 94.7371 95.8008 95.3076 95.8008 96.0097Z" fill="#4F4F4F"/>
<path d="M93.1896 94.7919L92.5259 96.8984C92.5259 96.8984 94.2977 97.447 94.2977 98.4563C94.2977 99.4657 92.652 99.899 92.3009 99.899" stroke="#4F4F4F" stroke-linecap="round" stroke-linejoin="round"/>
<path d="M90.968 103.119C91.3268 103.31 91.7271 103.41 92.1336 103.41C92.5402 103.41 92.9405 103.31 93.2993 103.119" stroke="#4F4F4F" stroke-linecap="round" stroke-linejoin="round"/>
<path d="M86.7495 94.013C86.7495 94.013 87.7479 92.2356 89.6349 92.68" stroke="#4F4F4F" stroke-linecap="round" stroke-linejoin="round"/>
<path d="M94.188 93.0145C94.3617 92.9223 94.5524 92.8662 94.7484 92.8498C94.9445 92.8333 95.1418 92.8568 95.3285 92.9189C95.5152 92.9809 95.6873 93.0802 95.8345 93.2108C95.9817 93.3413 96.1009 93.5004 96.1848 93.6783" stroke="#4F4F4F" stroke-linecap="round" stroke-linejoin="round"/>
<path d="M90.6333 153.57C90.6333 153.57 94.4129 154.19 94.6378 154.667C94.8628 155.145 96.119 157.86 95.7788 158.655C95.4387 159.451 94.753 158.315 94.5281 157.514C94.3032 156.714 91.7853 154.898 91.7853 154.898" fill="white"/>
<path d="M90.6333 153.57C90.6333 153.57 94.4129 154.19 94.6378 154.667C94.8628 155.145 96.119 157.86 95.7788 158.655C95.4387 159.451 94.753 158.315 94.5281 157.514C94.3032 156.714 91.7853 154.898 91.7853 154.898" stroke="#4F4F4F" stroke-linecap="round" stroke-linejoin="round"/>
<path d="M89.9696 153.636C89.9696 153.636 93.1732 154.629 93.4859 155.035C94.1496 155.896 95.4552 158.036 95.1315 158.831C94.8079 159.626 94.3636 159.149 92.7069 156.56C92.2614 155.99 91.7347 155.49 91.1435 155.073" fill="white"/>
<path d="M89.9696 153.636C89.9696 153.636 93.1732 154.629 93.4859 155.035C94.1496 155.896 95.4552 158.036 95.1315 158.831C94.8079 159.626 94.3636 159.149 92.7069 156.56C92.2614 155.99 91.7347 155.49 91.1435 155.073" stroke="#4F4F4F" stroke-linecap="round" stroke-linejoin="round"/>
<path d="M72.8215 115.933C72.8215 115.933 65.3392 117.365 61.1207 120.552C56.9023 123.74 54.2802 140.707 53.8358 144.81C53.3915 148.913 52.9252 152.78 54.9713 153.587C57.0175 154.393 72.2839 155.068 75.3559 155.068C78.4278 155.068 86.9744 156.198 87.6546 156.198C88.3348 156.198 92.3229 158.705 93.0086 159.391C93.6943 160.076 93.793 158.798 93.4639 157.564C93.0196 155.918 90.7211 153.351 87.885 152.44C85.049 151.53 80.2545 151.985 77.1771 150.279C74.0997 148.573 66.7051 144.678 65.5641 144.464C65.0769 144.351 64.5817 144.276 64.0829 144.239C64.0829 144.239 70.0074 131.03 70.5724 129.093" fill="white"/>
<path d="M72.8215 115.933C72.8215 115.933 65.3392 117.365 61.1207 120.552C56.9023 123.74 54.2802 140.707 53.8358 144.81C53.3915 148.913 52.9252 152.78 54.9713 153.587C57.0175 154.393 72.2839 155.068 75.3559 155.068C78.4278 155.068 86.9744 156.198 87.6546 156.198C88.3348 156.198 92.3229 158.705 93.0086 159.391C93.6943 160.076 93.793 158.798 93.4639 157.564C93.0196 155.918 90.7211 153.351 87.885 152.44C85.049 151.53 80.2545 151.985 77.1771 150.279C74.0997 148.573 66.7051 144.678 65.5641 144.464C65.0769 144.351 64.5817 144.276 64.0829 144.239C64.0829 144.239 70.0074 131.03 70.5724 129.093" stroke="#4F4F4F" stroke-linecap="round" stroke-linejoin="round"/>
<path d="M90.2768 155.737C90.2768 155.737 93.0196 157.674 93.0196 159.385" stroke="#4F4F4F" stroke-linecap="round" stroke-linejoin="round"/>
<path d="M106.942 144.678C104.497 144.067 101.911 144.425 99.723 145.676C96.1738 147.788 94.1716 149.785 92.0431 150.339C89.9147 150.893 86.382 150.564 83.716 151.672C81.8644 152.403 79.9746 153.033 78.0548 153.559C76.7218 154.004 76.8315 155.002 77.8299 155.002C78.8283 155.002 80.1613 154.892 80.1613 154.892C80.1613 154.892 78.3894 157.668 78.3894 158.557C78.3894 159.445 81.05 159.555 82.0483 159.33C83.0467 159.105 84.7144 156.999 85.2684 156.779C85.8225 156.56 87.9344 156.889 89.4868 155.781C91.0393 154.673 91.7085 154.135 91.7085 154.135C91.7085 154.135 98.0389 156.132 102.68 155.024C107.321 153.916 108.95 152.863 110.283 148.09" fill="white"/>
<path d="M106.942 144.678C104.497 144.067 101.911 144.425 99.723 145.676C96.1738 147.788 94.1716 149.785 92.0431 150.339C89.9147 150.893 86.382 150.564 83.716 151.672C81.8644 152.403 79.9746 153.033 78.0548 153.559C76.7218 154.004 76.8315 155.002 77.8299 155.002C78.8283 155.002 80.1613 154.892 80.1613 154.892C80.1613 154.892 78.3894 157.668 78.3894 158.557C78.3894 159.445 81.05 159.555 82.0483 159.33C83.0467 159.105 84.7144 156.999 85.2684 156.779C85.8225 156.56 87.9344 156.889 89.4868 155.781C91.0393 154.673 91.7085 154.135 91.7085 154.135C91.7085 154.135 98.0389 156.132 102.68 155.024C107.321 153.916 108.95 152.863 110.283 148.09" stroke="#4F4F4F" stroke-linecap="round" stroke-linejoin="round"/>
<path d="M80.1832 154.898C80.8147 154.151 81.5654 153.513 82.4049 153.011" stroke="#4F4F4F" stroke-linecap="round" stroke-linejoin="round"/>
<path d="M79.1848 158.891C79.1848 158.891 81.1871 155.117 83.8476 153.565" stroke="#4F4F4F" stroke-linecap="round" stroke-linejoin="round"/>
<path d="M80.7318 159.177C80.7318 159.177 81.5382 156.11 85.1806 154.24" stroke="#4F4F4F" stroke-linecap="round" stroke-linejoin="round"/>
<path d="M82.0703 159.336C82.3211 158.343 82.8233 157.432 83.5286 156.691C84.2338 155.949 85.1183 155.401 86.0967 155.101" stroke="#4F4F4F" stroke-linecap="round" stroke-linejoin="round"/>
<path d="M104.342 162.506C104.342 162.506 99.4048 160.213 94.6433 164.618C89.8818 169.023 89.9257 171.201 83.5843 180.214C77.2429 189.227 68.071 205.771 66.1346 207.006C64.1981 208.24 58.0268 210.703 56.809 214.406C55.5912 218.109 57.3576 219.167 59.9797 218.109C62.6018 217.05 67.0287 209.469 67.7364 208.942C68.444 208.415 83.4252 196.429 91.3574 191.843C99.2896 187.257 103.3 182.951 106.47 175.019C109.641 167.087 107.161 163.033 104.342 162.506Z" fill="white" stroke="#4F4F4F" stroke-linecap="round" stroke-linejoin="round"/>
<path d="M67.5992 209.063C66.7915 208.672 66.1135 208.057 65.6464 207.291C63.3314 208.596 57.9665 210.972 56.7926 214.422C55.5583 218.125 57.3411 219.184 59.9633 218.125C62.5086 217.088 66.6118 210.154 67.5992 209.063Z" fill="#4F4F4F" stroke="#4F4F4F" stroke-linecap="round" stroke-linejoin="round"/>
<path d="M68.7073 213.034C68.7073 213.034 77.594 198.574 83.2332 189.583C88.8725 180.592 91.522 175.134 91.522 170.724C91.522 170.724 91.7524 164.234 86.585 164.201C83.4088 164.201 77.4185 166.143 73.0135 174.624C68.6086 183.105 65.4324 210.758 64.9058 212.343C64.3792 213.929 64.3572 223.803 65.7835 226.096C67.2098 228.389 69.6618 226.798 69.8374 221.861C69.947 218.877 69.5652 215.895 68.7073 213.034Z" fill="white" stroke="#4F4F4F" stroke-linecap="round" stroke-linejoin="round"/>
<path d="M64.7796 212.914C64.3847 215.569 64.4999 223.978 65.7835 226.079C67.1988 228.367 69.6618 226.781 69.8374 221.844C69.9446 218.867 69.5628 215.893 68.7073 213.04C68.7073 213.04 66.6941 215.47 64.7796 212.914Z" fill="#4F4F4F" stroke="#4F4F4F" stroke-linecap="round" stroke-linejoin="round"/>
</svg>
