<svg width="254" height="241" fill="none" xmlns="http://www.w3.org/2000/svg"><path d="M126.153 241c69.672 0 126.152-11.266 126.152-25.163 0-13.896-56.48-25.162-126.152-25.162C56.48 190.675 0 201.941 0 215.837 0 229.734 56.48 241 126.153 241z" fill="#9BE69E"/><path opacity=".5" d="M126.153 241c69.672 0 126.152-11.266 126.152-25.163 0-13.896-56.48-25.162-126.152-25.162C56.48 190.675 0 201.941 0 215.837 0 229.734 56.48 241 126.153 241z" fill="#fff"/><path d="M178.304 3.072h2.398a34.01 34.01 0 0134.01 34.011v127.815h-70.418V37.083a34.011 34.011 0 0134.01-34.01v0z" stroke="#4F4F4F" stroke-linecap="round" stroke-linejoin="round"/><path d="M152.242 164.536V39.415A27.258 27.258 0 01179.5 12.157v0a27.255 27.255 0 0125.203 16.821 27.262 27.262 0 012.077 10.437v125.121M179.5 3.072v161.651M144.672 34.209h69.563m-69.563 21.959h69.563m-69.563 21.959h69.563m-69.563 21.953h69.563m-69.563 21.959h69.563m-69.563 21.959h69.563M153.97 14.06l6.309 5.744m44.483-5.744l-6.309 5.744" stroke="#4F4F4F" stroke-linecap="round" stroke-linejoin="round"/><path d="M232.234 193.034s12.578-22.206 15.507-32.448c2.93-10.241-8.091-2.194-8.091-2.194s13.083-21.619 14.098-35.843c1.015-14.224-13.994 3.401-13.994 3.401s5.157-18.327 6.281-34.197c1.125-15.87-6.034-8.13-6.034-8.13s-.598-30.286-4.663-27.28c-4.064 3.006-5.858 12.787-5.858 12.787s-2.277-29.863-5.596-21.849c-3.318 8.014 1.931 50.182 1.931 50.182s-7.784-22.002-9.693-10.587c-1.909 11.416 12.321 43.221 12.321 43.221s-7.23 1.136-8.124 6.035c-.894 4.898 10.598 29.309 10.598 29.309s-9.54-12.776-11.257-4.103c-1.717 8.673 7.944 35.212 7.944 35.212l4.63-3.516z" fill="#9BE69E"/><path d="M246.364 148.94c-1.755-6.171-6.445-2.106-6.445-2.106s9.956-31.74 5.732-34.241c-4.224-2.502-7.773 8.777-7.773 8.777s5.107-48.58 2.194-46.041c-2.912 2.54-4.602 18.371-4.602 18.371s-3.456-44.22-7.296-36.792c-3.84 7.428.68 52.295.68 52.295s-7.197-22.491-7.893-12.661c-.697 9.83 6.89 42.283 6.89 42.283s-8.602-2.809-8.404 2.15c.197 4.959 5.167 27.867 5.167 27.867s-5.316-2.578-4.026 2.463c1.289 5.042 7.356 20.297 7.356 20.297l6.451 2.107s9.325-15.283 5.485-15.009a7.875 7.875 0 00-5.705 2.891s13.95-26.49 12.189-32.651zm-15.211 42.07s2.83-50.627 1.646-82.669" stroke="#4F4F4F" stroke-linecap="round" stroke-linejoin="round"/><path d="M236.452 214.345h-11.997l-1.41-25.782h14.811l-1.404 25.782z" fill="#4F4F4F" stroke="#4F4F4F" stroke-linecap="round" stroke-linejoin="round"/><path d="M134.847 28.564h-33.034v45.267h33.034V28.564z" stroke="#4F4F4F" stroke-linecap="round" stroke-linejoin="round"/><path d="M129.938 35.29h-23.215V67.1h23.215V35.29z" stroke="#4F4F4F" stroke-linecap="round" stroke-linejoin="round"/><path d="M52.431 75.587a11.985 11.985 0 014.598 1.991c1.92 1.481 8.925 12.886 11.52 15.36 2.594 2.474 5.671 5.518 4.602 7.97-1.07 2.452-2.743 6.748-7.362 4.937-4.619-1.81-5.859-4.152-7.087-6.297-1.23-2.145-5.212-5.365-5.212-5.365" fill="#9BE69E"/><path d="M52.431 75.587a11.985 11.985 0 014.598 1.991c1.92 1.481 8.925 12.886 11.52 15.36 2.594 2.474 5.671 5.518 4.602 7.97-1.07 2.452-2.743 6.748-7.362 4.937-4.619-1.81-5.859-4.152-7.087-6.297-1.23-2.145-5.212-5.365-5.212-5.365" stroke="#4F4F4F" stroke-linecap="round" stroke-linejoin="round"/><path d="M71.445 99.082c-3.253-3.522-6.128-.889-8.048 2.139-2.134 3.374-4.032 6.896-5.919 10.423 0 0-2.841 2.699-2.984 3.977-.142 1.278 2.129 4.685 3.291 4.547 1.163-.137 3.413-.855 3.555-1.563.143-.708-.993-.549-.993-.549l.85-1.278-.548-3.033c3.736-3.182 9.517-8.135 11.136-9.759 1.486-1.52.96-3.494-.34-4.904z" fill="#fff" stroke="#4F4F4F" stroke-linecap="round" stroke-linejoin="round"/><path d="M31.987 119.653s-1.503 6.434-.862 8.371c.642 1.936 2.98 6.709 2.98 6.709l4.86 61.834 5.255-.132 2.38-65.081 1.064-.127 1.893 65.208 5.414.214 3.648-63.046s.549-8.152.549-9.013c0-.861-1.42-8.777-1.42-8.777l-25.761 3.84z" fill="#4F4F4F" stroke="#4F4F4F" stroke-linecap="round" stroke-linejoin="round"/><path d="M38.964 196.567s-6.237 5.162-6.368 6.917c-.132 1.755 5.013.949 7.18-1.646 2.167-2.594 4.24-1.898 4.34-3.659l.103-1.761-5.255.149zm15.826 0s6.238 5.156 6.375 6.917c.137 1.761-5.02.949-7.187-1.646-2.166-2.594-4.234-1.898-4.339-3.659l-.104-1.761 5.255.149z" fill="#fff" stroke="#4F4F4F" stroke-linecap="round" stroke-linejoin="round"/><path d="M54.576 83.404l-.614-7.203c-3.988-1.69-11.07-1.92-13.166-1.097 0 0-12.106 6.133-13.335 7.362-1.229 1.229-5.381 19.638-5.381 22.716 0 3.077 1.69 5.211 4.75 5.825 3.061.615 5.063-3.22 5.063-3.22s-1.69 9.326-1.382 10.423c.307 1.097.878 2.661 2.101 2.814 1.223.154 23.648-.823 24.57-1.283.922-.461 1.53-1.377 1.53-3.522 0-2.145-3.066-23.912-3.066-23.912" fill="#9BE69E"/><path d="M54.576 83.404l-.614-7.203c-3.988-1.69-11.07-1.92-13.166-1.097 0 0-12.106 6.133-13.335 7.362-1.229 1.229-5.381 19.638-5.381 22.716 0 3.077 1.69 5.211 4.75 5.825 3.061.615 5.063-3.22 5.063-3.22s-1.69 9.326-1.382 10.423c.307 1.097.878 2.661 2.101 2.814 1.223.154 23.648-.823 24.57-1.283.922-.461 1.53-1.377 1.53-3.522 0-2.145-3.066-23.912-3.066-23.912m-23.171 3.741l-.126-5.743" stroke="#4F4F4F" stroke-linecap="round" stroke-linejoin="round"/><path d="M43.462 87.238c3.09 0 5.596-2.746 5.596-6.133s-2.505-6.133-5.596-6.133c-3.09 0-5.595 2.746-5.595 6.133s2.505 6.133 5.596 6.133z" fill="#fff" stroke="#4F4F4F" stroke-linecap="round" stroke-linejoin="round"/><path d="M39.858 70.376s0 11.036 1.098 13.028c1.097 1.991 5.057 2.606 5.364 0 .308-2.606.154-12.107.154-12.107l-6.615-.921z" fill="#fff" stroke="#4F4F4F" stroke-linecap="round" stroke-linejoin="round"/><path d="M46.49 75.702c0-2.414-.038-4.388-.038-4.388l-6.582-.922s0 1.755.07 3.993a7.366 7.366 0 006.55 1.317z" fill="#4F4F4F" stroke="#4F4F4F" stroke-linecap="round" stroke-linejoin="round"/><path d="M50.895 49.684s1.098 11.19 1.383 14.41c.285 3.22-.922 7.203-5.058 8.734-4.136 1.53-7.51-.61-9.66-3.522-2.15-2.913-2.743-3.067-2.743-3.067a2.655 2.655 0 01-3.214-1.991c-.768-2.606 1.377-3.68 3.06-4.142 0 0-2.742-6.28-2.742-7.97 0-1.69 2.907-5.212 9.04-6.742 6.133-1.53 9.934 4.29 9.934 4.29z" fill="#fff" stroke="#4F4F4F" stroke-linecap="round" stroke-linejoin="round"/><path d="M45.991 56.278l.154 2.452s3.527.307 2.298 1.376a8.63 8.63 0 01-3.22 1.536m-4.903 3.215a4.812 4.812 0 004.448 1.229" stroke="#4F4F4F" stroke-linecap="round" stroke-linejoin="round"/><path d="M42.162 58.269c0 .718-.345 1.3-.767 1.3-.423 0-.769-.582-.769-1.3 0-.719.346-1.306.769-1.306.422 0 .767.587.767 1.306zm5.821-.077c.424 0 .768-.585.768-1.306 0-.72-.344-1.305-.768-1.305-.424 0-.768.584-.768 1.305s.343 1.306.768 1.306z" fill="#4F4F4F"/><path d="M38.482 55.97s1.377-1.843 4.443-1.69m2.605-1.683a2.743 2.743 0 013.22-1.992" stroke="#4F4F4F" stroke-linecap="round" stroke-linejoin="round"/><path d="M33.117 60.106s2.298 2.453 3.066 1.23c.768-1.224 0-3.374.154-5.059.153-1.684 1.991-1.535 1.377-2.912-.615-1.377-2.743.153-2.743-1.383S39.112 48 43.095 48c3.983 0 8.278 3.84 11.805 2.145 3.527-1.696 2.145-5.365.154-7.05-1.992-1.684-5.98-1.535-5.98-1.535s4.904-1.53 3.22-3.067c-1.684-1.536-5.979-1.684-8.277-.762-2.299.921-4.767 2.172-4.767 2.172s1.99-3.22-.768-1.838a8.727 8.727 0 00-4.597 5.212 78.44 78.44 0 01-1.383 3.368s-1.837-1.377-3.214-.763c-1.377.615 1.097 1.097 1.097 1.097s-3.22 1.843-2.743 4.296c.477 2.452 3.374 5.973 4.142 6.434.768.461 1.333 2.397 1.333 2.397z" fill="#4F4F4F" stroke="#4F4F4F" stroke-linecap="round" stroke-linejoin="round"/><path d="M48.75 85.702v-6.434c0-.615 3.989-.922 3.989-.922l.148.922-1.684.916 1.14 2.545s5.755-3.769 6.37-3a2.041 2.041 0 01-.154 2.451c-.304.35-.514.77-.609 1.224 0 0 .148 4.141-.922 4.597-1.07.455-6.747 1.996-6.747 1.996-4.493 5.322-9.035 10.697-14.438 15.135-2.194 1.811-4.822 4.866-7.63 3.149-2.7-1.646-2.634-5.787-.922-8.014 3.066-3.989 7.131-4.756 11.202-7.016a60.163 60.163 0 0010.258-7.549z" fill="#fff" stroke="#4F4F4F" stroke-linecap="round" stroke-linejoin="round"/><path d="M52.344 82.73l1.097-10.04a1.19 1.19 0 011.157-1.097l3.665-.263a1.196 1.196 0 011.223 1.212l-.768 7.208-6.374 2.98z" fill="#4F4F4F" stroke="#4F4F4F" stroke-linecap="round" stroke-linejoin="round"/><path d="M204.202 164.553s3.072-7.68 1.097-23.589c-.861-6.988-.247-21.344-9.803-21.81-10.197-.494-14.361.515-24.581.63-36.863.423-63.973 4.098-86.447 1.931-18.065-1.744-33.65-4.608-40.046 1.816-6.396 6.424-5.864 20.105-5.304 22.76.56 2.655 4.74 20.796 4.74 20.796l159.368-.719.976-1.815z" fill="#828282" stroke="#4F4F4F" stroke-linecap="round" stroke-linejoin="round"/><path d="M45.953 159.967s-3.072-12.288-8.102-15.64c-5.03-3.352-11.586.28-17.006 5.584-5.42 5.305-6.983 11.592-4.745 22.064 2.238 10.472 8.777 25.968 10.752 32.952 1.975 6.983 1.953 10.614 8.514 12.847 6.56 2.233 12.847 2.375 16.895-3.215 4.049-5.589 2.935-31.268-.28-40.911-3.214-9.644-6.028-13.681-6.028-13.681z" fill="#BDBDBD" stroke="#4F4F4F" stroke-linecap="round" stroke-linejoin="round"/><path d="M45.394 214.143c-2.793-5.283-11.17-43.134-11.032-48.312.137-5.179-4.049-13.824-9.216-14.526-4.257-.549-7.68 3.5-8.728 4.937-1.645 4.098-1.766 9.062-.345 15.722 2.232 10.472 1.953 26.292 3.906 33.275 1.953 6.984 1.936 10.626 8.519 12.859 4.317 1.47 15.36 1.706 18.876.329a34.19 34.19 0 00-1.98-4.284z" fill="#828282" stroke="#4F4F4F" stroke-linecap="round" stroke-linejoin="round"/><path d="M195.809 159.731s3.248-12.288 8.552-15.64c5.305-3.352 12.244.28 17.993 5.585 5.749 5.304 7.378 11.591 5.019 22.063s-9.292 25.969-11.36 32.952c-2.069 6.983-2.063 10.614-8.997 12.847-6.934 2.233-13.566 2.375-17.845-3.209-4.278-5.584-3.093-31.268.297-40.917 3.39-9.649 6.341-13.681 6.341-13.681z" fill="#BDBDBD" stroke="#4F4F4F" stroke-linecap="round" stroke-linejoin="round"/><path d="M196.391 214.686c2.945-5.376 11.794-43.682 11.651-48.91-.143-5.228 4.273-13.967 9.709-14.702 4.499-.587 8.092 3.539 9.216 5.003 1.761 4.147 1.871 9.172.373 15.909-2.364 10.603-5.968 26.292-8.036 33.363-2.068 7.071-2.063 10.741-8.996 13.006-4.559 1.487-12.316 2.058-16.035.659a34.65 34.65 0 012.118-4.328z" fill="#828282" stroke="#4F4F4F" stroke-linecap="round" stroke-linejoin="round"/><path d="M208.113 183.544s-3.489 21.679-5.727 28.942c-2.238 7.263-1.536 7.263-5.304 7.543-3.769.279-146.8-.121-151.272-.818-4.47-.697-6.84-4.054-8.096-8.777-1.257-4.723-2.513-26.292-2.513-26.292l166.906-.549 6.006-.049z" fill="#828282" stroke="#4F4F4F" stroke-linecap="round" stroke-linejoin="round"/><path d="M35.207 187.554a4.85 4.85 0 003.752 2.946c2.951.548 78.559 1.343 80.968 1.343 2.408 0 64.077 0 74-.806 9.924-.806 14.971-2.117 14.186-7.493-.784-5.376-.515-1.097-.515-1.097l-173.999 2.155 1.608 2.952z" fill="#4F4F4F"/><path d="M46.37 159.264s-10.74 7.263-13.824 10.615c-3.083 3.352-1.393 6.001-1.097 8.519.296 2.518 1.536 8.097 5.162 10.05 3.626 1.953 48.734 1.097 74.988 1.958 26.255.861 82.691-.159 89.696-1.843 7.005-1.684 8.639-10.335 9.056-15.222.417-4.888-4.591-11.729-7.383-12.563-2.792-.833-26.019-.96-51.85-.4-25.832.56-37.67 2.809-67.133 2.249-29.463-.559-30.912-4.619-37.615-3.363z" fill="#BDBDBD"/><path d="M31.433 178.398c.274 2.513 1.535 8.097 5.161 10.05 3.627 1.953 48.735 1.097 74.989 1.958 26.254.861 82.707-.159 89.712-1.843 7.005-1.684 11.168-8.376 11.585-13.264a6.351 6.351 0 00-.241-2.194c-.988.982-2.88-.083-5.124-.401-4.975-.718-57.324 2.54-96.503 2.54-42.546 0-56.408 0-77.462-4.048-3.132-.604-.982-1.333-.982-1.333-3.094 3.368-1.415 6.017-1.135 8.535z" fill="#828282"/><path d="M46.37 159.264s-10.74 7.263-13.824 10.615c-3.083 3.352-1.393 6.001-1.097 8.519.296 2.518 1.536 8.097 5.162 10.05 3.626 1.953 48.734 1.097 74.988 1.958 26.255.861 82.69-.159 89.696-1.843 7.005-1.684 8.639-10.335 9.056-15.222.417-4.888-4.591-11.729-7.383-12.563-2.792-.833-26.019-.96-51.85-.4-25.832.56-37.67 2.809-67.133 2.249-29.463-.559-30.912-4.619-37.615-3.363z" stroke="#4F4F4F" stroke-linecap="round" stroke-linejoin="round"/><path d="M122.379 122.264l-.22 39.568s-1.728 10.823-1.503 12.32c.225 1.498.214 16.216.214 16.216" stroke="#4F4F4F" stroke-linecap="round" stroke-linejoin="round"/><path d="M192.518 132.346a7.789 7.789 0 014.904.856c2.194 1.35 5.765 5.766 5.765 5.766l3.802-10.549s-1.717-3.187-1.717-4.29c0-1.103-.121-2.194-.121-2.699 0-.505 1.097-.982 1.097-.488.077.66.2 1.315.368 1.958l1.261 1.481.735-6.127s.609-.735.856-.126.143 3.768.143 3.768h.609l.581-4.964s.176-.236.763-.176a.422.422 0 01.434.376.426.426 0 01-.028.206l-.406 4.679.351.055.976-4.317s.412-.406.702-.176c.192.208.296.481.291.763l-.625 4.492 1.388-2.567s.581-.23.581.236a37.103 37.103 0 01-1.563 4.553c-.116.176-2.337 4.262-2.337 4.262s-1.81 10.813-2.628 13.166c-.817 2.353-2.573 4.438-5.085 4.558-2.512.121-5.376-2.742-5.376-2.742l-5.721-11.954z" fill="#fff" stroke="#4F4F4F" stroke-linecap="round" stroke-linejoin="round"/><path d="M209.238 127.854s.428-1.904.949-2.507a4.926 4.926 0 011.646-1.042" stroke="#4F4F4F" stroke-linecap="round" stroke-linejoin="round"/><path d="M184.289 128.172s-.241 3.434-.488 4.388c-.247.955-1.717.735-3.066.735-1.35 0-1.838 2.195-2.085 4.17-.247 1.974-3.187 23.791-2.699 26.879.488 3.088 5.645 6.38 11.284 6.747 5.639.368 13.61-.493 16.802-2.945 3.193-2.452 3.555-4.389 2.82-6.868-.735-2.48-2.699-5.025-3.681-6.128-.982-1.102-1.964-2.452-1.964-2.452s-5.518-18.272-6.868-19.622c-1.349-1.349-4.043-.735-4.043-.735l-.861-4.542-5.151.373z" fill="#9BE69E" stroke="#4F4F4F" stroke-linecap="round" stroke-linejoin="round"/><path d="M179.166 162.232s5.798-12.765 20.604-8.777m-16.847 1.821s4.186-3.434 8.69-3.324" stroke="#4F4F4F" stroke-linecap="round" stroke-linejoin="round"/><path d="M191.382 132.215a6.544 6.544 0 00-1.07.131l-.861-4.542-5.151.368s-.241 3.434-.488 4.388c-.121.489-.549.67-1.097.735.411 1.098 1.92 4.46 5.392 4.663 3.078.209 3.346-3.703 3.275-5.743z" fill="#fff" stroke="#4F4F4F" stroke-linecap="round" stroke-linejoin="round"/><path d="M184.053 130.964c.928.209 1.875.323 2.825.34a9.08 9.08 0 003.149-.488l-.548-3.028-5.151.367s-.132 1.52-.275 2.809zm13.248-23.391s4.048-2.945 8.953-2.194c4.904.752 4.536 8.464 2.699 10.549-1.838 2.084-6.254.735-6.254-.247s.735-4.29-1.097-6.034a3.841 3.841 0 00-3.802-.982l-.499-1.092z" fill="#4F4F4F" stroke="#4F4F4F" stroke-linecap="round" stroke-linejoin="round"/><path d="M177.706 116.526a19.886 19.886 0 00-.12 3.291c.12 1.229-1.597 2.085-.494 4.169 1.103 2.085 3.681 5.645 9.814 5.766 6.133.12 10.176-5.64 10.176-11.037 0-5.398-6.759-9.551-10.33-9.551-3.571 0-7.477 3.067-8.228 4.295a8.133 8.133 0 00-.818 3.067z" fill="#fff" stroke="#4F4F4F" stroke-linecap="round" stroke-linejoin="round"/><path d="M184.794 121.09a1.055 1.055 0 01-.501 1.109 1.06 1.06 0 01-1.149-1.777c.178-.125.39-.193.608-.193a.963.963 0 011.042.861zm-2.946 1.936s1.476 1.717 4.416.121" stroke="#4F4F4F" stroke-linecap="round" stroke-linejoin="round"/><path d="M181.113 119.839c.406 0 .735-.55.735-1.229 0-.678-.329-1.228-.735-1.228-.406 0-.735.55-.735 1.228 0 .679.329 1.229.735 1.229zm6.012-1.108c0 .68-.334 1.229-.74 1.229-.406 0-.735-.549-.735-1.229s.329-1.223.735-1.223c.406 0 .74.548.74 1.223z" fill="#4F4F4F"/><path d="M179.901 116.526a2.594 2.594 0 012.452-.735m3.033-.126s2.326-.489 3.061 1.596" stroke="#4F4F4F" stroke-linecap="round" stroke-linejoin="round"/><path d="M185.282 109.905s3.434 7.603 6.501 9.561c3.066 1.959 6.006.615 6.5-.488a11.067 11.067 0 00.735-8.228c-1.229-4.17-3.801-6.868-7.85-6.622-4.048.247-8.705 3.555-8.705 3.555l2.819 2.222z" fill="#4F4F4F" stroke="#4F4F4F" stroke-linecap="round" stroke-linejoin="round"/><path d="M186.752 110.272s-7.948 6.007-9.44 7.236c-1.493 1.229-3.434.488-4.784-3.928-1.349-4.416 1.476-8.091 5.277-8.091 3.802 0 8.092 2.435 8.092 2.435" fill="#4F4F4F"/><path d="M186.752 110.272s-7.948 6.007-9.44 7.236c-1.493 1.229-3.434.488-4.784-3.928-1.349-4.416 1.476-8.091 5.277-8.091 3.802 0 8.092 2.435 8.092 2.435" stroke="#4F4F4F" stroke-linecap="round" stroke-linejoin="round"/><path d="M193.549 120.92s1.958-3.291 3.801-3.067c1.844.225.856 4.784-.126 5.886-.982 1.103-2.819-.12-2.819-.12" fill="#fff"/><path d="M193.549 120.92s1.958-3.291 3.801-3.067c1.844.225.856 4.784-.126 5.886-.982 1.103-2.819-.12-2.819-.12" stroke="#4F4F4F" stroke-linecap="round" stroke-linejoin="round"/><path d="M182.463 135.287a2.317 2.317 0 00-1.177-1.484 2.328 2.328 0 00-1.89-.113c-2.452.741-3.291 6.133-3.922 9.567-.631 3.434-4.537 22.936-4.537 22.936s-4.048.609-5.765 1.097c-1.717.488-.368.735 2.084.982s3.923.488 3.923.488-2.694 1.349-.242 1.349 3.922-1.596 4.169-2.194c.247-.598 6.868-25.387 7.357-28.207.488-2.82 0-4.421 0-4.421zm23.313 22.008s-3.538-2.364-7.186.104c-3.648 2.469-.861 9.227-.109 11.591.751 2.365 3.647 9.117 5.046 12.551 1.399 3.434 2.573 8.777 2.897 9.765.323.987 2.896 1.613 3.966 1.399a41.113 41.113 0 007.301-3.116c1.284-.856 1.607-2.359.856-2.683-.752-.323-8.157-.214-8.157-.214s-1.394-4.388-1.607-7.723c-.214-3.336-1.504-12.985-1.608-16.205-.104-3.22-.943-4.805-1.399-5.469z" fill="#fff" stroke="#4F4F4F" stroke-linecap="round" stroke-linejoin="round"/><path d="M209.644 187.68c-.01.375-.084.746-.22 1.097a24.876 24.876 0 01-3.593.357c.28 1.097.483 1.898.593 2.194.318.965 2.896 1.613 3.966 1.399a41.113 41.113 0 007.301-3.116c1.284-.856 1.607-2.359.856-2.683-.752-.323-8.157-.214-8.157-.214s-.746.434-.746.966z" fill="#4F4F4F" stroke="#4F4F4F" stroke-linecap="round" stroke-linejoin="round"/><path d="M200.093 191.01s-.883 0-2.847-13.462c-.861-5.892-.214-15.513-2.468-18.733-2.255-3.221-9.326-2.25-9.326 4.668 0 6.917 6.435 22.052 8.229 26.397 1.793 4.344 2.254 7.082 3.84 7.405 1.585.324 7.888-1.289 10.302-2.896 2.413-1.608 2.896-3.84 1.289-3.84-1.608 0-9.019.461-9.019.461z" fill="#fff" stroke="#4F4F4F" stroke-linecap="round" stroke-linejoin="round"/><path d="M198.996 191.679a1.85 1.85 0 00.165 1.689c.301.33-.757.494-3.988.549.74 1.975 1.311 3.176 2.342 3.385 1.613.323 7.888-1.29 10.302-2.897 2.414-1.607 2.896-3.84 1.289-3.84s-9.013.483-9.013.483a1.64 1.64 0 00-1.097.631zM146.054 87.628a9.943 9.943 0 00-2.907-6.621c-2.907-2.743-9.364-3.39-12.43.806-3.067 4.197-3.067 7.592-1.937 8.398l1.13.807s-1.453 2.743.159 4.037c1.613 1.295 2.908 2.584 3.231 1.13.324-1.453-2.101-4.52 1.613-6.945 3.714-2.424 11.141-1.612 11.141-1.612z" fill="#4F4F4F" stroke="#4F4F4F" stroke-linecap="round" stroke-linejoin="round"/><path d="M144.277 84.227s4.844-4.038 7.587-.648c2.743 3.39-2.902 7.752-3.709 8.229-.806.477-4.037-6.133-4.037-6.133s-.806-.642.159-1.448z" fill="#4F4F4F" stroke="#4F4F4F" stroke-linecap="round" stroke-linejoin="round"/><path d="M148.693 92.625s1.827-2.688 2.792-.433c.966 2.254-1.097 5.376-2.04 6.034-.944.658-.752-5.6-.752-5.6z" fill="#fff" stroke="#4F4F4F" stroke-linecap="round" stroke-linejoin="round"/><path d="M132.253 95.308s-1.723-3.972-2.902-2.255c-1.18 1.717.11 6.232 2.364 6.232.293-.464.509-.971.642-1.503" fill="#fff"/><path d="M132.253 95.308s-1.723-3.972-2.902-2.255c-1.18 1.717.11 6.232 2.364 6.232.293-.464.509-.971.642-1.503" stroke="#4F4F4F" stroke-linecap="round" stroke-linejoin="round"/><path d="M158.425 134.255c-1.882-4.97.861-17.987-3.423-20.044-4.285-2.057-10.275-2.743-10.275-2.743l-4.97.181-4.97-.181s-5.996.686-10.28 2.743c-4.284 2.057-1.541 15.074-3.423 20.044-1.882 4.97-3.429 11.471-2.743 15.585.686 4.114 3.083 5.65 4.97 6.166 1.295.351 10.703.219 16.457.104 5.738.115 15.146.247 16.457-.104 1.881-.516 4.279-2.057 4.964-6.166.686-4.109-.877-10.648-2.764-15.585z" fill="#9BE69E" stroke="#4F4F4F" stroke-linecap="round" stroke-linejoin="round"/><path d="M128.769 135.967s11.975-5.903 21.487-1.646m-13.774-4.092s5.738-.823 9.677 1.311" stroke="#4F4F4F" stroke-linecap="round" stroke-linejoin="round"/><path d="M137.113 108.308s-3.33 1.098-3.867 2.584c-.538 1.487-1.613 5.585-1.503 7.411.109 1.827 1.179 2.792 1.717 1.937.537-.856 5.694-3.116 6.341-3.44.647-.323 4.619.861 5.37 1.717.752.856 2.902 3.226 3.226 2.364.324-.861 0-4.728-1.097-8.162-1.097-3.434-2.041-3.977-3.977-4.515-1.937-.537-6.21.104-6.21.104z" fill="#fff" stroke="#4F4F4F" stroke-linecap="round" stroke-linejoin="round"/><path d="M135.906 108.095s.214 5.375 1.097 8.168c.883 2.792 3.22 6.555 4.295 6.034 1.076-.521 2.261-5.486 2.793-7.521a48.12 48.12 0 00.861-6.127s-7.653.521-9.046-.554z" fill="#fff" stroke="#4F4F4F" stroke-linecap="round" stroke-linejoin="round"/><path d="M144.93 108.632s-7.631.549-9.024-.548c0 0 .06 1.464.236 3.264a16.802 16.802 0 007.921.581c.187-.038.357-.088.549-.132.181-1.64.318-3.165.318-3.165z" fill="#4F4F4F" stroke="#4F4F4F" stroke-linecap="round" stroke-linejoin="round"/><path d="M132.116 89.981s-1.827 14.444 0 16.934c1.826 2.491 8.129 3.84 11.947 2.984 3.818-.855 5.645-3.291 5.815-8.135.17-4.844-1.163-12.781-2.825-13.939-1.662-1.157-5.809-2.66-9.463-1.497-3.653 1.163-4.981 2.325-5.474 3.653z" fill="#fff" stroke="#4F4F4F" stroke-linecap="round" stroke-linejoin="round"/><path d="M137.596 85.433s-1.097 4.159-3.72 5.486c-2.622 1.328-1.969-2.194-1.311-4.158" fill="#4F4F4F"/><path d="M137.596 85.433s-1.097 4.159-3.72 5.486c-2.622 1.328-1.969-2.194-1.311-4.158m3.506 8.393s1.87-1.646 3.291-.22m3.878-.114s1.542-2.096 3.198.115" stroke="#4F4F4F" stroke-linecap="round" stroke-linejoin="round"/><path d="M142.138 92.088l.642 7.092s-1.931.966-2.793-.86" fill="#fff"/><path d="M142.138 92.088l.642 7.092s-1.931.966-2.793-.86m-4.191-6.232a5.399 5.399 0 013.84-.862m2.716.11a3.478 3.478 0 013.653-.11" stroke="#4F4F4F" stroke-linecap="round" stroke-linejoin="round"/><path d="M140.635 99.07s-4.449.846-4.125 1.597c.323.752 1.689 1.646 2.978 1.547 1.289-.099 2.222-1.646 2.222-1.646s2.079 3.072 4.838.423c.883-.845-3.768-1.816-3.768-1.816s-1.503.647-2.145-.104z" fill="#4F4F4F"/><path d="M158.128 151.771s-.329-2.891-10.658-5.272c-10.33-2.38-17.878-.175-21.328 2.381-3.451 2.556-5.579 4.251-6.89 8.843-1.311 4.591-1.646 13.599 8.694 15.979 10.341 2.381 26.732 2.025 31.488-2.638 7.674-7.515.17-17.609-1.306-19.293z" fill="#4F4F4F" stroke="#4F4F4F" stroke-linecap="round" stroke-linejoin="round"/><path d="M146.872 150.021s-3.193-.296-4.109-.499c-.916-.203-4.076 1.53-5.809 2.446a6.801 6.801 0 00-2.858 3.467c0 .308-.302 1.833.208 2.041.51.208 3.056-.411 3.769-.411.713 0 4.69-1.224 5.71-1.098 1.021.127 4.702-1.963 4.702-1.963l-1.613-3.983z" fill="#fff" stroke="#4F4F4F" stroke-linecap="round" stroke-linejoin="round"/><path d="M142.664 154.415s-2.858.307-3.571.916a18.417 18.417 0 01-2.446 1.531m4.794-3.956a18.89 18.89 0 00-3.571 1.427 21.572 21.572 0 00-2.957 2.743m5.914-5.514s-3.977 1.427-4.69 1.937a20.517 20.517 0 00-2.041 1.936" stroke="#4F4F4F" stroke-linecap="round" stroke-linejoin="round"/><path d="M154.875 113.525s4.97.856 7.368 3.423c2.397 2.568 5.31 15.585 6.681 20.555 1.371 4.97 2.057 12.43 1.371 13.972-.685 1.541-3.752 2.529-6.303 2.529-2.55 0-15.952.29-15.952.29l-1.881-4.114 13.445-6.259-3.379-19.606" fill="#9BE69E"/><path d="M154.875 113.525s4.97.856 7.368 3.423c2.397 2.568 5.31 15.585 6.681 20.555 1.371 4.97 2.057 12.43 1.371 13.972-.685 1.541-3.752 2.529-6.303 2.529-2.55 0-15.952.29-15.952.29l-1.881-4.114 13.445-6.259-3.379-19.606" stroke="#4F4F4F" stroke-linecap="round" stroke-linejoin="round"/><path d="M126.564 113.525s-4.97.856-7.367 3.423c-2.397 2.568-5.31 15.585-6.676 20.555-1.366 4.97-2.156 11.289-1.47 12.831.685 1.541 4.284 3.938 6.851 3.938 2.568 0 15.086-.29 15.086-.29l1.613-3.961-12.584-6.879 3.176-18.827" fill="#9BE69E"/><path d="M126.564 113.525s-4.97.856-7.367 3.423c-2.397 2.568-5.31 15.585-6.676 20.555-1.366 4.97-2.156 11.289-1.47 12.831.685 1.541 4.284 3.938 6.851 3.938 2.568 0 15.086-.29 15.086-.29l1.613-3.961-12.584-6.879 3.176-18.827" stroke="#4F4F4F" stroke-linecap="round" stroke-linejoin="round"/><path d="M134.601 150.021s3.187-.296 4.103-.499c.916-.203 4.081 1.53 5.815 2.446a6.776 6.776 0 012.852 3.467c0 .308.307 1.833-.203 2.041-.51.208-3.061-.411-3.774-.411-.713 0-4.69-1.224-5.711-1.098-1.02.127-4.695-1.963-4.695-1.963l1.613-3.983z" fill="#fff" stroke="#4F4F4F" stroke-linecap="round" stroke-linejoin="round"/><path d="M138.808 154.415s2.853.307 3.566.916a18.866 18.866 0 002.446 1.531m-4.789-3.956c1.235.352 2.429.83 3.566 1.427 1.07.819 2.06 1.737 2.957 2.743m-5.914-5.514s3.977 1.427 4.69 1.937a20.517 20.517 0 012.041 1.936" stroke="#4F4F4F" stroke-linecap="round" stroke-linejoin="round"/><path d="M136.806 160.241s-8.201-7.543-15.086-7.708c-6.884-.164-10.971 4.757-10.664 12.299.307 7.543 8.026 58.044 8.026 58.044l7.872-.165 1.98-57.385" fill="#4F4F4F"/><path d="M136.806 160.241s-8.201-7.543-15.086-7.708c-6.884-.164-10.971 4.757-10.664 12.299.307 7.543 8.026 58.044 8.026 58.044l7.872-.165 1.98-57.385" stroke="#4F4F4F" stroke-linecap="round" stroke-linejoin="round"/><path d="M119.082 222.875s-4.268 2.952-5.415 6.397c-1.146 3.445 5.415 2.463 8.229-.324a47.386 47.386 0 005.085-6.237l-7.899.164z" fill="#fff" stroke="#4F4F4F" stroke-linecap="round" stroke-linejoin="round"/><path d="M143.515 160.241s8.201-7.543 15.091-7.708c6.89-.164 10.971 4.757 10.658 12.299-.313 7.543-11.004 58.044-11.004 58.044l-7.872-.165.988-57.385" fill="#4F4F4F"/><path d="M143.515 160.241s8.201-7.543 15.091-7.708c6.89-.164 10.971 4.757 10.658 12.299-.313 7.543-11.004 58.044-11.004 58.044l-7.872-.165.988-57.385" stroke="#4F4F4F" stroke-linecap="round" stroke-linejoin="round"/><path d="M158.26 222.875s4.268 2.952 5.414 6.397c1.147 3.445-5.414 2.463-8.201-.324a47.386 47.386 0 01-5.085-6.237l7.872.164z" fill="#fff" stroke="#4F4F4F" stroke-linecap="round" stroke-linejoin="round"/><path d="M97.189 95.565s4.328-1.442 4.992-3.993c.663-2.551-1.772-11.103-9.101-14.104-7.329-3-19.32-.888-23.43 3.78-4.108 4.668.226 8.99.335 9.99.11.998-3.22 1.645-3.774 5.885-.554 4.241 4.888 8.547 10.769 9.874 5.88 1.328 8.777-.334 8.777-2.556s-1.333-4.218 1.223-5.88c2.556-1.663 5.436-4.773 6.66-4.663 1.223.11 3.549 1.667 3.549 1.667z" fill="#4F4F4F"/><path d="M87.847 81.813A24.685 24.685 0 0175.23 92.016c-8.596 2.957-11.548.807-11.548.807m20.133-12.875s-8.053 10.74-17.993 10.472m25.245-8.607s-13.714 20.681-30.078 20.681m24.438-24.192s13.638 7.159 16.754 13.248" stroke="#828282" stroke-linecap="round" stroke-linejoin="round"/><path d="M97.189 95.565s4.328-1.442 4.992-3.993c.663-2.551-1.772-11.103-9.101-14.104-7.329-3-19.32-.888-23.43 3.78-4.108 4.668.226 8.99.335 9.99.11.998-3.22 1.645-3.774 5.885-.554 4.241 4.888 8.547 10.769 9.874 5.88 1.328 8.777-.334 8.777-2.556s-1.333-4.218 1.223-5.88c2.556-1.663 5.436-4.773 6.66-4.663 1.223.11 3.549 1.667 3.549 1.667z" stroke="#4F4F4F" stroke-linecap="round" stroke-linejoin="round"/><path d="M94.632 116.992s6.44 1.777 9.436 5.996c2.995 4.218 5.551 14.323 6.582 18.651 1.032 4.328-.312 9.079-3.291 10.631-2.979 1.553-7.91-4.388-9.128-6.632-1.218-2.244-1.223-10.324-2.194-15.766-.971-5.441-2.996-12.211-2.996-12.211s-.96-1.113 1.591-.669z" fill="#fff" stroke="#4F4F4F" stroke-linecap="round" stroke-linejoin="round"/><path d="M81.752 102.987s.67 6.665 0 8.108c-.67 1.443-3.105 3.105-7.213 4.438-4.11 1.333-6.885 2.447-9.107 6.221-2.221 3.774-4.651 22.935-7.438 27.976-2.842 5.146-3.505 15.667 3.231 20.89 5.486 4.273 24.751 3.757 31.63 2.742 6.879-1.014 13.001-.038 14.888-4.811 1.887-4.772-2.008-12.841-3.895-15.282-1.887-2.442-5.683-4.855-5.683-4.855s2.37-4.114 2.551-7.548c.335-6.221-6.106-23.874-6.106-23.874s-3.883-1.645-4.772-3.774c-.889-2.128-.549-5.107-.549-5.107l-7.537-5.124z" fill="#9BE69E" stroke="#4F4F4F" stroke-linecap="round" stroke-linejoin="round"/><path d="M71.319 154.881s11.322.494 17.477 5.415M78.647 144.64s6.66.998 12.875-1.333m-5.217 2.331s4.444-.664 6.994-2.222" stroke="#4F4F4F" stroke-linecap="round" stroke-linejoin="round"/><path d="M68.433 136.45c2.441-1.443 5.436-8.103 5.996-13.435.439-4.235-.593-6.363-1.032-7.054-3.488 1.185-5.957 2.425-7.965 5.837-1.371 2.331-3.165 10.389-4.783 17.493 2.189.011 5.573-1.563 7.784-2.841zm21.427-23.232c-.889-2.106-.549-5.107-.549-5.107l-7.559-5.124s.67 6.665 0 8.108c-.515 1.097-2.1 2.37-4.706 3.5.46 2.035 1.81 7.252 3.933 9.375 2.66 2.666 7.767 3.22 9.545-.329 1.777-3.549.888-8.437.888-8.437l.044-.115a5.227 5.227 0 01-1.596-1.871z" fill="#fff" stroke="#4F4F4F" stroke-linecap="round" stroke-linejoin="round"/><path d="M89.306 108.111l-6.555-4.432-.895.488c.066.839.148 2.019.181 3.192 1.454 1.646 3.56 3.681 5.513 4.054a7.3 7.3 0 001.85.116 14.385 14.385 0 01-.094-3.418z" fill="#4F4F4F"/><path d="M92.191 88.017s-2.44 4.109-6.33 6.215a30.282 30.282 0 01-6.66 2.776s.11 1.333-.444 1.333-1.777-1.997-2.55-2.106c-.774-.11-3.22 3.105-2.338 4.437a7.398 7.398 0 003.335 2.666c1.098.445 2.332-.998 2.332-.998s8.546 10.423 13.434 7.773c4.888-2.649 4.548-16.32 4.548-16.32s-1.108-3-5.327-5.776z" fill="#fff" stroke="#4F4F4F" stroke-linecap="round" stroke-linejoin="round"/><path d="M88.916 96.679c0 .702-.323 1.273-.724 1.273-.4 0-.718-.549-.718-1.273 0-.724.323-1.278.718-1.278.395 0 .724.57.724 1.278zm6.884-.669c0 .707-.323 1.278-.723 1.278-.4 0-.719-.549-.719-1.278 0-.73.318-1.273.719-1.273.4 0 .724.57.724 1.273z" fill="#4F4F4F"/><path d="M93.19 94.792l-.664 2.106s1.772.549 1.772 1.558c0 1.01-1.646 1.443-1.997 1.443m-1.333 3.22a2.48 2.48 0 002.331 0m-6.549-9.106s.998-1.777 2.885-1.333m4.553.334a1.454 1.454 0 011.997.664" stroke="#4F4F4F" stroke-linecap="round" stroke-linejoin="round"/><path d="M90.633 153.57s3.78.62 4.005 1.097c.225.478 1.481 3.193 1.14 3.988-.34.796-1.025-.34-1.25-1.141-.225-.8-2.743-2.616-2.743-2.616" fill="#fff"/><path d="M90.633 153.57s3.78.62 4.005 1.097c.225.478 1.481 3.193 1.14 3.988-.34.796-1.025-.34-1.25-1.141-.225-.8-2.743-2.616-2.743-2.616" stroke="#4F4F4F" stroke-linecap="round" stroke-linejoin="round"/><path d="M89.97 153.636s3.203.993 3.516 1.399c.664.861 1.97 3.001 1.645 3.796-.323.795-.767.318-2.424-2.271a7.384 7.384 0 00-1.563-1.487" fill="#fff"/><path d="M89.97 153.636s3.203.993 3.516 1.399c.664.861 1.97 3.001 1.645 3.796-.323.795-.767.318-2.424-2.271a7.384 7.384 0 00-1.563-1.487" stroke="#4F4F4F" stroke-linecap="round" stroke-linejoin="round"/><path d="M72.822 115.933s-7.483 1.432-11.701 4.619c-4.219 3.188-6.84 20.155-7.285 24.258-.444 4.103-.91 7.97 1.135 8.777 2.047.806 17.313 1.481 20.385 1.481 3.072 0 11.618 1.13 12.299 1.13.68 0 4.668 2.507 5.354 3.193.685.685.784-.593.455-1.827-.444-1.646-2.743-4.213-5.579-5.124-2.836-.91-7.63-.455-10.708-2.161-3.077-1.706-10.472-5.601-11.613-5.815a9.746 9.746 0 00-1.481-.225s5.924-13.209 6.49-15.146" fill="#fff"/><path d="M72.822 115.933s-7.483 1.432-11.701 4.619c-4.219 3.188-6.84 20.155-7.285 24.258-.444 4.103-.91 7.97 1.135 8.777 2.047.806 17.313 1.481 20.385 1.481 3.072 0 11.618 1.13 12.299 1.13.68 0 4.668 2.507 5.354 3.193.685.685.784-.593.455-1.827-.444-1.646-2.743-4.213-5.579-5.124-2.836-.91-7.63-.455-10.708-2.161-3.077-1.706-10.472-5.601-11.613-5.815a9.746 9.746 0 00-1.481-.225s5.924-13.209 6.49-15.146m19.704 26.644s2.743 1.937 2.743 3.648" stroke="#4F4F4F" stroke-linecap="round" stroke-linejoin="round"/><path d="M106.942 144.678a9.77 9.77 0 00-7.219.998c-3.55 2.112-5.551 4.109-7.68 4.663-2.128.554-5.661.225-8.327 1.333a54.982 54.982 0 01-5.661 1.887c-1.333.445-1.224 1.443-.225 1.443.998 0 2.331-.11 2.331-.11s-1.772 2.776-1.772 3.665c0 .888 2.661.998 3.66.773.998-.225 2.665-2.331 3.22-2.551.553-.219 2.665.11 4.218-.998 1.552-1.108 2.222-1.646 2.222-1.646s6.33 1.997 10.971.889 6.27-2.161 7.603-6.934" fill="#fff"/><path d="M106.942 144.678a9.77 9.77 0 00-7.219.998c-3.55 2.112-5.551 4.109-7.68 4.663-2.128.554-5.661.225-8.327 1.333a54.982 54.982 0 01-5.661 1.887c-1.333.445-1.224 1.443-.225 1.443.998 0 2.331-.11 2.331-.11s-1.772 2.776-1.772 3.665c0 .888 2.661.998 3.66.773.998-.225 2.665-2.331 3.22-2.551.553-.219 2.665.11 4.218-.998 1.552-1.108 2.222-1.646 2.222-1.646s6.33 1.997 10.971.889 6.27-2.161 7.603-6.934m-30.1 6.808a8.873 8.873 0 012.222-1.887m-3.22 5.88s2.002-3.774 4.663-5.326m-3.116 5.612s.806-3.067 4.449-4.937m-3.111 5.096a5.949 5.949 0 014.027-4.235" stroke="#4F4F4F" stroke-linecap="round" stroke-linejoin="round"/><path d="M104.342 162.506s-4.937-2.293-9.699 2.112c-4.761 4.405-4.717 6.583-11.059 15.596-6.341 9.013-15.513 25.557-17.45 26.792-1.936 1.234-8.107 3.697-9.325 7.4-1.218 3.703.549 4.761 3.17 3.703 2.623-1.059 7.05-8.64 7.757-9.167.708-.527 15.69-12.513 23.621-17.099 7.933-4.586 11.943-8.892 15.113-16.824 3.171-7.932.691-11.986-2.128-12.513z" fill="#fff" stroke="#4F4F4F" stroke-linecap="round" stroke-linejoin="round"/><path d="M67.6 209.063a4.67 4.67 0 01-1.954-1.772c-2.315 1.305-7.68 3.681-8.853 7.131-1.235 3.703.548 4.762 3.17 3.703 2.546-1.037 6.649-7.971 7.636-9.062z" fill="#4F4F4F" stroke="#4F4F4F" stroke-linecap="round" stroke-linejoin="round"/><path d="M68.707 213.034s8.887-14.46 14.526-23.451c5.64-8.991 8.289-14.449 8.289-18.859 0 0 .23-6.49-4.937-6.523-3.176 0-9.166 1.942-13.572 10.423-4.404 8.481-7.58 36.134-8.107 37.719-.527 1.586-.549 11.46.877 13.753 1.427 2.293 3.879.702 4.054-4.235a27.25 27.25 0 00-1.13-8.827z" fill="#fff" stroke="#4F4F4F" stroke-linecap="round" stroke-linejoin="round"/><path d="M64.78 212.914c-.395 2.655-.28 11.064 1.004 13.165 1.415 2.288 3.878.702 4.053-4.235a27.239 27.239 0 00-1.13-8.804s-2.013 2.43-3.927-.126z" fill="#4F4F4F" stroke="#4F4F4F" stroke-linecap="round" stroke-linejoin="round"/></svg>