<svg width="29" height="29" fill="none" xmlns="http://www.w3.org/2000/svg"><g clip-path="url(#clip0)"><path d="M14.5 27.188a12.687 12.687 0 110-25.375 12.687 12.687 0 010 25.375zm0 1.812a14.5 14.5 0 100-29 14.5 14.5 0 000 29z" fill="#828282"/><path d="M13 11c0 1.657-.895 3-2 3s-2-1.343-2-3 .895-3 2-3 2 1.343 2 3z" fill="#FC6E8E"/><path fill-rule="evenodd" clip-rule="evenodd" d="M11.582 12.567C11.82 12.21 12 11.658 12 11c0-.659-.18-1.21-.418-1.567C11.34 9.07 11.114 9 11 9c-.114 0-.34.07-.582.433C10.18 9.79 10 10.342 10 11c0 .659.18 1.21.418 1.567.243.364.468.433.582.433.114 0 .34-.07.582-.433zM11 14c1.105 0 2-1.343 2-3s-.895-3-2-3-2 1.343-2 3 .895 3 2 3z" fill="#FC6E8E"/><path d="M20 11c0 1.657-.895 3-2 3s-2-1.343-2-3 .895-3 2-3 2 1.343 2 3z" fill="#FC6E8E"/><path fill-rule="evenodd" clip-rule="evenodd" d="M18.582 12.567C18.82 12.21 19 11.658 19 11c0-.659-.18-1.21-.418-1.567C18.34 9.07 18.114 9 18 9c-.114 0-.34.07-.582.433C17.18 9.79 17 10.342 17 11c0 .659.18 1.21.418 1.567.243.364.468.433.582.433.114 0 .34-.07.582-.433zM18 14c1.105 0 2-1.343 2-3s-.895-3-2-3-2 1.343-2 3 .895 3 2 3zm-2.923 5c-1.945.005-3.91.732-6.558 2.34a1 1 0 01-1.038-1.71c2.769-1.682 5.11-2.623 7.59-2.63 2.472-.006 4.927.917 7.922 2.615a1 1 0 01-.986 1.74c-2.89-1.638-4.978-2.36-6.93-2.355z" fill="#FC6E8E"/></g><defs><clipPath id="clip0"><path fill="#fff" d="M0 0h29v29H0z"/></clipPath></defs></svg>