<svg width="29" height="29" fill="none" xmlns="http://www.w3.org/2000/svg"><path d="M14.5 27.188a12.687 12.687 0 110-25.375 12.687 12.687 0 010 25.375zm0 1.812a14.5 14.5 0 100-29 14.5 14.5 0 000 29z" fill="#828282"/><path d="M7.767 17.34a.906.906 0 011.238.332 6.34 6.34 0 005.495 3.172 6.34 6.34 0 005.496-3.172.906.906 0 111.57.906 8.152 8.152 0 01-7.065 4.078 8.152 8.152 0 01-7.066-4.078.906.906 0 01.332-1.238zm4.921-5.559c0 1.501-.812 2.719-1.813 2.719-1 0-1.812-1.218-1.812-2.719 0-1.5.812-2.719 1.813-2.719 1 0 1.812 1.219 1.812 2.72zm7.25 0c0 1.501-.812 2.719-1.813 2.719-1 0-1.812-1.218-1.812-2.719 0-1.5.812-2.719 1.813-2.719 1 0 1.812 1.219 1.812 2.72z" fill="#FC6E8E"/></svg>