<svg width="245" height="247" fill="none" xmlns="http://www.w3.org/2000/svg"><path opacity=".2" d="M25.6 61.4l-9.245 5.012 7.704 23.117-3.855 4.623 2.698 3.854 79.743-27.025-65.87-13.82-11.175 4.24z" fill="#000"/><path d="M38.006 31.49L23.44 63.598l1.653 1.658L39.66 32.813l-1.653-1.322z" fill="#000"/><path fill-rule="evenodd" clip-rule="evenodd" d="M37.89 31.005a.5.5 0 01.428.095l1.653 1.323a.5.5 0 01.144.595L25.549 65.46a.5.5 0 01-.81.148l-1.653-1.658a.5.5 0 01-.1-.56L37.55 31.284a.5.5 0 01.339-.28zm.306 1.278L24.039 63.489l.896.899L39.044 32.96l-.848-.678z" fill="#000"/><path d="M25.093 65.255l27.575-8.722-13.01-23.72-14.565 32.442z" fill="#828282"/><path fill-rule="evenodd" clip-rule="evenodd" d="M39.639 32.313a.5.5 0 01.458.26l13.009 23.72a.5.5 0 01-.288.717l-27.574 8.722a.5.5 0 01-.607-.682l14.566-32.442a.5.5 0 01.436-.295zm.064 1.621L26.006 64.442l25.93-8.202-12.233-22.306z" fill="#000"/><path d="M86.805 2.471L44.542 86.783l-16.191-71.75L83.856 1l2.949 1.471z" fill="#828282"/><path fill-rule="evenodd" clip-rule="evenodd" d="M83.734.515a.5.5 0 01.346.038l2.948 1.471a.5.5 0 01.224.672L44.989 87.007a.5.5 0 01-.934-.114l-16.192-71.75a.5.5 0 01.365-.595L83.734.515zM28.946 15.398l15.776 69.91L86.133 2.696 83.8 1.53 28.946 15.398z" fill="#000"/><path d="M102.645 70.98l-55.16 17.28-16.191-71.756L86.803 2.47l15.841 68.51z" fill="#828282"/><path fill-rule="evenodd" clip-rule="evenodd" d="M87.065 2.045a.5.5 0 01.227.314l15.84 68.51a.5.5 0 01-.338.589l-55.16 17.28a.5.5 0 01-.636-.368L30.806 16.614a.5.5 0 01.365-.595L86.682 1.987a.5.5 0 01.383.058zM31.89 16.869l15.964 70.752 54.2-16.979-15.62-67.56L31.89 16.869z" fill="#000"/><path d="M98.353 67.905L49.826 83.099 35.58 19.975 84.422 7.632l13.93 60.273z" fill="#fff"/><path fill-rule="evenodd" clip-rule="evenodd" d="M84.682 7.206a.5.5 0 01.227.314L98.84 67.792a.5.5 0 01-.338.59L49.975 83.576a.5.5 0 01-.637-.367L35.092 20.085a.5.5 0 01.366-.595L84.299 7.148a.5.5 0 01.383.058zM36.175 20.34l14.02 62.12L97.76 67.566 84.05 8.242 36.175 20.34z" fill="#000"/><path d="M31.294 16.504l-2.943-1.471 16.191 71.75 2.943 1.477-16.191-71.756z" fill="#000"/><path fill-rule="evenodd" clip-rule="evenodd" d="M28.042 14.64a.5.5 0 01.532-.055l2.943 1.472a.5.5 0 01.264.337L47.973 88.15a.5.5 0 01-.712.557l-2.943-1.476a.5.5 0 01-.264-.337L27.863 15.143a.5.5 0 01.18-.504zm1.029 1.312l15.907 70.49 1.787.898-15.907-70.495-1.787-.893z" fill="#000"/><path d="M87.935 22.843a10.988 10.988 0 00-5.79-2.666c-8.7-1.338-22.03 2.271-23.927 12.263-1.067 5.71-1.36 9.516-3.535 11.42-2.175 1.903-6.531 3.263-6.803 5.438-.272 2.175 4.078 4.894 4.078 4.894.208.128-.645 3.695-.687 4.004-.31 2.298-.981 4.638-.763 6.984a8.968 8.968 0 005.033 7.294c2.25 1.007 4.735.655 6.963 1.6.565.24 3.732 3.891 3.263 4.035L98.353 67.9 87.935 22.843z" fill="#fff"/><path fill-rule="evenodd" clip-rule="evenodd" d="M82.218 19.683a11.488 11.488 0 016.05 2.786.5.5 0 01.154.261L98.84 67.787a.5.5 0 01-.338.59L65.918 78.585l-.004.001a.5.5 0 01-.635-.588 3.179 3.179 0 00-.163-.274 15.054 15.054 0 00-.976-1.277c-.395-.472-.82-.946-1.18-1.314a8.905 8.905 0 00-.465-.45c-.104-.09-.161-.132-.18-.146l-.007-.005c-1.026-.434-2.117-.578-3.292-.733l-.05-.007c-1.174-.155-2.428-.325-3.63-.863l-.012-.006a9.468 9.468 0 01-5.314-7.699c-.114-1.232.006-2.45.188-3.63.081-.533.172-1.04.261-1.537.115-.643.228-1.273.316-1.929v-.001c.014-.096.074-.374.146-.704l.016-.072c.083-.38.186-.856.282-1.326a24.2 24.2 0 00.23-1.269c.017-.11.028-.203.035-.277a17.956 17.956 0 01-2.002-1.548c-.542-.49-1.095-1.066-1.497-1.677-.396-.601-.69-1.302-.601-2.02.088-.704.5-1.296 1.02-1.797.522-.503 1.199-.959 1.904-1.388.38-.231.799-.473 1.214-.712.331-.191.66-.38.962-.56.713-.426 1.361-.85 1.87-1.294.97-.849 1.555-2.152 2.027-4.029.315-1.251.567-2.702.859-4.381.147-.85.305-1.756.486-2.726v-.002c.992-5.218 4.963-8.724 9.708-10.746 4.744-2.02 10.344-2.6 14.784-1.917zM51.693 54.616a.05.05 0 00.004.002m-.004-.002l.266-.424-.266.424m7.016-22.084c.907-4.772 4.549-8.066 9.117-10.012 4.57-1.947 9.983-2.504 14.243-1.848h.008a10.488 10.488 0 015.408 2.441L97.76 67.561l-31.63 9.91a4.51 4.51 0 00-.178-.293c-.255-.39-.64-.885-1.046-1.372a25.175 25.175 0 00-1.23-1.37 9.852 9.852 0 00-.52-.502c-.134-.117-.302-.255-.457-.321-1.154-.488-2.363-.648-3.5-.798l-.104-.013c-1.186-.157-2.297-.314-3.344-.782a8.468 8.468 0 01-4.745-6.883v-.003c-.104-1.113.002-2.237.179-3.388.072-.47.16-.965.25-1.465.12-.677.242-1.364.33-2.017l.003-.017a4.296 4.296 0 01.041-.203l.099-.456.005-.024c.083-.38.188-.861.285-1.338.096-.475.187-.954.24-1.326.027-.184.047-.357.051-.496a1.244 1.244 0 00-.01-.226.667.667 0 00-.045-.16.544.544 0 00-.211-.25m13.394 23.864h.002zm-.298.457a.286.286 0 01-.005-.081.44.44 0 01.302-.376m-.295.463zm-6.613-45.563c-.174.933-.329 1.821-.475 2.663-.297 1.705-.56 3.217-.883 4.504-.485 1.93-1.133 3.482-2.339 4.537-.579.507-1.29.967-2.015 1.4a68.75 68.75 0 01-1.002.584c-.393.226-.779.447-1.167.684-.69.42-1.29.83-1.73 1.254-.44.425-.674.82-.722 1.202-.046.37.101.825.444 1.345.337.511.821 1.023 1.332 1.485a16.407 16.407 0 002.028 1.55l.034.022.007.004" fill="#000"/><path d="M72.927 14.275a15.183 15.183 0 00-5.817-2.27l-6.872 1.737c-4.313 3.684 1.86 9.512.272 10.466-1.589.954-8.776-3.977-13.574 3.14-4.798 7.118 2.98 12.087 7.283 12.913 4.302.826 8.94-5.465 12.913-3.31 3.972 2.153-.501 7.117.165 10.923.666 3.807 7.613 4.633 8.44 9.762.826 5.13-5.134.832-10.098 7.118-4.964 6.286-1.152 13.728-1.152 13.728L98.353 67.89 86.17 15.929s-3.972-4.303-13.243-1.654z" fill="#000"/><path fill-rule="evenodd" clip-rule="evenodd" d="M66.988 11.52a.5.5 0 01.205-.009c2.068.345 4.045 1.1 5.815 2.222 4.616-1.277 7.961-.865 10.181-.097 1.124.389 1.952.866 2.503 1.252.275.193.482.362.622.487a4.36 4.36 0 01.204.193l.013.014.004.004.002.002-.367.34.368-.339a.5.5 0 01.12.225l12.182 51.96a.5.5 0 01-.338.592L64.637 78.96a.5.5 0 01-.595-.25l.445-.228a54.34 54.34 0 01-.445.228l-.001-.003-.003-.005-.01-.02a4.936 4.936 0 01-.019-.039l-.015-.03a13.928 13.928 0 01-.497-1.225 16.35 16.35 0 01-.791-3.35c-.344-2.734-.05-6.315 2.54-9.594 2.601-3.294 5.49-3.818 7.527-4.175l.024-.005c.499-.087.921-.161 1.284-.261.367-.101.628-.218.812-.365.31-.249.546-.708.35-1.922-.376-2.332-2.135-3.714-4.07-5.045l-.435-.297c-.807-.55-1.625-1.108-2.295-1.72-.8-.731-1.445-1.59-1.638-2.693-.186-1.057-.01-2.164.26-3.22a32.05 32.05 0 01.457-1.576l.045-.148a38.1 38.1 0 00.404-1.355c.267-.982.405-1.831.276-2.543-.12-.67-.486-1.259-1.354-1.73-.85-.46-1.747-.482-2.725-.23-.992.257-2.03.786-3.129 1.388l-.495.272c-.93.514-1.9 1.05-2.865 1.435-1.144.456-2.345.73-3.554.498-2.245-.431-5.374-1.93-7.343-4.266-.99-1.177-1.703-2.586-1.836-4.193-.132-1.611.324-3.367 1.576-5.224 1.25-1.854 2.675-2.95 4.149-3.544 1.469-.592 2.951-.672 4.299-.556 1.148.099 2.223.345 3.107.547l.425.096c.488.11.887.188 1.207.215.336.027.486-.013.544-.048.014-.008.012-.01.012-.01a.287.287 0 00.013-.117c-.005-.168-.072-.421-.212-.782-.13-.332-.304-.71-.5-1.137l-.035-.075a29.332 29.332 0 01-.643-1.475c-.412-1.04-.76-2.224-.703-3.41.059-1.21.541-2.397 1.728-3.41a.5.5 0 01.203-.105l6.872-1.738zm-2.23 66.354L97.76 67.55 85.717 16.183a5.906 5.906 0 00-.598-.476 9.155 9.155 0 00-2.257-1.126c-2.049-.71-5.254-1.123-9.798.175a.5.5 0 01-.41-.062 14.684 14.684 0 00-5.523-2.18l-6.654 1.684c-.905.808-1.248 1.705-1.293 2.624-.047.972.24 1.997.633 2.993.196.495.414.971.622 1.425l.04.086c.192.416.377.82.518 1.18.147.378.27.765.28 1.113.012.376-.108.776-.51 1.018-.34.204-.76.218-1.14.186-.397-.032-.857-.126-1.342-.235l-.441-.1c-.887-.202-1.887-.43-2.96-.523-1.248-.108-2.561-.027-3.84.488-1.271.512-2.544 1.47-3.693 3.175-1.148 1.702-1.519 3.236-1.408 4.583.111 1.353.713 2.572 1.604 3.63 1.797 2.134 4.708 3.534 6.766 3.929.942.18 1.934-.022 2.995-.445.902-.36 1.808-.86 2.74-1.375l.511-.28c1.095-.6 2.231-1.188 3.36-1.479 1.143-.296 2.316-.296 3.451.32 1.119.606 1.683 1.445 1.861 2.43.171.945-.022 1.978-.294 2.982-.125.459-.27.927-.414 1.39l-.046.148c-.16.515-.316 1.024-.444 1.527-.258 1.013-.392 1.954-.243 2.8.14.8.612 1.472 1.328 2.127.613.56 1.361 1.071 2.17 1.623l.452.31c1.913 1.316 4.04 2.912 4.49 5.709.218 1.35.018 2.277-.712 2.861-.336.27-.747.432-1.172.549-.409.113-.873.194-1.349.278l-.051.009c-1.979.347-4.552.817-6.915 3.81-2.374 3.006-2.655 6.29-2.333 8.849a15.276 15.276 0 001.06 3.961z" fill="#000"/><path fill-rule="evenodd" clip-rule="evenodd" d="M77.747 70.95a.5.5 0 01.362.607c-.095.372-.16.75-.195 1.133a.5.5 0 01-.996-.091 8.32 8.32 0 01.221-1.288.5.5 0 01.608-.362zm.757-38.087a.5.5 0 01.706.036c1.463 1.616 1.927 3.383 1.657 5.217-.265 1.804-1.234 3.64-2.557 5.452-.703.962-.968 1.785-.938 2.502.03.712.356 1.399.996 2.085 1.306 1.398 3.795 2.66 7.095 3.917 3.45 1.314 5.454 3.919 6.062 6.58.604 2.644-.174 5.39-2.343 6.867-.861.587-1.842.966-2.837 1.26a38.35 38.35 0 01-2.058.524c-.318.075-.633.15-.937.225-1.973.49-3.626 1.08-4.578 2.523a.5.5 0 01-.835-.55c1.186-1.799 3.206-2.455 5.172-2.943.33-.083.66-.16.985-.237.667-.157 1.323-.31 1.968-.501.948-.28 1.818-.624 2.556-1.128 1.754-1.194 2.467-3.476 1.932-5.818-.532-2.328-2.298-4.67-5.443-5.867-3.294-1.255-5.988-2.584-7.47-4.17-.752-.806-1.221-1.71-1.264-2.725-.043-1.012.34-2.054 1.13-3.134 1.284-1.76 2.144-3.438 2.375-5.007.226-1.539-.147-3.006-1.41-4.402a.5.5 0 01.036-.706zM64.541 31.81l-.173-.468a.5.5 0 00.347.938l.004-.002.016-.006.068-.024a23.403 23.403 0 011.267-.395 25.56 25.56 0 013.329-.705c2.648-.37 5.689-.303 7.718 1.218.203.152.392.305.571.459a.5.5 0 10.651-.76c-.194-.165-.4-.332-.622-.5-2.37-1.774-5.767-1.784-8.457-1.408a26.569 26.569 0 00-4.864 1.175l-.02.007-.006.002-.002.001.173.469zm21.487-4.603a.5.5 0 01.706-.05c.472.412.903.867 1.287 1.361a.5.5 0 01-.79.614 8.681 8.681 0 00-1.154-1.22.5.5 0 01-.049-.705z" fill="#fff"/><path fill-rule="evenodd" clip-rule="evenodd" d="M79.158 24.164a.5.5 0 01.579-.406 14.11 14.11 0 016.218 2.764.5.5 0 11-.614.789 13.11 13.11 0 00-5.778-2.568.5.5 0 01-.405-.58z" fill="#fff"/><path fill-rule="evenodd" clip-rule="evenodd" d="M78.629 24.6a21.674 21.674 0 00-10.595 1.698.5.5 0 01-.397-.917 22.673 22.673 0 0111.083-1.778.5.5 0 11-.091.996zm-23.326 6.97c-.673-.51-2.01-.892-3.528-.531-.74.176-1.09.478-1.234.746-.142.262-.145.6.04.984.38.79 1.492 1.61 2.99 1.683h.003a12.621 12.621 0 005.436-.908.5.5 0 11.376.927 13.621 13.621 0 01-5.865.98c-1.801-.089-3.278-1.076-3.842-2.249-.286-.597-.348-1.28-.019-1.891.326-.605.977-1.029 1.884-1.245 1.776-.422 3.426-.004 4.364.708.457.347.837.84.824 1.413-.013.622-.47 1.073-1.112 1.339-1.26.521-2.301.265-2.948-.177-.307-.21-.555-.484-.667-.764a.754.754 0 01-.008-.585c.127-.286.401-.375.606-.375a.5.5 0 01.44.738c.047.048.11.104.194.16.373.256 1.059.469 2 .079.46-.19.494-.379.495-.436.003-.105-.08-.33-.429-.595zm-2.369.645c-.003-.008-.002-.008 0 0z" fill="#fff"/><path d="M58.783 58.59c.291-.132.576-.28.853-.442l-.853.443z" fill="#fff"/><path fill-rule="evenodd" clip-rule="evenodd" d="M60.067 57.895a.5.5 0 01-.178.685c-.292.17-.592.326-.899.466a.5.5 0 01-.414-.91 8.82 8.82 0 00.807-.42.5.5 0 01.684.18z" fill="#000"/><path d="M53.009 58.623s1.871 1.22 4.729.357l-4.73-.357z" fill="#fff"/><path fill-rule="evenodd" clip-rule="evenodd" d="M53.009 58.623l-.273.419h.001l.003.002.008.005.023.015.08.046c.067.038.163.088.286.144.246.113.6.25 1.048.358.9.215 2.173.307 3.697-.154a.5.5 0 00-.289-.957c-1.333.403-2.424.317-3.175.138a4.71 4.71 0 01-.864-.294 3.077 3.077 0 01-.265-.136l-.009-.006h.001l-.272.42z" fill="#000"/><path d="M59.647 44.633a3.004 3.004 0 00-.294.645c-.304.933-.133 1.829.379 1.994.512.165 1.178-.453 1.482-1.386.117-.363.325-.326.31-.635l-1.877-.618z" fill="#000"/><path fill-rule="evenodd" clip-rule="evenodd" d="M59.219 44.373a.5.5 0 01.584-.215l1.877.618a.5.5 0 01.343.45.894.894 0 01-.064.397.93.93 0 01-.182.276c-.051.058-.066.075-.087.14v.002c-.174.531-.457.997-.798 1.315-.326.304-.805.556-1.314.392-.511-.165-.75-.655-.833-1.092-.087-.458-.04-1 .132-1.531.084-.263.199-.516.342-.752zm.679.87a2.522 2.522 0 00-.068.186l-.001.004c-.131.401-.151.772-.101 1.036.054.286.157.327.157.327.004.001.114.026.325-.17.196-.184.398-.494.529-.895l.475.155-.476-.154a1.38 1.38 0 01.076-.188l-.916-.302z" fill="#000"/><path d="M58.218 41.343s.709-1.3 2.724-.826c2.016.474 1.776 3.199 1.776 3.199" fill="#fff"/><path fill-rule="evenodd" clip-rule="evenodd" d="M58.656 41.583v.002l-.002.001v.002h-.001a.5.5 0 01-.875-.484l.44.24-.44-.24.001-.001V41.1l.002-.003.005-.007.012-.02.039-.062a2.05 2.05 0 01.143-.187c.125-.146.315-.33.58-.495.546-.338 1.363-.564 2.496-.297 1.268.299 1.8 1.314 2.013 2.139a5.134 5.134 0 01.15 1.548l-.003.029v.014l-.49-.042.49.043a.5.5 0 01-.997-.088v-.002l.001-.016.004-.074a4.13 4.13 0 00-.123-1.16c-.17-.656-.526-1.24-1.274-1.416-.882-.208-1.427-.02-1.74.173a1.493 1.493 0 00-.42.39.569.569 0 00-.013.02m3.565 2.085l.498.044-.498-.044zm0 0c0 .001 0 .001 0 0z" fill="#000"/><path d="M59.401 42.644l-.826 1.301 3.31 1.423" fill="#fff"/><path fill-rule="evenodd" clip-rule="evenodd" d="M59.67 42.222a.5.5 0 01.153.69l-.511.806 2.771 1.191a.5.5 0 01-.395.919l-3.31-1.424a.5.5 0 01-.225-.727l.826-1.301a.5.5 0 01.69-.154z" fill="#000"/><path opacity=".2" d="M201.405 55.056c-7.144 0-13.553 2.724-17.951 7.043l2.255-10.13-4.921 2.772a17.777 17.777 0 00-5.539 3.386c-2.767 2.457-3.999 6.765-3.999 6.765l8.925-3.998s-9.234 8.615-9.234 11.078c0 2.464-.613 7.689-.613 7.689l7.112-4.799c0 .373-.038.752-.038 1.13a18.545 18.545 0 001.792 7.934 11.269 11.269 0 00-1.482 4.99 15.311 15.311 0 00.922 5.54l4.558-4.847c.32.33.651.645.997.954l1.829 3.892 2.773 3.386.613-3.386-.379-.533a26.612 26.612 0 0012.38 2.991c13.254 0 23.991-9.367 23.991-20.92 0-11.554-10.737-20.937-23.991-20.937z" fill="#000"/><path d="M215.288 55.989a20.95 20.95 0 00-26.29 0h-7.826v16.33a20.961 20.961 0 006.022 15.046A20.98 20.98 0 00210.247 92a20.98 20.98 0 0011.368-11.552 20.961 20.961 0 001.499-8.128V55.99h-7.826z" fill="#828282"/><path fill-rule="evenodd" clip-rule="evenodd" d="M188.823 55.489a21.447 21.447 0 0126.64 0h7.651a.5.5 0 01.5.5v16.326a21.474 21.474 0 11-42.942 0V55.989a.5.5 0 01.5-.5h7.651zm13.32-3.638a20.449 20.449 0 00-12.831 4.527.5.5 0 01-.314.11h-7.326v15.839a20.467 20.467 0 0012.561 19.21 20.472 20.472 0 0028.381-19.21V56.489h-7.326a.5.5 0 01-.314-.111 20.449 20.449 0 00-12.831-4.527z" fill="#000"/><path d="M202.14 76.957c11.581 0 20.969-9.388 20.969-20.968S213.721 35.02 202.14 35.02c-11.581 0-20.969 9.388-20.969 20.969 0 11.58 9.388 20.968 20.969 20.968z" fill="#828282"/><path fill-rule="evenodd" clip-rule="evenodd" d="M202.14 35.52c-11.304 0-20.469 9.164-20.469 20.469 0 11.304 9.165 20.468 20.469 20.468 11.305 0 20.469-9.164 20.469-20.468 0-11.305-9.164-20.469-20.469-20.469zm-21.469 20.47c0-11.857 9.612-21.469 21.469-21.469 11.857 0 21.469 9.612 21.469 21.469 0 11.857-9.612 21.468-21.469 21.468-11.857 0-21.469-9.611-21.469-21.468z" fill="#000"/><path d="M202.14 75.091c10.55 0 19.103-8.552 19.103-19.102s-8.553-19.103-19.103-19.103-19.102 8.553-19.102 19.103S191.59 75.09 202.14 75.09z" fill="#828282"/><path fill-rule="evenodd" clip-rule="evenodd" d="M202.14 37.386c-10.274 0-18.602 8.329-18.602 18.603 0 10.274 8.328 18.602 18.602 18.602 10.274 0 18.603-8.328 18.603-18.602 0-10.274-8.329-18.603-18.603-18.603zm-19.602 18.603c0-10.826 8.776-19.603 19.602-19.603s19.603 8.776 19.603 19.603c0 10.826-8.777 19.602-19.603 19.602-10.826 0-19.602-8.776-19.602-19.602z" fill="#000"/><path d="M202.14 75.086c9.976 0 18.063-7.808 18.063-17.44 0-9.63-8.087-17.438-18.063-17.438-9.976 0-18.063 7.807-18.063 17.439 0 9.631 8.087 17.439 18.063 17.439z" fill="#828282"/><path fill-rule="evenodd" clip-rule="evenodd" d="M202.14 40.708c-9.716 0-17.563 7.6-17.563 16.939s7.847 16.939 17.563 16.939c9.717 0 17.563-7.6 17.563-16.94 0-9.338-7.846-16.938-17.563-16.938zm-18.563 16.939c0-9.924 8.328-17.94 18.563-17.94 10.236 0 18.563 8.016 18.563 17.94 0 9.924-8.327 17.939-18.563 17.939-10.235 0-18.563-8.015-18.563-17.94z" fill="#000"/><path fill-rule="evenodd" clip-rule="evenodd" d="M201.175 19.678a1 1 0 011 1v34.457a1 1 0 11-2 0V20.678a1 1 0 011-1z" fill="#000"/><path fill-rule="evenodd" clip-rule="evenodd" d="M201.231 50.285h-.001l-.005.002-.027.01-.116.045a31.64 31.64 0 00-2.177.977 40.118 40.118 0 00-5.542 3.327c-4.246 3.044-8.988 7.738-11.211 14.412a1 1 0 11-1.897-.633c2.404-7.22 7.505-12.223 11.943-15.404a42.12 42.12 0 015.822-3.495 33.966 33.966 0 011.822-.838c.219-.092.391-.162.51-.208l.138-.053.038-.015.011-.004h.003l.001-.001.318.867-.317-.868a1 1 0 11.687 1.879zm-20.728-28.529a1 1 0 011.142-.834c6.685 1.038 11.669 3.49 14.987 5.691a29.885 29.885 0 013.736 2.908c.417.385.732.702.946.927.107.112.188.202.244.264l.066.075.018.021.006.007.002.002.001.001-.764.646.764-.645a1 1 0 01-1.527 1.291h-.001v-.001l-.009-.011-.047-.053a10.306 10.306 0 00-.203-.22 18.43 18.43 0 00-.851-.834 28.023 28.023 0 00-3.486-2.711c-3.119-2.069-7.834-4.395-14.189-5.382a1 1 0 01-.835-1.142z" fill="#000"/><path d="M185.501 60.686s-9.288-2.32-13.041 1.786c-3.753 4.105-2.666 10.183-2.666 10.183s.891-.896 5.716-3.396 9.991-8.573 9.991-8.573z" fill="#9BE69E"/><path fill-rule="evenodd" clip-rule="evenodd" d="M185.622 60.2l-.121.486.381.324-.005.005-.012.014-.045.053a42.462 42.462 0 01-.834.93 57.345 57.345 0 01-2.324 2.382c-1.903 1.84-4.443 4.024-6.922 5.309-2.403 1.245-3.817 2.086-4.625 2.61-.404.263-.654.445-.8.558a3.436 3.436 0 00-.145.118c-.013.01-.02.018-.024.021l-.001.002.001-.002s.001 0 0 0l-.675.679-.169-.946.492-.088.355.353-.355-.353.493-.088-.001-.002-.001-.01a10.89 10.89 0 01-.094-.827c.11-.076.236-.16.379-.253.844-.548 2.288-1.405 4.71-2.66 2.346-1.216 4.801-3.318 6.687-5.14a55.747 55.747 0 002.592-2.679 25.898 25.898 0 00-4.183-.457c-2.775-.066-5.83.392-7.547 2.27-1.776 1.943-2.42 4.369-2.612 6.342a15.096 15.096 0 00-.026 2.577c-.216.148-.375.265-.488.353a4.61 4.61 0 00-.238.197l-.015.015-.006.005-.002.002-.001.001c-.001 0-.001.001.353.354l-.492.088v-.003l-.001-.004-.003-.016a14.179 14.179 0 01-.114-1.045 16.027 16.027 0 01.038-2.62c.203-2.093.892-4.759 2.869-6.92 2.036-2.228 5.502-2.663 8.309-2.596a26.89 26.89 0 015.109.635c.036.008.063.014.082.02l.022.004.006.002h.003zm-.121.486l.381.324.522-.614-.782-.196-.121.486z" fill="#000"/><path d="M185.501 60.686a22.68 22.68 0 00-11.229 5.896l11.229-5.896z" fill="#9BE69E"/><path fill-rule="evenodd" clip-rule="evenodd" d="M173.926 66.222a23.179 23.179 0 0111.475-6.026l.199.98a22.178 22.178 0 00-10.98 5.766l-.694-.72z" fill="#000"/><path d="M181.736 67.942s-8.807 3.732-9.319 9.293c-.512 5.56 3.988 9.735 3.988 9.735s.171-1.248 2.506-6.153c2.335-4.905 2.825-12.875 2.825-12.875z" fill="#9BE69E"/><path fill-rule="evenodd" clip-rule="evenodd" d="M182.236 67.973l-.5-.031-.195-.46.744-.316-.049.807zm-5.336 19.07s0-.001 0 0l.006-.033c.007-.033.021-.092.045-.18.048-.179.138-.475.301-.927.328-.905.947-2.428 2.11-4.87 1.2-2.52 1.915-5.797 2.331-8.414a58.15 58.15 0 00.516-4.286l.02-.266.005-.07.001-.018v-.004l.001-.002-.5-.031-.195-.46h-.002l-.006.003-.021.009-.077.034a25.372 25.372 0 00-1.315.64 26.66 26.66 0 00-3.143 1.929c-2.279 1.638-4.78 4.076-5.058 7.092-.269 2.926.781 5.469 1.873 7.259a15.962 15.962 0 001.54 2.11 13.128 13.128 0 00.716.762l.012.011.003.004h.001s.001.001.341-.365l-.341.366.706.655.13-.949zm-.737-1.053c.042-.127.092-.268.149-.427.342-.945.975-2.499 2.147-4.96 1.136-2.386 1.834-5.547 2.247-8.141a57.83 57.83 0 00.42-3.248l.044-.457a25.772 25.772 0 00-3.61 2.152c-2.252 1.618-4.411 3.827-4.645 6.371-.242 2.635.701 4.96 1.731 6.647a14.945 14.945 0 001.517 2.063z" fill="#000"/><path d="M181.737 67.942a22.667 22.667 0 00-5.417 11.495l5.417-11.495z" fill="#9BE69E"/><path fill-rule="evenodd" clip-rule="evenodd" d="M175.826 79.359a23.177 23.177 0 015.536-11.748l.749.662a22.171 22.171 0 00-5.297 11.241l-.988-.155z" fill="#000"/><path d="M189.696 56.154s8.808 3.732 9.32 9.293c.512 5.56-4.01 9.735-4.01 9.735s-.17-1.248-2.505-6.153c-2.336-4.905-2.805-12.875-2.805-12.875z" fill="#9BE69E"/><path fill-rule="evenodd" clip-rule="evenodd" d="M189.891 55.694l-.195.46-.499.03-.047-.805.741.315zm5.116 19.488l.339.367-.705.65-.129-.945-.007-.032a3.19 3.19 0 00-.044-.18 11.924 11.924 0 00-.302-.927c-.327-.905-.947-2.428-2.11-4.87-1.199-2.52-1.909-5.798-2.32-8.415a57.038 57.038 0 01-.506-4.286l-.02-.266-.004-.07-.001-.018-.001-.007.499-.03.195-.46.003.002.006.002.021.009.077.034a25.372 25.372 0 011.315.64 26.742 26.742 0 013.143 1.929c2.279 1.638 4.78 4.076 5.058 7.092.269 2.927-.787 5.47-1.885 7.26a15.908 15.908 0 01-1.547 2.11 12.939 12.939 0 01-.719.762l-.012.011-.003.004-.002.001-.339-.367zm.242-.978l.079-.09c.402-.462.933-1.135 1.449-1.976 1.035-1.687 1.983-4.012 1.741-6.646-.234-2.544-2.393-4.753-4.646-6.371a25.7 25.7 0 00-3.611-2.153 56.793 56.793 0 00.456 3.706c.407 2.595 1.1 5.755 2.235 8.14 1.172 2.463 1.806 4.016 2.148 4.96.057.16.107.303.149.43z" fill="#000"/><path d="M189.696 56.154a22.667 22.667 0 015.417 11.494l-5.417-11.494z" fill="#9BE69E"/><path fill-rule="evenodd" clip-rule="evenodd" d="M194.619 67.726a22.171 22.171 0 00-5.297-11.24l.749-.663a23.177 23.177 0 015.536 11.748l-.988.155z" fill="#000"/><path d="M200.93 49.367s8.808 3.732 9.32 9.293c.511 5.56-3.988 9.735-3.988 9.735s-.176-1.253-2.511-6.152c-2.336-4.9-2.821-12.876-2.821-12.876z" fill="#9BE69E"/><path fill-rule="evenodd" clip-rule="evenodd" d="M201.125 48.907l-.195.46-.499.03-.049-.805.743.315zm5.136 19.488l.34.367-.702.65-.132-.943v-.001l-.007-.032a3.472 3.472 0 00-.045-.182 12.48 12.48 0 00-.303-.927c-.329-.906-.95-2.429-2.113-4.87-1.2-2.516-1.913-5.793-2.328-8.411a56.976 56.976 0 01-.514-4.288l-.02-.266-.005-.07-.001-.018v-.007l.499-.03.195-.46h.003l.005.003.021.01.078.033a24.93 24.93 0 011.314.64 26.66 26.66 0 013.143 1.93c2.28 1.637 4.781 4.075 5.058 7.091.27 2.927-.781 5.47-1.873 7.26a16.058 16.058 0 01-1.539 2.11 13.808 13.808 0 01-.675.721c-.017.018-.032.031-.041.04l-.012.012-.004.003-.002.002-.34-.367zm.241-.979l.076-.087c.4-.462.929-1.136 1.442-1.977 1.03-1.687 1.974-4.012 1.731-6.646-.234-2.545-2.393-4.753-4.645-6.372a25.703 25.703 0 00-3.61-2.152c.013.139.027.292.044.458.081.817.213 1.958.418 3.25.412 2.594 1.108 5.755 2.244 8.137 1.172 2.46 1.807 4.013 2.15 4.959.058.16.108.303.15.43z" fill="#000"/><path d="M200.93 49.367a22.642 22.642 0 015.412 11.49l-5.412-11.49z" fill="#9BE69E"/><path fill-rule="evenodd" clip-rule="evenodd" d="M205.848 60.934a22.139 22.139 0 00-5.292-11.235l.748-.663a23.13 23.13 0 015.531 11.743l-.987.155z" fill="#000"/><path d="M190.267 55.466s-5.737-7.672-11.239-6.84c-5.502.832-8.53 6.195-8.53 6.195s1.258-.128 6.574.986c5.315 1.115 13.195-.34 13.195-.34z" fill="#9BE69E"/><path fill-rule="evenodd" clip-rule="evenodd" d="M190.667 55.166l-.4.3.09.492-.006.001-.018.003-.069.013a37.383 37.383 0 01-1.24.196c-.829.12-1.99.268-3.319.382-2.646.225-6.005.316-8.736-.256-2.648-.555-4.274-.799-5.232-.904-.479-.052-.789-.07-.973-.075a3.391 3.391 0 00-.219 0h-.001l-.957.098.475-.84.436.245-.436-.246.001-.002.003-.004.008-.014.029-.05c.026-.043.063-.105.113-.183.098-.156.243-.377.434-.643.383-.533.95-1.252 1.696-1.997 1.486-1.487 3.711-3.113 6.607-3.55 2.986-.452 5.949 1.398 8.083 3.222a26.848 26.848 0 013.56 3.72l.052.067.014.019.003.004.002.002zm-19.271-.81c.133.01.282.025.45.043 1 .11 2.66.36 5.328.919 2.584.542 5.823.462 8.446.238a56.633 56.633 0 003.721-.444 25.93 25.93 0 00-2.955-2.998c-2.11-1.804-4.767-3.374-7.283-2.994-2.607.394-4.647 1.866-6.05 3.269a15.27 15.27 0 00-1.59 1.872l-.067.094zm18.871 1.11l.09.492.792-.146-.482-.646-.4.3z" fill="#000"/><path d="M190.267 55.466a22.695 22.695 0 00-12.449-2.548l12.449 2.548z" fill="#9BE69E"/><path fill-rule="evenodd" clip-rule="evenodd" d="M177.777 52.42a23.198 23.198 0 0112.724 2.604l-.467.884a22.197 22.197 0 00-12.175-2.492l-.082-.997zm22.363-6.803a1 1 0 011.283-.596l-.344.939c.344-.94.344-.939.345-.939h.001l.003.002.011.004.038.014.138.053c.119.047.291.116.509.208a34.47 34.47 0 011.822.838c1.522.752 3.596 1.9 5.82 3.495 4.438 3.181 9.538 8.185 11.946 15.405a1 1 0 01-1.897.632c-2.226-6.674-6.968-11.368-11.214-14.411a40.057 40.057 0 00-5.541-3.328 31.957 31.957 0 00-1.714-.788 18.69 18.69 0 00-.577-.234l-.027-.01-.006-.002m-.596-1.282a1 1 0 00.596 1.282z" fill="#000"/><path d="M216.466 57.322s9.288-2.325 13.036 1.786c3.748 4.11 2.665 10.177 2.665 10.177s-.895-.89-5.715-3.39-9.986-8.573-9.986-8.573z" fill="#9BE69E"/><path fill-rule="evenodd" clip-rule="evenodd" d="M216.466 57.322c-.381.323-.381.324-.38.324l.004.005.012.014.045.053.176.2a57.225 57.225 0 002.981 3.112c1.903 1.839 4.442 4.024 6.918 5.308 2.4 1.246 3.814 2.085 4.623 2.61.405.261.656.443.802.555a3.534 3.534 0 01.171.14l.674.67.168-.94-.493-.088.493.088.001-.007.003-.016.002-.017.007-.04.03-.213c.023-.183.052-.446.074-.773a16.12 16.12 0 00-.039-2.618c-.204-2.09-.893-4.754-2.867-6.918-2.034-2.23-5.498-2.666-8.305-2.598a26.848 26.848 0 00-5.108.636l-.082.02-.022.005-.007.002h-.001l.12.486zm.942.31l.309.339a56.199 56.199 0 002.282 2.34c1.886 1.822 4.34 3.924 6.683 5.14 2.419 1.255 3.863 2.11 4.707 2.657.144.093.27.177.381.253l.009-.122a14.98 14.98 0 00-.037-2.453c-.192-1.97-.835-4.396-2.61-6.342-1.714-1.88-4.767-2.338-7.542-2.271a25.843 25.843 0 00-4.182.459zm-.942-.31l-.12-.486-.783.196.523.614.38-.325zm15.353 12.322z" fill="#000"/><path d="M216.466 57.322a22.623 22.623 0 0111.25 5.89l-11.25-5.89z" fill="#9BE69E"/><path fill-rule="evenodd" clip-rule="evenodd" d="M227.369 63.573a22.122 22.122 0 00-11.001-5.761l.197-.98a23.12 23.12 0 0111.498 6.02l-.694.72z" fill="#000"/><path d="M220.235 64.578s8.808 3.732 9.32 9.292c.512 5.561-4.009 9.736-4.009 9.736s-.176-1.253-2.512-6.158c-2.335-4.905-2.799-12.87-2.799-12.87z" fill="#9BE69E"/><path fill-rule="evenodd" clip-rule="evenodd" d="M220.43 64.117l-.195.46-.499.03-.047-.804.741.314zm5.116 19.489l.339.367-.702.648-.132-.941v-.001l-.007-.032a2.671 2.671 0 00-.045-.182 12.513 12.513 0 00-.303-.928c-.329-.907-.95-2.431-2.113-4.874-1.2-2.52-1.908-5.796-2.318-8.412a56.725 56.725 0 01-.504-4.284l-.019-.266-.004-.07-.001-.017-.001-.007.499-.03.195-.46.003.001.006.003.021.009.077.034a25.372 25.372 0 011.315.64 26.742 26.742 0 013.143 1.929c2.279 1.638 4.78 4.075 5.058 7.092.269 2.927-.787 5.47-1.885 7.26a15.908 15.908 0 01-1.547 2.11 12.997 12.997 0 01-.719.762l-.012.011-.003.003-.002.002-.339-.367zm.241-.977l.08-.09c.402-.463.933-1.136 1.449-1.977 1.035-1.688 1.983-4.012 1.741-6.646-.234-2.544-2.393-4.753-4.646-6.371a25.687 25.687 0 00-3.611-2.153l.042.459c.079.816.209 1.954.411 3.245.406 2.593 1.097 5.752 2.233 8.137 1.172 2.462 1.807 4.017 2.15 4.963.058.161.108.305.151.433z" fill="#000"/><path d="M220.235 64.578a22.668 22.668 0 015.417 11.489l-5.417-11.49z" fill="#9BE69E"/><path fill-rule="evenodd" clip-rule="evenodd" d="M225.158 76.145a22.172 22.172 0 00-5.297-11.236l.749-.663a23.178 23.178 0 015.536 11.743l-.988.156z" fill="#000"/><path d="M212.27 52.785s-8.808 3.732-9.319 9.298c-.512 5.566 4.009 9.73 4.009 9.73s.17-1.248 2.506-6.153c2.335-4.905 2.804-12.875 2.804-12.875z" fill="#9BE69E"/><path fill-rule="evenodd" clip-rule="evenodd" d="M212.769 52.814l-.499-.03-.195-.46.741-.314-.047.804zm-5.314 19.07c0 .001 0 0 0 0l.006-.031a3.17 3.17 0 01.045-.181c.048-.178.138-.474.301-.926.328-.906.947-2.428 2.11-4.871 1.2-2.52 1.909-5.797 2.32-8.415a57.174 57.174 0 00.507-4.285l.019-.266.005-.07.001-.018v-.007l-.499-.03-.195-.46-.003.001-.005.003-.021.009a13.96 13.96 0 00-.367.166 26.72 26.72 0 00-4.169 2.438c-2.279 1.638-4.78 4.077-5.057 7.096-.27 2.93.786 5.471 1.884 7.26a16.044 16.044 0 001.547 2.106 13.446 13.446 0 00.72.761l.012.011.003.004h.001c.001 0 .001.001.34-.367l-.34.368.705.649.13-.944zm-.738-1.048c.042-.127.092-.27.15-.43.342-.945.975-2.499 2.147-4.961 1.136-2.385 1.828-5.546 2.236-8.14a57.715 57.715 0 00.455-3.706 26.378 26.378 0 00-3.611 2.153c-2.252 1.62-4.411 3.829-4.646 6.376-.242 2.637.707 4.96 1.741 6.645.516.84 1.048 1.512 1.449 1.974l.079.089z" fill="#000"/><path d="M212.27 52.785a22.667 22.667 0 00-5.417 11.494l5.417-11.494z" fill="#9BE69E"/><path fill-rule="evenodd" clip-rule="evenodd" d="M206.359 64.201a23.169 23.169 0 015.536-11.748l.749.663a22.171 22.171 0 00-5.297 11.241l-.988-.156z" fill="#000"/><path d="M211.705 52.097s5.731-7.672 11.233-6.857c5.502.816 8.53 6.19 8.53 6.19s-1.258-.122-6.573.987c-5.316 1.108-13.19-.32-13.19-.32z" fill="#9BE69E"/><path fill-rule="evenodd" clip-rule="evenodd" d="M212.632 51.74l.456.068c.814.115 1.955.258 3.26.366 2.621.218 5.86.292 8.445-.247 2.668-.556 4.328-.806 5.327-.916.169-.019.319-.034.452-.045l-.069-.097c-.358-.5-.891-1.175-1.59-1.874-1.403-1.404-3.443-2.874-6.048-3.26-2.517-.373-5.173 1.202-7.282 3.008a25.965 25.965 0 00-2.951 2.998zm18.836-.31l.436-.245-.001-.002-.003-.005-.008-.014a.865.865 0 00-.029-.05c-.026-.043-.063-.105-.112-.183a14.02 14.02 0 00-.435-.644 16.161 16.161 0 00-1.696-2c-1.486-1.486-3.712-3.112-6.609-3.541-2.985-.443-5.946 1.41-8.078 3.237a26.895 26.895 0 00-3.558 3.722l-.052.067-.013.018-.004.005-.001.002.4.3-.4-.3-.484.648.794.144.09-.492-.09.492h.007l.018.004.069.012c.061.01.149.026.264.044a58.008 58.008 0 004.292.521c2.645.22 6.001.306 8.732-.264 2.647-.552 4.274-.796 5.233-.901.479-.053.788-.071.973-.077a3.486 3.486 0 01.221 0l.951.093-.471-.837-.436.246z" fill="#000"/><path d="M211.705 52.096a22.695 22.695 0 0112.449-2.548l-12.449 2.548z" fill="#9BE69E"/><path fill-rule="evenodd" clip-rule="evenodd" d="M224.113 50.046a22.195 22.195 0 00-12.175 2.493l-.467-.885a23.197 23.197 0 0112.723-2.604l-.081.996z" fill="#000"/><path d="M200.978 49.212s-5.731-7.672-11.244-6.856c-5.513.816-8.53 6.195-8.53 6.195s1.258-.128 6.573.981c5.316 1.11 13.201-.32 13.201-.32z" fill="#9BE69E"/><path fill-rule="evenodd" clip-rule="evenodd" d="M201.379 48.913l-.401.3.089.491-.006.002-.018.003-.07.012-.263.044a58.25 58.25 0 01-4.297.521c-2.648.22-6.007.305-8.738-.264-2.647-.553-4.274-.795-5.232-.899a12.18 12.18 0 00-.973-.075 3.393 3.393 0 00-.219.001h.001-.004.003-.001l-.953.097.471-.84.436.245.05.498-.05-.498.436.245.001-.002.005-.009.023-.04.099-.16c.077-.123.188-.294.332-.5.133.011.283.026.452.044.999.109 2.66.357 5.328.914 2.584.54 5.826.465 8.45.247a57.192 57.192 0 003.721-.434 25.798 25.798 0 00-2.953-2.998c-2.109-1.805-4.768-3.38-7.291-3.007-2.61.386-4.65 1.857-6.051 3.262-.699.7-1.231 1.376-1.588 1.876l-.068.096a10.426 10.426 0 00-.603-.036 4.323 4.323 0 00-.309.002l-.021.002h-.012c-.001 0-.002 0 .049.498l-.436-.244.001-.003.002-.004.008-.014a5.774 5.774 0 01.142-.233c.098-.156.243-.378.433-.645.382-.535.949-1.255 1.694-2.002 1.485-1.488 3.711-3.115 6.613-3.544 2.99-.443 5.953 1.41 8.088 3.236a26.782 26.782 0 013.559 3.723l.052.067.013.018.004.005.002.002zm-.401.3l.089.491.795-.144-.483-.647-.401.3z" fill="#000"/><path d="M200.978 49.212a22.663 22.663 0 00-12.449-2.543l12.449 2.544z" fill="#9BE69E"/><path fill-rule="evenodd" clip-rule="evenodd" d="M188.488 46.171a23.162 23.162 0 0112.723 2.6l-.466.884a22.164 22.164 0 00-12.175-2.487l-.082-.997z" fill="#000"/><path d="M200.669 30.93s-9.597-.175-12.305 4.671c-2.709 4.846-.326 10.524-.326 10.524s.672-1.066 4.799-4.595c4.126-3.53 7.832-10.6 7.832-10.6z" fill="#9BE69E"/><path fill-rule="evenodd" clip-rule="evenodd" d="M200.677 30.43l-.008.5.442.233-.003.006-.008.016-.033.062c-.029.054-.071.133-.127.234a59.311 59.311 0 01-2.221 3.699c-1.449 2.218-3.438 4.917-5.557 6.73-2.056 1.758-3.243 2.896-3.912 3.589-.335.346-.539.58-.656.722-.059.071-.095.12-.116.147a.312.312 0 00-.018.027h-.001l-.51.81-.372-.886.461-.194-.461.194-.001-.002-.002-.005-.006-.015a10.282 10.282 0 01-.097-.254 13.472 13.472 0 01-.242-.738 16.264 16.264 0 01-.54-2.561c-.264-2.084-.188-4.836 1.238-7.387 1.471-2.631 4.752-3.833 7.504-4.398a26.937 26.937 0 015.215-.529h.031zm-12.456 14.701c.09-.098.193-.206.309-.327.698-.723 1.91-1.883 3.982-3.654 2.007-1.717 3.934-4.318 5.369-6.517a57.113 57.113 0 001.71-2.791l.226-.397a25.926 25.926 0 00-4.185.494c-2.723.558-5.594 1.69-6.832 3.906-1.283 2.295-1.369 4.806-1.119 6.773.125.98.331 1.814.506 2.402l.034.111zm12.448-14.2l.442.232.376-.717-.81-.015-.008.5z" fill="#000"/><path d="M200.669 30.93a22.625 22.625 0 00-9.64 8.27l9.64-8.27z" fill="#9BE69E"/><path fill-rule="evenodd" clip-rule="evenodd" d="M190.61 38.927a23.124 23.124 0 019.853-8.452l.412.912a22.126 22.126 0 00-9.427 8.086l-.838-.546z" fill="#000"/><path d="M187.602 22.992s-6.979-6.552-12.263-4.798c-5.283 1.754-7.304 7.586-7.304 7.586s1.216-.346 6.649-.18c5.432.164 12.918-2.608 12.918-2.608z" fill="#9BE69E"/><path fill-rule="evenodd" clip-rule="evenodd" d="M187.944 22.627l-.342.365.173.47h-.002l-.004.001-.017.007-.066.024-.251.089a57.763 57.763 0 01-4.128 1.258c-2.562.676-5.848 1.343-8.639 1.258-2.706-.082-4.351-.037-5.313.028-.48.032-.788.069-.971.096a3.479 3.479 0 00-.215.04l.001-.001h-.004.003-.001l-.92.263.315-.908.472.163.137.482-.137-.482.472.164.001-.001.004-.01a12.395 12.395 0 01.322-.768c.134-.013.285-.025.454-.036 1.004-.067 2.684-.113 5.411-.03 2.642.08 5.814-.555 8.353-1.225a56.924 56.924 0 003.574-1.07 25.848 25.848 0 00-3.428-2.437c-2.392-1.412-5.284-2.501-7.701-1.699-2.501.83-4.249 2.634-5.381 4.262a15.167 15.167 0 00-1.282 2.235m18.768-2.173l.173.469.758-.28-.589-.553-.342.364zm.342-.365h-.001zm-.001 0l-.001-.001zm-.001-.001l-.005-.005zm-.005-.005l-.016-.015zm-.016-.015l-.063-.057zm-.063-.057c-.055-.05-.135-.122-.238-.212zm-.238-.212a24.71 24.71 0 00-.88-.732zm-.88-.732a26.891 26.891 0 00-3.034-2.1zm-3.034-2.1c-2.419-1.427-5.658-2.737-8.524-1.786zm-8.524-1.786c-2.783.924-4.687 2.914-5.887 4.64zm-5.887 4.64a16.149 16.149 0 00-1.314 2.269zm-1.314 2.269c-.14.297-.244.54-.313.712zm-.313.712c-.034.085-.06.153-.077.2zm-.077.2l-.021.055zm-.021.055l-.005.015zm-.005.015l-.002.004zm-.002.004v.002zm0 .002zm0 0l.472.165z" fill="#000"/><path d="M187.601 22.992a22.647 22.647 0 00-12.699-.336l12.699.336z" fill="#9BE69E"/><path fill-rule="evenodd" clip-rule="evenodd" d="M174.774 22.173a23.149 23.149 0 0112.98.343l-.305.952a22.15 22.15 0 00-12.42-.328l-.255-.967z" fill="#000"/><path d="M192.272 25.535s-9.56-.533-12.465 4.223c-2.906 4.756-.709 10.503-.709 10.503s.709-1.067 4.974-4.415c4.265-3.348 8.2-10.31 8.2-10.31z" fill="#9BE69E"/><path fill-rule="evenodd" clip-rule="evenodd" d="M192.299 25.036l-.027.5.435.245-.003.006-.01.016-.034.06-.135.232a57.115 57.115 0 01-2.345 3.628c-1.523 2.169-3.607 4.796-5.799 6.517-2.124 1.667-3.354 2.76-4.049 3.429-.347.335-.559.562-.681.702-.061.07-.099.117-.12.144l-.019.026-.002.002.002-.002-.535.804-.347-.906.467-.178.416.277-.416-.277.468-.178-.001-.002-.004-.01a12.83 12.83 0 01-.248-.8c.095-.096.203-.203.326-.322.726-.7 1.984-1.815 4.125-3.496 2.073-1.627 4.089-4.156 5.599-6.305a56.917 56.917 0 001.803-2.735l.241-.396a25.783 25.783 0 00-4.195.339c-2.737.459-5.649 1.487-6.978 3.662-1.376 2.253-1.553 4.757-1.373 6.73.09.982.268 1.821.423 2.414l.029.109c-.184.187-.318.333-.414.442a4.994 4.994 0 00-.157.189l-.04.053-.012.017-.004.007-.002.003h-.001c0 .001-.001.002.415.279l-.467.178v-.002l-.002-.005-.006-.015-.02-.054c-.016-.047-.04-.116-.068-.203a12.368 12.368 0 01-.218-.745 15.942 15.942 0 01-.451-2.577c-.192-2.09-.015-4.837 1.515-7.34 1.576-2.581 4.897-3.664 7.666-4.128a26.796 26.796 0 015.222-.335h.029l.002.001zm-.027.5l.435.245.396-.7-.804-.045-.027.5z" fill="#000"/><path d="M192.272 25.535a22.67 22.67 0 00-9.938 7.918l9.938-7.918z" fill="#9BE69E"/><path fill-rule="evenodd" clip-rule="evenodd" d="M181.926 33.164a23.165 23.165 0 0110.157-8.091l.379.925a22.162 22.162 0 00-9.719 7.743l-.817-.577z" fill="#000"/><path d="M194.65 26.132s2.036-9.351-2.181-12.976c-4.217-3.626-10.258-2.383-10.258-2.383s.917.869 3.562 5.614c2.644 4.744 8.877 9.745 8.877 9.745z" fill="#9BE69E"/><path fill-rule="evenodd" clip-rule="evenodd" d="M185.794 10.106c2.096.146 4.78.762 7.001 2.67 2.288 1.967 2.828 5.418 2.846 8.224a26.755 26.755 0 01-.244 3.681 24.11 24.11 0 01-.176 1.131c-.024.135-.045.24-.059.313l-.017.083-.005.022-.001.006-.001.002-.488-.106-.314.39-.005-.004-.014-.011-.054-.045a44.147 44.147 0 01-.956-.808 56.807 56.807 0 01-2.453-2.257c-1.898-1.852-4.16-4.33-5.518-6.767-1.317-2.363-2.199-3.752-2.747-4.546a12.451 12.451 0 00-.58-.785 4.14 4.14 0 00-.144-.166h-.001l-.693-.657.94-.193.1.49-.1-.49h.002l.005-.002.016-.003.057-.01a13.216 13.216 0 01.983-.13 16.129 16.129 0 012.62-.032zm-2.645 1.039c.079.108.166.231.263.37.571.828 1.47 2.246 2.797 4.628 1.286 2.307 3.463 4.703 5.343 6.538a57.03 57.03 0 002.41 2.218l.349.3a25.828 25.828 0 00.33-4.192c-.018-2.775-.569-5.814-2.498-7.472-1.997-1.717-4.441-2.293-6.419-2.432a15.142 15.142 0 00-2.575.042zm11.501 14.987l-.314.39.63.506.172-.79-.488-.106z" fill="#000"/><path d="M194.649 26.132a22.654 22.654 0 00-6.232-11.068l6.232 11.068z" fill="#9BE69E"/><path fill-rule="evenodd" clip-rule="evenodd" d="M188.766 14.707a23.151 23.151 0 016.37 11.312l-.974.227a22.159 22.159 0 00-6.095-10.824l.699-.715zm33.033 17.771a1 1 0 01-.834 1.142c-6.348.987-11.063 3.311-14.184 5.38a28.125 28.125 0 00-3.49 2.709c-.383.352-.667.639-.853.833l-.204.22-.046.053-.01.011m0 0a1 1 0 01-1.526-1.292l.763.646a68.178 68.178 0 01-.762-.647l.002-.003.006-.007.019-.021a13.732 13.732 0 01.31-.338c.214-.225.529-.543.947-.927a30.11 30.11 0 013.739-2.905c3.321-2.2 8.304-4.65 14.981-5.689a1 1 0 011.142.835" fill="#000"/><path d="M201.639 41.647s9.57-.176 12.299 4.67c2.73 4.847.326 10.525.326 10.525s-.672-1.066-4.799-4.59c-4.126-3.525-7.826-10.605-7.826-10.605z" fill="#9BE69E"/><path fill-rule="evenodd" clip-rule="evenodd" d="M201.639 41.647l-.443.232.003.006.008.016.033.062.127.234a58.146 58.146 0 002.219 3.703c1.447 2.221 3.435 4.922 5.555 6.732 2.055 1.755 3.242 2.892 3.912 3.584.334.346.538.58.655.722.059.071.095.12.116.147l.019.026v.001l.508.806.373-.881-.46-.195.46.195.001-.002.002-.005.006-.015.022-.054c.018-.047.045-.114.076-.2.064-.174.15-.424.245-.738.189-.628.411-1.517.545-2.562.267-2.084.191-4.837-1.247-7.389-1.481-2.63-4.759-3.832-7.508-4.397a26.846 26.846 0 00-5.205-.528h-.03l.008.5zm.851.514c.067.121.143.254.226.4a57.27 57.27 0 001.708 2.794c1.434 2.2 3.359 4.802 5.366 6.516 2.071 1.77 3.284 2.928 3.982 3.65.117.121.221.23.311.329l.035-.115a15.11 15.11 0 00.511-2.402c.252-1.966.166-4.476-1.126-6.77-1.249-2.217-4.12-3.35-6.839-3.908a25.822 25.822 0 00-4.174-.494zm-.851-.514l-.008-.5-.81.015.375.717.443-.232z" fill="#000"/><path d="M201.639 41.647a22.643 22.643 0 019.639 8.275l-9.639-8.275z" fill="#9BE69E"/><path fill-rule="evenodd" clip-rule="evenodd" d="M210.859 50.194a22.143 22.143 0 00-9.426-8.091l.412-.912a23.143 23.143 0 019.852 8.458l-.838.545z" fill="#000"/><path d="M214.733 33.698s6.979-6.553 12.263-4.799c5.283 1.754 7.299 7.587 7.299 7.587s-1.216-.346-6.643-.181c-5.428.165-12.919-2.607-12.919-2.607z" fill="#9BE69E"/><path fill-rule="evenodd" clip-rule="evenodd" d="M214.733 33.698l-.174.469-.757-.28.589-.554.342.365zm19.561 2.788l.473-.163.313.907-.918-.262h-.001l-.032-.007a3.294 3.294 0 00-.184-.032c-.183-.028-.49-.064-.971-.097-.961-.064-2.605-.11-5.308-.027-2.788.084-6.074-.583-8.637-1.258a57.939 57.939 0 01-4.129-1.259 25.011 25.011 0 01-.251-.089l-.066-.024-.017-.006-.007-.002.174-.47-.342-.364.002-.002.004-.004.017-.015.063-.058a25.337 25.337 0 011.117-.944 26.995 26.995 0 013.035-2.1c2.419-1.427 5.658-2.737 8.524-1.785 2.782.924 4.686 2.914 5.884 4.64a16.112 16.112 0 011.312 2.269c.14.297.243.54.312.712.035.085.06.153.078.2l.02.055.005.015.002.004.001.003-.473.163zm-.798-.616a15.14 15.14 0 00-1.281-2.235c-1.13-1.628-2.876-3.43-5.377-4.261-2.418-.803-5.31.287-7.701 1.698a25.836 25.836 0 00-3.429 2.437l.436.144c.78.255 1.876.594 3.14.927 2.54.67 5.713 1.305 8.352 1.225 2.724-.083 4.402-.038 5.405.03.17.011.321.023.455.035z" fill="#000"/><path d="M214.733 33.698a22.638 22.638 0 0112.7-.336l-12.7.336z" fill="#9BE69E"/><path fill-rule="evenodd" clip-rule="evenodd" d="M227.305 33.845a22.138 22.138 0 00-12.419.329l-.306-.952a23.138 23.138 0 0112.98-.344l-.255.967z" fill="#000"/><path d="M210.036 36.257s9.559-.533 12.465 4.217c2.906 4.75.704 10.503.704 10.503s-.709-1.066-4.969-4.414c-4.26-3.349-8.2-10.306-8.2-10.306z" fill="#9BE69E"/><path fill-rule="evenodd" clip-rule="evenodd" d="M210.036 36.257l-.435.246.003.006.009.016.035.06.135.231a57.91 57.91 0 002.346 3.625c1.525 2.168 3.609 4.794 5.798 6.515 2.121 1.667 3.349 2.76 4.043 3.43.347.334.559.561.681.701a3.117 3.117 0 01.139.17l.535.804.347-.905-.467-.179.467.179.001-.003.001-.004.006-.015.02-.055.069-.203a13.2 13.2 0 00.218-.745c.166-.634.357-1.53.453-2.578.193-2.091.017-4.839-1.512-7.34-1.577-2.577-4.898-3.659-7.667-4.122a26.813 26.813 0 00-5.221-.335l-.023.001h-.008l.027.5zm.866.482c.072.12.153.251.241.394a57.073 57.073 0 001.804 2.734c1.511 2.148 3.527 4.675 5.598 6.303 2.139 1.68 3.394 2.795 4.12 3.496.123.118.231.225.325.321l.03-.11c.155-.593.334-1.433.425-2.416.181-1.972.005-4.477-1.371-6.726-1.329-2.173-4.24-3.2-6.978-3.658a25.82 25.82 0 00-4.194-.338zm-.866-.482l-.027-.5-.805.046.397.7.435-.246z" fill="#000"/><path d="M210.036 36.257a22.631 22.631 0 019.933 7.912l-9.933-7.912z" fill="#9BE69E"/><path fill-rule="evenodd" clip-rule="evenodd" d="M219.56 44.457a22.127 22.127 0 00-9.713-7.737l.379-.926a23.13 23.13 0 0110.152 8.087l-.818.576z" fill="#000"/><path d="M207.659 36.849s-2.042-9.352 2.18-12.977c4.223-3.625 10.285-2.373 10.285-2.373s-.923.87-3.567 5.614c-2.645 4.745-8.898 9.736-8.898 9.736z" fill="#9BE69E"/><path fill-rule="evenodd" clip-rule="evenodd" d="M216.599 21.825c-1.984.136-4.435.71-6.434 2.426-1.932 1.659-2.482 4.697-2.5 7.472a25.968 25.968 0 00.332 4.195 56.753 56.753 0 002.771-2.516c1.885-1.833 4.067-4.225 5.352-6.532 1.327-2.382 2.228-3.8 2.801-4.628.097-.14.185-.263.264-.372l-.122-.012c-.614-.059-1.475-.1-2.464-.033zm3.525-.326l.101-.49.941.195-.696.656h.001m-12.812 14.989l-.489.106v-.002l-.002-.006-.004-.023-.017-.083a25.266 25.266 0 01-.237-1.444 26.897 26.897 0 01-.245-3.68c.018-2.807.558-6.258 2.848-8.224 2.224-1.91 4.915-2.522 7.018-2.666a16.2 16.2 0 012.627.035 13.36 13.36 0 01.986.132l.058.011.016.003.004.001h.003l-.101.49" fill="#000"/><path d="M207.658 36.849a22.656 22.656 0 016.233-11.068l-6.233 11.068z" fill="#9BE69E"/><path fill-rule="evenodd" clip-rule="evenodd" d="M214.24 26.138a22.158 22.158 0 00-6.095 10.824l-.974-.227a23.167 23.167 0 016.37-11.312l.699.715zm7.202-12.416a1 1 0 01-.834 1.142c-6.348.987-11.062 3.313-14.184 5.382a28.007 28.007 0 00-3.489 2.711 17.626 17.626 0 00-1.057 1.055 2.28 2.28 0 00-.047.052l-.009.011h-.001v.001l-.763-.647-.763-.646a1 1 0 001.526 1.293m-.763-.647l-.763-.646.001-.001.002-.003.006-.006.019-.022.065-.074a20.069 20.069 0 011.192-1.191 30.121 30.121 0 013.739-2.907c3.321-2.202 8.304-4.653 14.981-5.692a1 1 0 011.142.835" fill="#000"/><path d="M201.282 22.891s9.57-.176 12.299 4.67c2.73 4.847.326 10.525.326 10.525s-.672-1.067-4.799-4.59c-4.126-3.525-7.826-10.605-7.826-10.605z" fill="#9BE69E"/><path fill-rule="evenodd" clip-rule="evenodd" d="M201.282 22.891l-.443.232.003.006.009.016.032.062.127.234a58.146 58.146 0 002.219 3.703c1.447 2.221 3.435 4.921 5.555 6.732 2.055 1.755 3.242 2.891 3.912 3.584.334.346.538.579.655.722.059.07.095.119.116.147l.019.026v.001l.508.806.373-.881-.46-.195.46.195.001-.003.002-.004.006-.015a13.043 13.043 0 00.343-.992c.189-.628.411-1.517.545-2.562.267-2.085.191-4.837-1.247-7.389-1.481-2.63-4.759-3.832-7.508-4.397a26.864 26.864 0 00-5.205-.528h-.03l.008.5zm.851.514l.226.399c.407.713.994 1.7 1.708 2.795 1.434 2.2 3.359 4.802 5.366 6.516 2.071 1.769 3.284 2.928 3.982 3.65.117.121.221.23.311.329l.035-.115a15.12 15.12 0 00.511-2.402c.252-1.966.166-4.476-1.126-6.77-1.249-2.217-4.12-3.35-6.838-3.908a25.874 25.874 0 00-4.175-.494zm-.851-.514l-.008-.5-.81.015.375.717.443-.232z" fill="#000"/><path d="M201.282 22.89a22.643 22.643 0 019.639 8.275l-9.639-8.274z" fill="#9BE69E"/><path fill-rule="evenodd" clip-rule="evenodd" d="M210.502 31.438a22.143 22.143 0 00-9.426-8.091l.412-.912a23.143 23.143 0 019.852 8.458l-.838.545z" fill="#000"/><path d="M201.49 22.598s-5.785-7.63-3.476-12.695c2.308-5.064 8.312-6.456 8.312-6.456s-.47 1.173-.875 6.59c-.405 5.416-3.961 12.56-3.961 12.56z" fill="#9BE69E"/><path fill-rule="evenodd" clip-rule="evenodd" d="M206.326 3.447l-.114-.487h-.002l-.004.002-.016.003-.057.015a13.249 13.249 0 00-.947.292c-.618.216-1.467.56-2.391 1.066-1.842 1.01-4.021 2.691-5.236 5.358-1.253 2.748-.292 6.106.872 8.661a26.783 26.783 0 002.406 4.19c.079.113.142.2.185.26l.051.068.013.018.004.005.001.001.399-.301-.399.301.488.643.359-.722-.448-.222.448.223.003-.007.008-.016.031-.063.115-.24a57.24 57.24 0 001.691-3.968c.944-2.475 1.956-5.67 2.164-8.453.202-2.698.419-4.328.583-5.278.082-.475.151-.777.197-.956.023-.09.041-.147.051-.18l.01-.03.001-.002.353-.884-.933.216.114.487zm-4.921 18.163c.059-.126.122-.266.191-.418.337-.748.79-1.801 1.256-3.022.935-2.452 1.904-5.537 2.101-8.17.203-2.72.423-4.384.595-5.375.029-.168.057-.317.083-.449l-.114.04c-.579.202-1.376.524-2.241.998-1.737.953-3.714 2.499-4.807 4.897-1.056 2.317-.279 5.306.872 7.832a25.893 25.893 0 002.064 3.667z" fill="#000"/><path d="M201.49 22.598a22.663 22.663 0 011.002-12.663l-1.002 12.663z" fill="#9BE69E"/><path fill-rule="evenodd" clip-rule="evenodd" d="M202.96 10.113a22.15 22.15 0 00-.98 12.383l-.979.204a23.156 23.156 0 011.024-12.942l.935.355z" fill="#000"/><path d="M214.376 14.952s6.979-6.552 12.262-4.798c5.284 1.754 7.294 7.592 7.294 7.592s-1.216-.346-6.643-.181c-5.428.165-12.913-2.613-12.913-2.613z" fill="#9BE69E"/><path fill-rule="evenodd" clip-rule="evenodd" d="M214.376 14.952l-.174.47-.757-.282.589-.552.342.364zm19.556 2.794l.473-.163.312.907-.918-.262h-.001a3.479 3.479 0 00-.215-.039 12.178 12.178 0 00-.971-.097c-.961-.064-2.605-.11-5.308-.027-2.788.084-6.073-.584-8.635-1.261a57.665 57.665 0 01-4.126-1.26l-.252-.09-.065-.024-.018-.006-.006-.003.174-.469-.342-.364.002-.002.004-.004.017-.016.063-.057a25.337 25.337 0 011.117-.944 27.007 27.007 0 013.035-2.1c2.419-1.427 5.658-2.737 8.524-1.786 2.783.924 4.684 2.916 5.881 4.644.601.867 1.03 1.676 1.31 2.27.141.297.244.542.312.713.035.086.06.153.078.2l.02.055.005.015.002.005.001.002-.473.163zm-.797-.616l-.052-.11a15.007 15.007 0 00-1.228-2.127c-1.128-1.63-2.873-3.434-5.374-4.264-2.418-.803-5.31.286-7.701 1.697a25.848 25.848 0 00-3.429 2.438l.435.145c.78.255 1.875.594 3.139.928 2.538.67 5.709 1.308 8.349 1.228 2.724-.083 4.402-.038 5.405.03.171.011.322.023.456.035z" fill="#000"/><path d="M214.376 14.952a22.695 22.695 0 0112.678-.335l-12.678.335z" fill="#9BE69E"/><path fill-rule="evenodd" clip-rule="evenodd" d="M226.927 15.1a22.197 22.197 0 00-12.399.329l-.304-.953a23.194 23.194 0 0112.957-.343l-.254.967z" fill="#000"/><path d="M209.679 17.5s9.56-.532 12.465 4.218c2.906 4.75.704 10.503.704 10.503s-.709-1.066-4.969-4.409c-4.26-3.343-8.2-10.311-8.2-10.311z" fill="#9BE69E"/><path fill-rule="evenodd" clip-rule="evenodd" d="M209.679 17.5l-.435.247.003.006.009.016.035.06.135.232a57.865 57.865 0 002.346 3.63c1.525 2.169 3.609 4.796 5.798 6.514 2.121 1.665 3.35 2.756 4.044 3.425.346.335.558.562.68.701a3.09 3.09 0 01.139.17l.535.804.347-.905-.467-.179.467.179.001-.002.001-.005.006-.015.02-.055.069-.203a13.2 13.2 0 00.218-.745c.166-.634.357-1.53.453-2.578.193-2.091.017-4.839-1.513-7.34-1.576-2.577-4.897-3.659-7.666-4.122a26.832 26.832 0 00-5.221-.335l-.023.001h-.008l.027.5zm.865.483l.243.396a56.18 56.18 0 001.804 2.736c1.51 2.15 3.526 4.679 5.596 6.304 2.139 1.678 3.395 2.792 4.121 3.491.123.119.231.226.325.322l.03-.11c.155-.594.334-1.434.425-2.417.181-1.972.005-4.477-1.371-6.726-1.329-2.173-4.24-3.2-6.978-3.658a25.804 25.804 0 00-4.195-.338zm-.865-.482l-.027-.5-.804.046.396.7.435-.246zm12.756 15.002l-.002-.002z" fill="#000"/><path d="M209.679 17.5a22.658 22.658 0 019.911 7.918l-9.911-7.917z" fill="#9BE69E"/><path fill-rule="evenodd" clip-rule="evenodd" d="M219.181 25.706a22.162 22.162 0 00-9.692-7.743l.38-.925a23.16 23.16 0 0110.13 8.092l-.818.576z" fill="#000"/><path d="M207.328 18.098s-2.069-9.357 2.133-12.982c4.201-3.626 10.279-2.34 10.279-2.34s-.923.863-3.567 5.608c-2.644 4.745-8.845 9.714-8.845 9.714z" fill="#9BE69E"/><path fill-rule="evenodd" clip-rule="evenodd" d="M216.208 3.085c-1.986.128-4.434.695-6.421 2.41-1.921 1.657-2.46 4.696-2.468 7.473a25.951 25.951 0 00.345 4.2l.347-.298a56.265 56.265 0 002.399-2.208c1.872-1.826 4.04-4.214 5.326-6.521 1.328-2.382 2.228-3.8 2.801-4.626.098-.14.186-.264.265-.373a15.17 15.17 0 00-2.594-.057zm3.532-.31l.103-.489.939.199-.697.652-.023.024a3.81 3.81 0 00-.122.141c-.117.143-.307.388-.581.783-.549.792-1.432 2.18-2.749 4.542-1.359 2.438-3.613 4.907-5.502 6.751a57.526 57.526 0 01-3.189 2.882c-.088.073-.157.13-.205.168l-.054.044-.014.012-.005.004-.313-.39" fill="#000"/><path d="M207.328 18.098a22.665 22.665 0 016.206-11.058l-6.206 11.058z" fill="#9BE69E"/><path fill-rule="evenodd" clip-rule="evenodd" d="M213.884 7.397a22.162 22.162 0 00-6.069 10.814l-.974-.226a23.16 23.16 0 016.343-11.302l.7.714z" fill="#000"/><path d="M200.844 32.333s4.202-8.605.965-13.126c-3.236-4.521-9.41-4.74-9.41-4.74s.688 1.066 2.133 6.297c1.445 5.23 6.312 11.569 6.312 11.569z" fill="#9BE69E"/><path fill-rule="evenodd" clip-rule="evenodd" d="M192.417 13.967l-.017.5.017-.5h.008l.016.002.058.003c.05.003.122.007.214.015.184.016.448.043.773.09a16.16 16.16 0 012.557.588c2.004.638 4.469 1.87 6.173 4.25 1.756 2.454 1.461 5.934.811 8.666a26.94 26.94 0 01-1.719 4.943l-.01.02-.003.006-.001.001-.449-.218-.397.304-.001-.001-.003-.004-.011-.014-.042-.056a47.116 47.116 0 01-.738-1.012 58.13 58.13 0 01-1.847-2.776c-1.404-2.248-3.014-5.19-3.756-7.877-.719-2.605-1.248-4.163-1.593-5.064a12.28 12.28 0 00-.378-.902c-.04-.083-.069-.137-.085-.167a.461.461 0 01-.016-.028l-.001-.002-.517-.8.957.034zm8.428 18.366l-.397.304.492.64.354-.726-.449-.218zm-.108-.987a25.99 25.99 0 001.317-3.996c.642-2.702.829-5.784-.651-7.852-1.532-2.14-3.772-3.278-5.664-3.88a15.123 15.123 0 00-2.516-.568c.051.124.107.265.168.425.36.94.898 2.53 1.623 5.156.703 2.543 2.249 5.385 3.64 7.614a57.825 57.825 0 002.083 3.101z" fill="#000"/><path d="M200.845 32.333a22.685 22.685 0 00-3.423-12.236l3.423 12.236z" fill="#9BE69E"/><path fill-rule="evenodd" clip-rule="evenodd" d="M197.847 19.833a23.188 23.188 0 013.498 12.506l-1-.012a22.18 22.18 0 00-3.347-11.966l.849-.528z" fill="#000"/><path opacity=".2" d="M237.015 113.619l-25.812-10.644a4.09 4.09 0 00-5.34 2.221l-22.878 55.479a4.09 4.09 0 002.222 5.34l25.812 10.644a4.09 4.09 0 005.339-2.221l22.879-55.479a4.09 4.09 0 00-2.222-5.34z" fill="#000"/><path d="M238.21 113.616l-25.812-10.644a4.09 4.09 0 00-5.34 2.221l-22.878 55.479a4.089 4.089 0 002.222 5.339l25.812 10.645a4.089 4.089 0 005.339-2.222l22.878-55.479a4.089 4.089 0 00-2.221-5.339z" fill="#fff"/><path fill-rule="evenodd" clip-rule="evenodd" d="M212.207 103.434a3.588 3.588 0 00-4.686 1.95l-22.878 55.479a3.588 3.588 0 001.949 4.686l25.813 10.645a3.59 3.59 0 004.686-1.95l22.878-55.479a3.59 3.59 0 00-1.95-4.687l-25.812-10.644zm-5.611 1.569a4.589 4.589 0 015.992-2.494l25.813 10.645a4.59 4.59 0 012.493 5.992l-22.878 55.479a4.59 4.59 0 01-5.993 2.493l-25.812-10.644a4.59 4.59 0 01-2.493-5.992l22.878-55.479z" fill="#000"/><path d="M237.651 121.488l-30.406-12.538-20.287 49.194 30.406 12.539 20.287-49.195z" fill="#000"/><path fill-rule="evenodd" clip-rule="evenodd" d="M206.783 108.759a.5.5 0 01.653-.272l30.406 12.539a.5.5 0 01.271.653l-20.286 49.195a.5.5 0 01-.653.271l-30.406-12.538a.501.501 0 01-.272-.653l20.287-49.195zm.734.843l-19.906 48.271 29.482 12.157 19.905-48.27-29.481-12.158z" fill="#000"/><path fill-rule="evenodd" clip-rule="evenodd" d="M202.496 146.948a.5.5 0 01-.333.624l-7.991 2.431a.5.5 0 01-.292-.957l7.992-2.431a.499.499 0 01.624.333zm27.713-8.435a.499.499 0 01-.333.624l-25.265 7.688a.5.5 0 11-.292-.957l25.266-7.688a.5.5 0 01.624.333zm-13.04 1.243a.5.5 0 01-.334.624l-1.765.533a.5.5 0 01-.289-.957l1.765-.534a.5.5 0 01.623.334zm-3.929 1.184a.5.5 0 01-.335.623l-15.632 4.713a.5.5 0 11-.288-.957l15.632-4.713a.5.5 0 01.623.334z" fill="#828282"/><path d="M227.167 113.137l-6.611-2.725a.471.471 0 01-.266-.261.494.494 0 01.261-.638.476.476 0 01.372-.002l6.611 2.725a.487.487 0 01.267.64.486.486 0 01-.634.261z" fill="#000"/><path d="M202.806 167.939a1.949 1.949 0 00-1.433-2.653 1.948 1.948 0 00-1.999.836 1.956 1.956 0 00.007 2.167c.215.321.52.57.877.716a1.937 1.937 0 001.495-.004 1.957 1.957 0 001.053-1.062z" fill="#fff"/><path fill-rule="evenodd" clip-rule="evenodd" d="M200.111 165.076a2.303 2.303 0 111.778 4.25 2.303 2.303 0 01-1.778-4.25zm1.195.555a1.603 1.603 0 00-1.638.686 1.597 1.597 0 001.337 2.483 1.613 1.613 0 001.131-.473 1.6 1.6 0 00-.01-2.262 1.602 1.602 0 00-.82-.434z" fill="#000"/><path d="M202.307 166.652l-1.828-.754-.755 1.828 1.829.754.754-1.828z" fill="#000"/><path d="M149.946 72.332L67.617 91.097l25.765 113.039 82.328-18.765-25.764-113.039z" fill="#9BE69E"/><path fill-rule="evenodd" clip-rule="evenodd" d="M67.019 90.72l83.303-18.986 25.987 114.014-83.303 18.987L67.019 90.721zm1.197.754l25.542 112.064 81.354-18.543-25.543-112.064-81.353 18.543z" fill="#000"/><path d="M148.661 75.332L70.075 93.244 94.67 201.147l78.586-17.912-24.594-107.903z" fill="#fff"/><path fill-rule="evenodd" clip-rule="evenodd" d="M69.588 93.355a.5.5 0 01.376-.599l78.586-17.912a.5.5 0 01.598.377l24.595 107.903a.502.502 0 01-.377.599L94.78 201.635a.5.5 0 01-.598-.377L69.588 93.355zm1.086.265l24.372 106.928 77.611-17.689L148.284 75.93l-77.61 17.69z" fill="#000"/><path fill-rule="evenodd" clip-rule="evenodd" d="M145.925 85.361a.5.5 0 01-.364.606l-20.696 5.177a.5.5 0 01-.243-.97l20.697-5.177a.5.5 0 01.606.364zM89.385 99.5a.499.499 0 01-.364.606l-9.394 2.346a.5.5 0 11-.242-.97l9.394-2.346a.5.5 0 01.606.364zm61.839 7.353a.5.5 0 01-.364.606l-3.124.778a.5.5 0 11-.242-.97l3.124-.779a.5.5 0 01.606.365zm-4.856 1.21a.5.5 0 01-.363.606l-12.513 3.13a.5.5 0 01-.243-.97l12.513-3.13a.5.5 0 01.606.364zm-14.576 3.646a.5.5 0 01-.364.607l-5.204 1.301a.5.5 0 01-.242-.971l5.203-1.3a.5.5 0 01.607.363zm-7.518 1.877a.5.5 0 01-.364.606l-12.427 3.109a.5.5 0 01-.243-.97l12.428-3.109a.5.5 0 01.606.364zm-14.613 3.657a.5.5 0 01-.364.607l-7.309 1.828a.5.5 0 01-.243-.97l7.309-1.829a.5.5 0 01.607.364zm-9.624 2.405a.5.5 0 01-.364.606l-14.746 3.69a.5.5 0 01-.243-.971l14.747-3.689a.5.5 0 01.606.364zm53.837-6.323a.5.5 0 01-.364.606l-10.657 2.666a.5.5 0 01-.243-.97l10.658-2.666a.5.5 0 01.606.364zm-13.094 3.273a.499.499 0 01-.363.606l-19.657 4.916a.5.5 0 01-.243-.97l19.657-4.916a.5.5 0 01.606.364zm-23.208 5.806a.5.5 0 01-.363.607l-11.522 2.879a.5.5 0 11-.242-.971l11.521-2.879a.5.5 0 01.606.364zm-13.627 3.407a.5.5 0 01-.364.606l-16.01 3.999a.5.5 0 11-.243-.97l16.011-3.999a.5.5 0 01.606.364zm51.108-5.422a.5.5 0 01-.364.606l-6.84 1.712a.5.5 0 01-.243-.971l6.841-1.711a.5.5 0 01.606.364zm-8.989 2.25a.5.5 0 01-.364.606l-16.682 4.169a.5.5 0 11-.243-.97l16.683-4.169a.5.5 0 01.606.364zm-18.255 4.563a.5.5 0 01-.364.607l-2.681.672a.5.5 0 01-.243-.97l2.681-.672a.5.5 0 01.607.363zm-4.58 1.147a.5.5 0 01-.364.606l-10.78 2.693a.5.5 0 11-.242-.97l10.78-2.693a.5.5 0 01.606.364zm-12.47 3.113a.5.5 0 01-.364.607l-17.839 4.462a.5.5 0 01-.243-.97l17.839-4.463a.5.5 0 01.607.364zm-19.406 4.858a.5.5 0 01-.366.606l-2.239.554a.5.5 0 11-.24-.97l2.24-.555a.5.5 0 01.605.365zm65.171-9.16a.5.5 0 01-.364.606l-14.272 3.572a.5.5 0 01-.243-.97l14.273-3.572a.5.5 0 01.606.364zm-16.831 4.212a.5.5 0 01-.364.606l-21.267 5.316a.5.5 0 01-.243-.971l21.268-5.315a.5.5 0 01.606.364zm-23.496 5.869a.5.5 0 01-.363.607l-3.717.933a.5.5 0 01-.243-.97l3.716-.933a.5.5 0 01.607.363zm-6.611 1.654a.5.5 0 01-.364.606l-19.001 4.75a.5.5 0 01-.243-.97l19.002-4.75a.5.5 0 01.606.364zm20.152 2.099a.5.5 0 01-.362.607l-2.16.544a.5.5 0 01-.244-.97l2.159-.543a.5.5 0 01.607.362zm-4.307 1.078a.5.5 0 01-.364.606l-15.36 3.844a.5.5 0 11-.242-.97l15.36-3.844a.5.5 0 01.606.364zm-17.839 4.462a.5.5 0 01-.364.607l-15.535 3.881a.5.5 0 11-.243-.97l15.536-3.882a.5.5 0 01.606.364z" fill="#000"/><path opacity=".2" d="M181.076 184.696c-.581-6.958-4.926-22.606-10.722-24.637-3.588-1.253-12.651 2.564-19.033 5.662a82.52 82.52 0 00.901-4.708l-17.775-18.553.25 2.404 6.35 16.698s-2.484 2.757-1.935 3.732c.549.976 4.142 1.653 4.142 1.653s-1.103.277-.415 2.069a14.813 14.813 0 002.207 3.588l.192-.085c.363.391.761.747 1.189 1.066 3.476 2.612 4.217 2.724 4.217 2.724s1.45-.293 2.031 7.246c.581 7.538-1.743 10.13 2.026 14.779 3.769 4.649 31.589 36.254 31.589 36.254s-4.633-42.935-5.214-49.892z" fill="#000"/><path d="M150.372 147.839s-3.418 3.732-6.211 5.588c-2.794 1.855-4.74 4.323-2.17 5.582 1.54.757 3.732-.31 3.732-.31s-3.412.933-4.031 4.036c-.618 3.103 6.206 1.861 6.206 1.861s-4.969 3.418-3.412 4.66c1.557 1.242 4.654.309 6.206.309 1.551 0 9.308-4.969 11.196-4.969 1.887 0 5.587 4.036 5.587 7.139 0 3.103 4.964 2.794 5.582-6.824.619-9.618-1.861-17.696-5.896-20.18-4.036-2.484-16.789 3.108-16.789 3.108z" fill="#fff"/><path fill-rule="evenodd" clip-rule="evenodd" d="M162.785 143.671c1.782-.177 3.48-.079 4.638.634 2.172 1.337 3.85 4.119 4.911 7.699 1.066 3.598 1.535 8.082 1.222 12.939-.312 4.857-1.727 7.54-3.241 8.564-.767.519-1.609.633-2.293.263-.679-.368-1.047-1.131-1.047-2.035 0-1.381-.84-3.054-1.97-4.414-.558-.67-1.165-1.239-1.734-1.636-.585-.408-1.066-.589-1.383-.589-.149 0-.411.054-.797.186-.374.129-.821.315-1.322.545-1.003.459-2.187 1.074-3.373 1.696l-.348.183a97.41 97.41 0 01-3.002 1.534 17.14 17.14 0 01-1.33.58c-.366.136-.732.245-1.024.245-.35 0-.802.053-1.342.122l-.136.018c-.493.063-1.041.133-1.59.17-1.168.078-2.51.022-3.45-.728a1.247 1.247 0 01-.487-.917c-.021-.334.084-.661.228-.95.286-.574.813-1.166 1.346-1.68.294-.283.601-.553.892-.796-.5.034-1.059.051-1.613.025-.834-.04-1.729-.179-2.389-.561-.34-.196-.638-.469-.82-.844-.183-.378-.224-.812-.129-1.286.253-1.272.928-2.208 1.663-2.878a3.23 3.23 0 01-1.094-.302c-.72-.353-1.207-.832-1.396-1.444-.187-.606-.047-1.23.244-1.8.575-1.124 1.849-2.263 3.265-3.204 1.357-.901 2.883-2.272 4.082-3.432a57.95 57.95 0 001.889-1.916l.111-.12.028-.031.009-.009.369.337.369.338-.003.003-.008.009-.03.032a.9.9 0 01-.033.035l-.082.089c-.101.107-.247.262-.43.453-.367.382-.886.911-1.493 1.498-1.209 1.17-2.788 2.593-4.225 3.547-1.377.915-2.473 1.937-2.927 2.826-.223.436-.263.781-.179 1.05.081.263.314.564.88.841.613.301 1.405.255 2.111.091.152-.036.297-.076.429-.116a7.241 7.241 0 01.789-.303l.035-.01.01-.003.004-.001.001-.001.133.482.218.45-.001.001-.002.001-.007.003-.023.011a5.6 5.6 0 01-.372.156 7.39 7.39 0 01-.426.149 6.738 6.738 0 00-.893.5c-.866.578-1.76 1.488-2.034 2.863-.06.301-.023.507.048.655.074.151.207.291.42.414.446.258 1.141.39 1.936.428a14.79 14.79 0 002.201-.085c.307-.034.564-.069.744-.096l.207-.033.053-.009.013-.002.003-.001a.5.5 0 01.374.904l-.003.002-.01.006-.039.028-.15.107c-.129.093-.313.228-.529.395-.434.333-.99.787-1.496 1.274-.514.496-.938.991-1.145 1.407-.103.206-.131.35-.125.441.004.068.026.127.113.197.616.492 1.602.59 2.759.512.517-.034 1.035-.101 1.533-.165l.133-.017c.526-.067 1.043-.13 1.469-.13.095 0 .311-.047.674-.182.344-.128.767-.315 1.249-.546a93.54 93.54 0 002.97-1.517l.347-.182c1.182-.62 2.389-1.248 3.42-1.72.516-.236.996-.438 1.414-.581.405-.139.799-.241 1.122-.241.626 0 1.316.323 1.955.769.656.457 1.327 1.091 1.931 1.817 1.192 1.434 2.201 3.331 2.201 5.053 0 .647.253 1.009.523 1.155.267.145.705.162 1.256-.211 1.122-.759 2.498-3.04 2.804-7.8.306-4.761-.156-9.125-1.183-12.591-1.033-3.485-2.613-5.984-4.476-7.131-.861-.53-2.27-.664-4.015-.491-1.719.171-3.657.627-5.49 1.167a62.995 62.995 0 00-4.786 1.638 61.321 61.321 0 00-1.895.766l-.046.019m-4.944 10.443l.218.45a.5.5 0 00-.351-.932l.133.482zm4.649-10.86l-.201-.458.01-.004.029-.013a64.659 64.659 0 012.038-.826c1.266-.489 3-1.115 4.864-1.664 1.86-.548 3.866-1.024 5.673-1.203" fill="#000"/><path fill-rule="evenodd" clip-rule="evenodd" d="M161.032 154.245l.012-.002a5.768 5.768 0 01.772-.065 7.63 7.63 0 012.154.278c1.727.475 3.955 1.708 5.839 4.812a.5.5 0 00.855-.519c-2.019-3.326-4.461-4.716-6.429-5.257a8.64 8.64 0 00-2.438-.314 6.6 6.6 0 00-.925.08l-.057.01-.017.004-.005.001h-.002l-.001.001.106.488-.106-.488a.392.392 0 00-.069.02l-12.39 4.628a.499.499 0 10.349.936l12.352-4.613zm.897 6.504h.157c.126.003.316.013.554.042a7.626 7.626 0 011.919.506c1.526.618 3.449 1.936 4.942 4.774a.5.5 0 10.885-.466c-1.609-3.059-3.72-4.534-5.451-5.235a8.653 8.653 0 00-2.173-.572 7.019 7.019 0 00-.655-.049 3.69 3.69 0 00-.237.002h-.015l-.005.001h-.003l.03.499-.031-.499a.443.443 0 00-.051.006l-11.196 1.866a.5.5 0 00.164.986l11.166-1.861z" fill="#000"/><path d="M224.229 229c-6.83-6.541-35.721-31.663-35.993-33.364-.309-1.861-1.551-23.586-1.551-26.695 0-3.108-6.206-10.551-6.206-10.551s-2.548-3.652-3.791-9.858c-1.242-6.205-6.931-8.759-10.044-8.45-3.114.309-11.617 1.237-15.03 3.732-3.412 2.495-6.52 5.588-3.417 6.515 5.155 1.546 13.595-5.331 17.663-.576 1.861 2.176 4.063 11.73 4.377 12.993a3.989 3.989 0 01-1.167 3.604 35.962 35.962 0 01-4.735 3.199s-5.043 1.488-7.219 1.669c-2.175.181-2.175 10.663.182 13.76 2.356 3.098 5.795 17.386 8.69 21.012 2.762 3.465 27.478 40.434 27.478 40.434" fill="#fff"/><path fill-rule="evenodd" clip-rule="evenodd" d="M172.654 141.454c2.06 1.441 3.875 3.737 4.524 6.98a31.408 31.408 0 002.324 7.142c.389.829.739 1.466.99 1.893a14.327 14.327 0 00.373.6l.013.02.004.004.053.064.199.245a64.98 64.98 0 012.859 3.814c.782 1.134 1.571 2.375 2.167 3.537.584 1.141 1.024 2.282 1.024 3.188 0 1.536.31 7.726.659 13.787.175 3.025.359 6.01.519 8.355.158 2.313.289 3.966.363 4.442a.594.594 0 00.039.067c.049.075.125.178.233.311.216.263.533.612.944 1.04.821.854 1.991 1.994 3.417 3.34 2.848 2.693 6.695 6.193 10.75 9.848 2.445 2.204 4.966 4.464 7.389 6.637 5.607 5.027 10.688 9.583 13.078 11.871a.5.5 0 01-.692.722c-2.377-2.276-7.435-6.811-13.033-11.83-2.427-2.176-4.956-4.443-7.412-6.657-4.055-3.655-7.909-7.163-10.767-9.864-1.429-1.35-2.613-2.503-3.451-3.374a19.902 19.902 0 01-.997-1.1 4.614 4.614 0 01-.3-.403 1.147 1.147 0 01-.181-.417m-7.263-37.326c-.41.287-.41.286-.411.286v-.001l-.003-.003-.006-.01-.024-.036a15.97 15.97 0 01-.405-.65 24.12 24.12 0 01-1.033-1.975 32.39 32.39 0 01-2.399-7.37c-.593-2.963-2.244-5.047-4.117-6.357-1.888-1.321-3.972-1.835-5.388-1.694-1.554.154-4.438.461-7.355 1.039-2.944.583-5.821 1.423-7.429 2.599-1.703 1.245-3.27 2.599-4.033 3.722-.39.575-.495.979-.444 1.233.039.197.214.47.908.677 1.163.349 2.554.233 4.11-.115 1.049-.235 2.124-.561 3.221-.894.537-.163 1.08-.328 1.628-.484 1.636-.467 3.298-.853 4.826-.802 1.551.051 2.987.555 4.115 1.873.526.616 1.038 1.694 1.511 2.915.48 1.24.944 2.693 1.357 4.109a128.912 128.912 0 011.513 5.757l.101.416a4.486 4.486 0 01-.139 2.225 4.495 4.495 0 01-1.202 1.891 36.358 36.358 0 01-4.8 3.243.487.487 0 01-.111.047l-.009.002-.043.013-.165.048-.605.172c-.509.143-1.211.335-1.982.534-1.527.393-3.372.821-4.508.916-.054.005-.174.044-.337.293-.161.244-.313.62-.441 1.123-.255 1-.384 2.378-.373 3.869.011 1.487.162 3.06.451 4.444.293 1.398.716 2.546 1.237 3.231.64.84 1.319 2.382 2.014 4.204.618 1.617 1.267 3.511 1.928 5.439l.276.805c.759 2.207 1.53 4.418 2.291 6.302.766 1.899 1.501 3.409 2.174 4.252 1.398 1.753 8.285 11.888 14.799 21.549a5871.968 5871.968 0 0111.637 17.323l1.067 1.595c.001.001.001.001-.332.223l.332-.223a.5.5 0 11-.831.557l.333-.223-.333.223-1.067-1.596c-.681-1.017-1.657-2.475-2.837-4.234-2.361-3.52-5.536-8.249-8.798-13.086-6.534-9.689-13.386-19.771-14.751-21.484-.774-.97-1.555-2.605-2.321-4.502-.772-1.912-1.551-4.146-2.308-6.351l-.277-.806c-.662-1.931-1.305-3.806-1.916-5.406-.702-1.842-1.337-3.248-1.876-3.956-.657-.864-1.117-2.188-1.419-3.632-.305-1.458-.461-3.097-.473-4.641-.011-1.539.12-3.009.404-4.123.141-.553.327-1.05.574-1.425.244-.372.6-.7 1.09-.74 1.038-.087 2.803-.493 4.342-.889a92.807 92.807 0 002.721-.745h.001a35.562 35.562 0 004.6-3.112 3.49 3.49 0 001.009-3.123 128.729 128.729 0 00-1.6-6.119c-.409-1.403-.864-2.825-1.33-4.028-.473-1.222-.934-2.153-1.338-2.626-.906-1.059-2.051-1.479-3.388-1.524-1.36-.045-2.892.3-4.519.765-.512.146-1.036.305-1.564.465-1.118.339-2.256.684-3.341.927-1.603.358-3.2.521-4.615.097-.857-.256-1.458-.718-1.602-1.439-.132-.666.172-1.364.598-1.99.868-1.279 2.561-2.719 4.27-3.968 1.805-1.32 4.885-2.191 7.825-2.773 2.966-.587 5.89-.898 7.45-1.053 1.697-.169 4.015.439 6.06 1.869" fill="#000"/><path d="M133.22 140.887a.284.284 0 01.374-.037l1.498.671a.58.58 0 01.315.617.578.578 0 01-.505.474.571.571 0 01-.455-.152l-1.173-1.146a.288.288 0 01-.07-.4l.016-.027z" fill="#000"/><path fill-rule="evenodd" clip-rule="evenodd" d="M134.483 141.797l.307.3a.094.094 0 00.026.014.07.07 0 00.063-.007.069.069 0 00.023-.022.07.07 0 00.011-.062.08.08 0 00-.036-.047l-.394-.176zm-.65-1.388a.784.784 0 00-.98.139.448.448 0 00-.061.082l-.01.015a.79.79 0 00.163 1.047l1.152 1.125.008.008a1.073 1.073 0 001.621-.176 1.085 1.085 0 00.154-.884 1.075 1.075 0 00-.57-.693l-.014-.007-1.463-.656z" fill="#000"/><path d="M134.543 141.74a1.318 1.318 0 011.711-.181l3.978 2.052 39.042 25.687a3.08 3.08 0 011.353 1.996 3.087 3.087 0 01-4.877 3.069l-37.896-27.953-3.103-2.692a1.303 1.303 0 01-.532-1.359 1.33 1.33 0 01.207-.47.8.8 0 01.117-.149z" fill="#9BE69E"/><path fill-rule="evenodd" clip-rule="evenodd" d="M135.969 141.97a.819.819 0 00-1.061.112l-.011.011a.314.314 0 00-.045.057.815.815 0 00.184 1.158l.043.032 3.087 2.68 37.883 27.943a2.588 2.588 0 102.953-4.245l-.003-.002-39.02-25.672-3.954-2.041a.632.632 0 01-.056-.033zm.541-.842a1.817 1.817 0 00-2.327.265 1.353 1.353 0 00-.176.222 1.806 1.806 0 00-.291 1.344 1.823 1.823 0 00.726 1.153l3.084 2.676.031.025 37.894 27.951.001.001a3.597 3.597 0 002.719.667c.475-.077.93-.249 1.337-.506a3.577 3.577 0 001.6-2.299 3.581 3.581 0 00-1.561-3.747l-.002-.001-39.039-25.685a.335.335 0 00-.045-.027l-3.951-2.039z" fill="#000"/><path d="M179.274 169.298l-11.266-7.416a4.265 4.265 0 00-3.081 3.994c.003.178.018.356.042.533l10.781 7.949a3.085 3.085 0 004.403-4.205 3.09 3.09 0 00-.879-.86v.005z" fill="#000"/><path fill-rule="evenodd" clip-rule="evenodd" d="M167.87 161.402a.495.495 0 01.413.063l11.208 7.377c.018.01.037.02.054.031a3.584 3.584 0 01-.037 6.048 3.592 3.592 0 01-2.765.448 3.586 3.586 0 01-1.291-.61l-.002-.001-10.777-7.947a.5.5 0 01-.199-.333 5.096 5.096 0 01-.047-.592v-.023a4.766 4.766 0 013.443-4.461zm11.185 8.346a.448.448 0 01-.056-.032l-11.066-7.285a3.772 3.772 0 00-2.506 3.446c.002.086.007.172.014.258l10.608 7.822a2.59 2.59 0 002.927.118 2.592 2.592 0 001.16-2.69 2.581 2.581 0 00-1.081-1.637z" fill="#000"/><path d="M165.087 204.374c-12.263-13.862-10.221-21.518-12.087-23.992-1.866-2.473-2.969-4.798-4.83-10.401-1.861-5.604-3.076-10.029-3.076-14.683 0-4.655 3.998-5.46 7.101-.496 3.103 4.964 6.867 12.598 6.867 12.598s2.479 3.103 7.464 2.176" fill="#fff"/><path fill-rule="evenodd" clip-rule="evenodd" d="M147.539 151.94c-1.013.119-1.945 1.138-1.945 3.358 0 4.567 1.191 8.926 3.051 14.525 1.855 5.586 2.938 7.85 4.755 10.258.548.727.786 1.794 1.041 3.044l.082.401c.246 1.215.543 2.68 1.098 4.43 1.233 3.885 3.752 9.204 9.84 16.087a.5.5 0 11-.749.662c-6.174-6.979-8.765-12.419-10.044-16.446-.572-1.804-.879-3.319-1.125-4.534l-.081-.399c-.269-1.315-.476-2.132-.861-2.642-1.915-2.539-3.039-4.925-4.906-10.546-1.862-5.608-3.101-10.099-3.101-14.84 0-2.435 1.067-4.145 2.829-4.351 1.681-.197 3.611 1.054 5.196 3.59 1.562 2.498 3.286 5.661 4.616 8.193a241.355 241.355 0 011.637 3.174l.47.935.125.252.016.033.061.067c.068.072.173.179.316.306a6.64 6.64 0 001.299.897c1.155.613 2.907 1.131 5.276.69a.5.5 0 01.183.983c-2.616.487-4.596-.083-5.928-.79a7.645 7.645 0 01-1.495-1.033 5.707 5.707 0 01-.483-.483.848.848 0 01-.027-.033l-.009-.01-.003-.003-.001-.002.39-.313-.448.221-.043-.086-.124-.249c-.109-.218-.267-.535-.468-.93-.4-.792-.966-1.899-1.629-3.161-1.328-2.526-3.037-5.662-4.579-8.128-1.518-2.428-3.138-3.255-4.232-3.127zm11.523 15.46l-.448.221a.453.453 0 00.058.091l.39-.312z" fill="#000"/><path fill-rule="evenodd" clip-rule="evenodd" d="M158.698 167.046c.19-.2.506-.209.707-.02l-.343.364.343-.364.003.003.008.008.031.029.115.111a48.725 48.725 0 011.808 1.856c1.075 1.166 2.375 2.696 3.203 4.095a.5.5 0 01-.861.509c-.771-1.304-2.012-2.771-3.077-3.926a48.05 48.05 0 00-1.768-1.815l-.111-.107-.029-.027-.007-.007-.001-.001" fill="#000"/><path d="M148.986 153.341l1.034 2.074s-.235 0-1.887.949a6.758 6.758 0 00-2.421 2.336s-1.599-4.463-.181-5.865a2.277 2.277 0 011.29-.672 2.133 2.133 0 012.165 1.178z" fill="#fff"/><path fill-rule="evenodd" clip-rule="evenodd" d="M146.889 152.659a1.765 1.765 0 00-.997.522l-.01.01c-.229.226-.377.623-.423 1.192-.044.557.016 1.2.123 1.825.088.508.205.991.312 1.384a7.247 7.247 0 011.991-1.662m2.219-.022a.497.497 0 00.363-.716l-1.033-2.072a2.63 2.63 0 00-2.69-1.451 2.769 2.769 0 00-1.569.815c-.477.475-.659 1.158-.713 1.819-.054.674.02 1.41.135 2.075a16.312 16.312 0 00.574 2.283l.051.151.014.041.004.011.001.003v.001l.471-.168-.471.168a.501.501 0 00.897.094 6.26 6.26 0 012.241-2.163l.003-.001c.819-.471 1.275-.699 1.518-.808.119-.053.18-.074.204-.082zm-1.118-2.567l-.449.221a1.632 1.632 0 00-1.648-.903m7.525 11.863a.5.5 0 01-.439.555l-.501.058a.5.5 0 01-.116-.993l.501-.059a.501.501 0 01.555.439z" fill="#000"/><path fill-rule="evenodd" clip-rule="evenodd" d="M152.956 164.695a.5.5 0 01-.386.593c-1.63.344-2.458.908-2.873 1.336a1.997 1.997 0 00-.379.527.81.81 0 00-.053.134l-.007.022a.501.501 0 01-.984-.177l.493.084-.493-.085.001-.001v-.002l.001-.005.002-.011a.478.478 0 00.006-.029c.006-.023.013-.052.024-.087.021-.07.054-.162.105-.27.103-.217.276-.498.566-.796.581-.6 1.603-1.243 3.385-1.619a.5.5 0 01.592.386z" fill="#000"/><path fill-rule="evenodd" clip-rule="evenodd" d="M152.643 165.545a.501.501 0 01.314.634l-.474-.16.474.161v.001l-.001.003-.002.005-.004.011-.01.025c-.008.017-.017.037-.029.059a1.167 1.167 0 01-.099.157c-.087.12-.222.268-.428.44-.411.342-1.12.784-2.348 1.277a.5.5 0 01-.372-.929c1.165-.467 1.774-.862 2.081-1.117a1.571 1.571 0 00.278-.288.502.502 0 01.62-.279zm.232-1.886a.498.498 0 01-.415.572 7.404 7.404 0 00-3.111 1.269.5.5 0 01-.578-.816 8.395 8.395 0 013.532-1.44.498.498 0 01.572.415z" fill="#000"/><path opacity=".2" d="M86.453 120.691s-2.175 6.041-3.044 7.491c-.87 1.45-5.508 6.931-6.398 8.403-.89 1.471-2.613 6.088-2.613 6.088l14.08-3.561s-3.934 5.864-6.253 8.775c-2.32 2.911-7.224 8.968-7.224 9.858 0 .89-1.157 4.345-1.157 4.345l6.664 4.927 13.622-4.927 5.502-2.036s-11.014 6.957-14.49 10.433c-3.477 3.476-15.654 10.434-18.842 12.753-3.188 2.319-9.853 3.471-12.454 4.063-2.602.592-25.506 19.134-25.506 19.134l33.055-67.816 9.565-15.941 8.413-6.089-.87 9.56 7.95-5.46z" fill="#000"/><path d="M15.128 220.513l34.794-35.801a45.236 45.236 0 008.658-2.047c5.331-1.733 6.93-2.202 9.447-4.09 2.517-1.887 12.913-7.4 17.317-10.236 4.404-2.837 12.124-5.982 13.542-7.246 1.418-1.263.314-2.831-3.46-3.62-3.775-.789-7.56.16-12.599 2.362-5.038 2.202-10.236 4.095-10.076 2.991.16-1.104 1.103-6.611 2.047-8.498.944-1.888 10.397-12.065 10.551-12.54.155-.474 1.264-.944 3.151-2.666 1.887-1.722 4.884-3.774 5.332-6.771.447-2.996-1.888-1.887-2.831-1.412-.944.474-7.56 3.305-9.293 4.409-1.733 1.103-11.841 11.756-11.841 11.756l7.117-14.929c.91-.82 1.754-1.711 2.522-2.665.944-1.258 6.61-7.4 6.93-8.819a2.34 2.34 0 00-2.83-2.665c-1.733.474-7.176 5.283-8.978 6.611-3.732 2.761-9.762 13.227-9.762 13.227l6.616-12.124s5.038-4.563 6.296-5.982c1.259-1.418 2.778-4.553 1.419-5.981-1.445-1.52-4.575 1.034-6.931 3.46-2.165 2.234-5.332 5.038-5.332 5.038s1.893-2.202 1.419-4.089c-.475-1.888-4.095.783-5.193 1.098-1.099.315-10.551 8.664-11.97 9.762-1.418 1.098-4.377 10.13-4.377 10.13L35.367 163.05 1 187.777" fill="#fff"/><path fill-rule="evenodd" clip-rule="evenodd" d="M77.776 112.839c.655-.079 1.29.076 1.783.593.883.928.764 2.32.386 3.493-.39 1.209-1.12 2.407-1.792 3.165-.65.731-2.244 2.245-3.654 3.557a295.7 295.7 0 01-1.873 1.727c-.246.225-.448.41-.589.537l-.157.143-.992 1.819.249-.316c1.095-1.376 2.205-2.591 3.193-3.322l.001-.001c.5-.368 1.273-.999 2.178-1.738.716-.584 1.514-1.236 2.323-1.877a51.062 51.062 0 012.61-1.959c.774-.533 1.505-.972 2.032-1.116l.02-.006a2.845 2.845 0 013.326 1.862c.149.442.187.913.11 1.374l-.004.02-.001.008c-.06.264-.223.576-.413.885-.198.324-.46.699-.76 1.102-.6.807-1.375 1.757-2.164 2.694-.697.828-1.399 1.639-2.007 2.343-.786.909-1.415 1.637-1.675 1.984l-.01.013a23.73 23.73 0 01-2.503 2.657l-5.735 12.028a473.66 473.66 0 013.122-3.218 224.42 224.42 0 013.999-3.999c.598-.579 1.14-1.09 1.589-1.493.44-.395.815-.709 1.071-.872.903-.575 3.03-1.575 5.004-2.474.874-.398 1.72-.776 2.436-1.097a73.829 73.829 0 001.897-.863c.238-.12.584-.29.959-.425.367-.132.809-.248 1.232-.223.45.027.909.218 1.182.715.25.453.295 1.078.177 1.866-.246 1.645-1.186 2.998-2.257 4.133-.713.756-1.53 1.457-2.261 2.085-.35.3-.68.584-.97.849-.945.862-1.7 1.417-2.234 1.81l-.033.024a8.86 8.86 0 00-.598.462c-.125.111-.149.158-.15.158l.002-.003c-.03.089-.082.166-.102.196v.001c-.031.046-.07.098-.111.152-.085.109-.2.25-.339.415-.279.332-.668.78-1.13 1.305-.465.531-1.012 1.148-1.6 1.812-.573.647-1.184 1.337-1.798 2.035a203.814 203.814 0 00-3.538 4.1c-.508.611-.95 1.159-1.293 1.61-.35.461-.574.793-.668.982-.44.877-.9 2.662-1.276 4.424a74.607 74.607 0 00-.687 3.675c.06 0 .131-.005.215-.013.489-.051 1.24-.239 2.19-.543 1.885-.603 4.426-1.619 6.94-2.717 5.061-2.212 8.968-3.215 12.9-2.393 1.913.4 3.269 1.016 3.95 1.791.355.403.549.876.493 1.385-.055.499-.34.939-.753 1.307-.41.365-1.217.826-2.196 1.336a147.492 147.492 0 01-3.568 1.773c-2.664 1.302-5.667 2.784-7.84 4.183-2.042 1.316-5.359 3.199-8.571 5.024l-.818.465c-3.482 1.979-6.672 3.808-7.898 4.727-2.472 1.854-4.118 2.388-8.86 3.927l-.729.237a45.79 45.79 0 01-8.578 2.045l-34.673 35.677a.5.5 0 11-.717-.697l34.793-35.801a.502.502 0 01.292-.147 44.71 44.71 0 008.563-2.024l.007-.003.646-.21c4.832-1.568 6.32-2.051 8.656-3.804 1.291-.968 4.558-2.838 8.004-4.797l.809-.459c3.224-1.831 6.515-3.701 8.533-5 2.232-1.438 5.29-2.946 7.942-4.242l.36-.176c1.193-.583 2.29-1.118 3.185-1.585 1.004-.523 1.694-.929 1.993-1.196.297-.264.405-.494.424-.669.018-.165-.033-.369-.25-.615-.458-.522-1.541-1.084-3.404-1.473-3.617-.756-7.281.139-12.295 2.33-2.525 1.104-5.102 2.135-7.036 2.753-.96.307-1.793.523-2.39.585-.287.03-.592.034-.841-.056a.79.79 0 01-.396-.301.74.74 0 01-.109-.52c.082-.563.36-2.226.736-3.988.371-1.739.854-3.652 1.359-4.662.141-.282.419-.681.767-1.14.356-.468.808-1.029 1.32-1.645a205.522 205.522 0 013.556-4.121c.62-.705 1.231-1.394 1.802-2.039.585-.66 1.128-1.274 1.596-1.807.462-.525.844-.965 1.115-1.288.136-.162.241-.29.313-.383.034-.044.057-.076.072-.097.089-.228.261-.406.418-.545.176-.156.409-.327.668-.519l.031-.022a24.43 24.43 0 002.154-1.745c.335-.305.69-.61 1.052-.921.709-.607 1.447-1.24 2.127-1.96 1.011-1.072 1.793-2.243 1.995-3.594.106-.711.028-1.07-.064-1.237-.068-.124-.168-.187-.364-.198-.223-.013-.513.049-.836.165a7.92 7.92 0 00-.848.377c-.277.14-1.028.476-1.99.907-.713.319-1.54.689-2.378 1.07-2.002.912-4.05 1.879-4.88 2.407-.178.113-.497.374-.942.773-.435.391-.967.892-1.56 1.467a229.754 229.754 0 00-3.98 3.98 529.303 529.303 0 00-4.829 5l-.218.229-.105.11-.113.119-.363-.343.363.343a.5.5 0 01-.815-.559l7.118-14.928a.504.504 0 01.116-.156 22.42 22.42 0 002.462-2.601c.28-.373.952-1.15 1.765-2.091.605-.7 1.288-1.491 1.947-2.273a59.091 59.091 0 002.127-2.647c.292-.391.533-.739.71-1.027.177-.29.262-.477.286-.572a1.841 1.841 0 00-2.218-2.082c-.341.097-.937.435-1.72.973a50.475 50.475 0 00-2.555 1.919c-.773.612-1.559 1.254-2.275 1.838-.929.758-1.74 1.42-2.253 1.798-.878.65-1.921 1.779-3.006 3.141-1.078 1.354-2.173 2.909-3.156 4.383a113.993 113.993 0 00-3.397 5.435l-.05.087-.013.022-.004.006-.433-.249.433.249a.5.5 0 01-.872-.488l6.616-12.124a.492.492 0 01.103-.131l.001-.001.218-.197.587-.536c.49-.449 1.159-1.063 1.866-1.721 1.424-1.324 2.977-2.801 3.587-3.488.585-.66 1.243-1.739 1.588-2.809.357-1.106.318-1.996-.158-2.497-.23-.242-.528-.339-.94-.289-.433.051-.963.264-1.565.624-1.2.718-2.535 1.925-3.706 3.129-1.092 1.127-2.432 2.394-3.497 3.376a133.292 133.292 0 01-1.72 1.562l-.104.094-.037.032a.5.5 0 01-.711-.7l.003-.003.012-.015.053-.066a7.633 7.633 0 00.755-1.16c.4-.758.68-1.639.49-2.397-.037-.146-.09-.201-.125-.226-.04-.03-.116-.062-.26-.065-.308-.008-.754.12-1.296.352-.507.217-1.035.496-1.525.755l-.068.036c-.475.252-.96.508-1.297.605a1.366 1.366 0 00-.178.096c-.115.07-.263.168-.441.295a32.96 32.96 0 00-1.341 1.023 170.1 170.1 0 00-3.72 3.074c-1.058.895-2.129 1.811-3.08 2.624-1.44 1.231-2.607 2.228-3.04 2.564-.102.079-.264.273-.476.618-.203.33-.427.756-.661 1.248-.469.984-.966 2.202-1.423 3.394a109.2 109.2 0 00-1.52 4.244l-.096.286-.024.075-.008.024v.001a.517.517 0 01-.025.061l-11.446 23.874a.499.499 0 01-.16.19L1.293 188.183a.499.499 0 11-.584-.811l34.263-24.653 11.378-23.73.023-.072.097-.291a110.483 110.483 0 011.534-4.282c.46-1.202.969-2.448 1.454-3.467.242-.509.483-.969.712-1.343.222-.359.462-.687.715-.883.416-.323 1.542-1.285 2.955-2.493.956-.818 2.045-1.749 3.133-2.669a170.889 170.889 0 013.743-3.093 34.652 34.652 0 011.383-1.055c.189-.134.358-.248.503-.335a1.9 1.9 0 01.421-.203c.212-.06.587-.253 1.112-.531l.072-.038c.48-.254 1.041-.551 1.587-.785.56-.239 1.176-.445 1.714-.432.28.007.573.073.826.257.258.189.422.463.504.79.16.634.094 1.279-.07 1.868a88.62 88.62 0 003.14-3.043c1.186-1.222 2.595-2.505 3.91-3.291.655-.392 1.326-.684 1.96-.759z" fill="#000"/><path fill-rule="evenodd" clip-rule="evenodd" d="M67.307 121.937a.5.5 0 01-.05.705l-4.617 3.993v.001a5.885 5.885 0 00-1.175 1.39v.001l-8.2 13.414a.5.5 0 11-.854-.522l8.2-13.413a6.86 6.86 0 011.373-1.626v-.001l4.618-3.993a.5.5 0 01.705.051zm31.806 36.629a.5.5 0 01-.466.531l-1.477.096c.056.11.11.232.157.363.272.76.296 1.802-.521 2.97a.5.5 0 01-.82-.573c.623-.89.567-1.591.4-2.06a2.165 2.165 0 00-.48-.764l-.005-.006a.499.499 0 01.303-.869l2.378-.155a.5.5 0 01.531.467zm-8.638-26.401h-.006l-.005.001-.007.001h-.002.002a.5.5 0 01-.116-.993l.068.495-.067-.495.001-.001h.007l.01-.002.024-.002.067-.002a1.38 1.38 0 01.204.014c.164.023.379.078.628.199.405.199.883.564 1.38 1.218.268-.314.471-.681.595-1.078a.5.5 0 11.955.298 4.084 4.084 0 01-1.306 1.938.5.5 0 01-.74-.119c-.543-.859-1.023-1.212-1.323-1.358a1.105 1.105 0 00-.327-.108c-.031-.004-.052-.004-.059-.004m-9.254-12.972a.5.5 0 01.598-.377 8.973 8.973 0 012.925 1.235c.015.002.09.009.273-.09.224-.122.448-.325.57-.486a.5.5 0 11.795.606 2.958 2.958 0 01-.888.759c-.312.169-.865.369-1.33.025a7.98 7.98 0 00-2.565-1.074.5.5 0 01-.378-.598zm-1.714-4.799a.5.5 0 01.292.644 2.669 2.669 0 01-1.56 1.561.499.499 0 01-.488-.077 9.555 9.555 0 00-1.347-.896 2.64 2.64 0 00-1.058-.264.5.5 0 11.037-.999 3.633 3.633 0 011.471.37l.02.01c.436.239.855.509 1.253.807a1.67 1.67 0 00.736-.864.5.5 0 01.645-.292zm-14.55 4.772h.004l.027-.002c.025-.002.062-.005.109-.006a3.2 3.2 0 01.37.007c.309.023.575.093.719.205.145.124.212.211.242.262a.5.5 0 00.562.777l-.166-.471.166.471h.001l.002-.001.004-.001.014-.006a4.89 4.89 0 00.726-.342c.19-.109.402-.251.582-.426.175-.17.36-.408.419-.714a.5.5 0 10-.982-.191c-.004.022-.03.087-.133.187a1.895 1.895 0 01-.317.238 2.113 2.113 0 00-.478-.55l-.012-.01c-.39-.312-.921-.399-1.274-.425a4.33 4.33 0 00-.48-.01l-.148.008-.043.004-.012.001h-.006s-.001.001.051.498l-.052-.497a.499.499 0 10.104.994zm0 0zm0 0zm17.134 17.441a.5.5 0 01.697-.117 7.776 7.776 0 012.37 2.712.5.5 0 11-.885.466 6.78 6.78 0 00-2.065-2.364.5.5 0 01-.117-.697z" fill="#000"/><path fill-rule="evenodd" clip-rule="evenodd" d="M81.202 136.838a.5.5 0 01.706.046 12.952 12.952 0 001.981 1.833.5.5 0 01-.599.801 13.985 13.985 0 01-2.134-1.974.5.5 0 01.046-.706zm3.35.141a.5.5 0 01.702.088l1.109 1.429a.5.5 0 01-.79.613l-1.11-1.429a.5.5 0 01.09-.701zm2.715 22.931a.5.5 0 01.684.179l1.109 1.898a.5.5 0 01-.864.505l-1.109-1.898a.5.5 0 01.18-.684zm1.458 2.997a.5.5 0 01.67.224l.315.629a.499.499 0 11-.894.447l-.315-.629a.5.5 0 01.224-.671z" fill="#000"/><path fill-rule="evenodd" clip-rule="evenodd" d="M89.93 160.327a.5.5 0 01.594.383c.29 1.345.4 2.721.325 4.094a.5.5 0 11-.998-.054 14.425 14.425 0 00-.305-3.828.501.501 0 01.384-.595zm-16.751-32.298l-.005.001h.003l.03-.001c.032-.001.082 0 .149.006.133.011.33.043.562.126.458.163 1.082.532 1.646 1.389a.5.5 0 10.835-.55c-.688-1.046-1.49-1.548-2.146-1.781a3.247 3.247 0 00-.81-.18 2.44 2.44 0 00-.325-.008l-.024.002-.008.001h-.005l.048.498-.05-.498a.5.5 0 00.095.996m.313 1.172a.5.5 0 01.68-.193l1.424.794a.501.501 0 01-.487.874l-1.424-.795a.5.5 0 01-.193-.68z" fill="#000"/><path fill-rule="evenodd" clip-rule="evenodd" d="M73.981 126.797a.5.5 0 01.693-.141l.95.63a.5.5 0 11-.553.833l-.95-.629a.5.5 0 01-.14-.693zm-7.777-.964a2.837 2.837 0 00-1.365-.021.5.5 0 01-.225-.975 3.849 3.849 0 013.463.913.5.5 0 01-.676.737 2.836 2.836 0 00-1.197-.654z" fill="#000"/><path fill-rule="evenodd" clip-rule="evenodd" d="M64.909 126.066a.5.5 0 01.665-.24c.684.322 1.396.577 2.128.763a.499.499 0 11-.245.969 12.78 12.78 0 01-2.308-.827.5.5 0 01-.24-.665zm1.875-1.667a.499.499 0 01.617-.344l1.11.314a.5.5 0 01-.274.962l-1.109-.314a.5.5 0 01-.344-.618zm-9.606 4.113a6.924 6.924 0 00-2.81 0 .5.5 0 01-.203-.979 7.913 7.913 0 013.215 0 .5.5 0 11-.202.979z" fill="#000"/><path fill-rule="evenodd" clip-rule="evenodd" d="M57.129 126.889a.5.5 0 01.649-.281l1.588.629a.5.5 0 01-.368.93l-1.589-.629a.5.5 0 01-.28-.649zm7.986 10.522a.5.5 0 01.21.675l-3.402 6.478a.5.5 0 01-.885-.465l3.401-6.478a.5.5 0 01.676-.21z" fill="#000"/></svg>