<svg width="30" height="30" viewBox="0 0 30 30" fill="none" xmlns="http://www.w3.org/2000/svg">
<path fill-rule="evenodd" clip-rule="evenodd" d="M0 21.501L0 8.4975C0 3.39206 3.64396 0 8.874 0H21.126C26.3506 0 30 3.40215 30 8.4975V21.501C30 26.6067 26.3557 30 21.126 30H8.874C3.64426 30 0 26.6067 0 21.501ZM2.25 8.4975L2.25 21.501C2.25 25.3268 4.85245 27.75 8.874 27.75H21.126C25.1476 27.75 27.75 25.3268 27.75 21.501V8.4975C27.75 4.68144 25.1418 2.25 21.126 2.25H8.874C4.85202 2.25 2.25 4.67214 2.25 8.4975ZM7.74603 15C7.74603 14.4305 8.16926 13.9598 8.71838 13.8853L8.87103 13.875H18.4038L14.6896 10.1752C14.2894 9.77664 14.2517 9.15172 14.5776 8.71061L14.6862 8.5842C15.0848 8.18395 15.7097 8.14631 16.1508 8.47215L16.2772 8.58081L21.9232 14.2028C22.3247 14.6026 22.3612 15.2298 22.0327 15.6709L22.029 15.6751C21.9974 15.7172 21.9629 15.757 21.9258 15.7942L21.9232 15.7972L16.2772 21.4192C15.837 21.8576 15.1246 21.8561 14.6862 21.4158C14.2877 21.0156 14.2527 20.3905 14.5804 19.9508L14.6896 19.8248L18.4059 16.125H8.87103C8.24971 16.125 7.74603 15.6213 7.74603 15Z" fill="#2D3351"/>
</svg>
