<svg width="18" height="18" viewBox="0 0 18 18" fill="none" xmlns="http://www.w3.org/2000/svg">
<path fill-rule="evenodd" clip-rule="evenodd" d="M5 2C3.34315 2 2 3.34315 2 5V13C2 14.6569 3.34315 16 5 16H13C14.6569 16 16 14.6569 16 13V5C16 3.34315 14.6569 2 13 2H5ZM0 5C0 2.23858 2.23858 0 5 0H13C15.7614 0 18 2.23858 18 5V13C18 15.7614 15.7614 18 13 18H5C2.23858 18 0 15.7614 0 13V5Z" fill="black"/>
<path fill-rule="evenodd" clip-rule="evenodd" d="M9.35718 6.78918C8.89945 6.72131 8.43196 6.79949 8.02122 7.01261C7.61048 7.22574 7.2774 7.56295 7.06936 7.97629C6.86132 8.38962 6.7889 8.85804 6.86242 9.3149C6.93593 9.77176 7.15164 10.1938 7.47884 10.521C7.80605 10.8482 8.2281 11.0639 8.68496 11.1374C9.14183 11.211 9.61024 11.1385 10.0236 10.9305C10.4369 10.7225 10.7741 10.3894 10.9872 9.97864C11.2004 9.5679 11.2786 9.10042 11.2107 8.64268C11.1414 8.17577 10.9239 7.74351 10.5901 7.40975C10.2563 7.07599 9.82409 6.85842 9.35718 6.78918ZM7.10008 5.23737C7.88422 4.83049 8.77669 4.68123 9.65055 4.81081C10.5419 4.94299 11.3671 5.35835 12.0043 5.99554C12.6415 6.63272 13.0569 7.45795 13.189 8.34931C13.3186 9.22317 13.1694 10.1156 12.7625 10.8998C12.3556 11.6839 11.7119 12.3198 10.9228 12.717C10.1337 13.1141 9.23942 13.2524 8.36722 13.112C7.49503 12.9717 6.6893 12.5599 6.06463 11.9352C5.43996 11.3106 5.02817 10.5048 4.88782 9.63264C4.74747 8.76044 4.88572 7.8662 5.28289 7.07711C5.68006 6.28801 6.31594 5.64424 7.10008 5.23737Z" fill="black"/>
<path fill-rule="evenodd" clip-rule="evenodd" d="M12.3999 4.60001C12.3999 4.04772 12.8476 3.60001 13.3999 3.60001H13.4084C13.9607 3.60001 14.4084 4.04772 14.4084 4.60001C14.4084 5.15229 13.9607 5.60001 13.4084 5.60001H13.3999C12.8476 5.60001 12.3999 5.15229 12.3999 4.60001Z" fill="black"/>
</svg>
