<svg width="15" height="12" viewBox="0 0 15 12" fill="none" xmlns="http://www.w3.org/2000/svg">
<path fill-rule="evenodd" clip-rule="evenodd" d="M9.84325 6.43832H0.8125C0.502 6.43832 0.25 6.2423 0.25 6.00078C0.25 5.75925 0.502 5.56323 0.8125 5.56323H9.84325C10.1538 5.56323 10.4058 5.75925 10.4058 6.00078C10.4058 6.2423 10.1538 6.43832 9.84325 6.43832" fill="black"/>
<path fill-rule="evenodd" clip-rule="evenodd" d="M7.64728 8.13877C7.50328 8.13877 7.35853 8.09618 7.24903 8.00984C7.02928 7.83832 7.03078 7.56179 7.25053 7.39144L9.04602 6.00063L7.25053 4.60924C7.03078 4.43889 7.02928 4.16236 7.24903 3.99084C7.46878 3.81933 7.82427 3.81933 8.04402 3.98968L10.2408 5.69085C10.3473 5.77253 10.4065 5.88454 10.4065 6.00063C10.4065 6.11673 10.3473 6.22874 10.2408 6.31042L8.04402 8.01101C7.93452 8.09618 7.79053 8.13877 7.64728 8.13877" fill="black"/>
<path fill-rule="evenodd" clip-rule="evenodd" d="M10.7816 11.8346H7.1178C5.28855 11.8346 3.7998 10.6766 3.7998 9.25309V8.70354C3.7998 8.46201 4.0518 8.26599 4.3623 8.26599C4.6728 8.26599 4.9248 8.46201 4.9248 8.70354V9.25309C4.9248 10.1935 5.9088 10.9595 7.1178 10.9595H10.7816C11.9958 10.9595 12.9836 10.1918 12.9836 9.24668V2.74826C12.9836 1.80783 11.9988 1.04184 10.7898 1.04184H7.12605C5.91255 1.04184 4.9248 1.80958 4.9248 2.75351V3.29782C4.9248 3.53934 4.6728 3.73536 4.3623 3.73536C4.0518 3.73536 3.7998 3.53934 3.7998 3.29782V2.75351C3.7998 1.32712 5.2923 0.166748 7.12605 0.166748H10.7898C12.6191 0.166748 14.1086 1.32478 14.1086 2.74826V9.24668C14.1086 10.6737 12.6153 11.8346 10.7816 11.8346" fill="black"/>
</svg>
