<svg width="17" height="14" viewBox="0 0 17 14" fill="none" xmlns="http://www.w3.org/2000/svg">
<path d="M5.5 3C5.5 3.74348 5.29819 4.39396 4.99819 4.84397C4.69585 5.29747 4.33309 5.5 4 5.5C3.66691 5.5 3.30415 5.29747 3.00181 4.84397C2.70181 4.39396 2.5 3.74348 2.5 3C2.5 2.25652 2.70181 1.60604 3.00181 1.15603C3.30415 0.702528 3.66691 0.5 4 0.5C4.33309 0.5 4.69585 0.702528 4.99819 1.15603C5.29819 1.60604 5.5 2.25652 5.5 3Z" fill="#FC6E8E" stroke="#FC6E8E"/>
<path d="M12.5 3C12.5 3.74348 12.2982 4.39396 11.9982 4.84397C11.6959 5.29747 11.3331 5.5 11 5.5C10.6669 5.5 10.3041 5.29747 10.0018 4.84397C9.70181 4.39396 9.5 3.74348 9.5 3C9.5 2.25652 9.70181 1.60604 10.0018 1.15603C10.3041 0.702528 10.6669 0.5 11 0.5C11.3331 0.5 11.6959 0.702528 11.9982 1.15603C12.2982 1.60604 12.5 2.25652 12.5 3Z" fill="#FC6E8E" stroke="#FC6E8E"/>
<path d="M1 12.4852C6.41587 9.19516 9.61449 9.14813 15.5 12.4852" stroke="#FC6E8E" stroke-width="2" stroke-linecap="round"/>
</svg>
