<svg width="17" height="14" viewBox="0 0 17 14" fill="none" xmlns="http://www.w3.org/2000/svg">
<path d="M6 3C6 4.65685 5.10457 6 4 6C2.89543 6 2 4.65685 2 3C2 1.34315 2.89543 0 4 0C5.10457 0 6 1.34315 6 3Z" fill="#FC6E8E"/>
<path fill-rule="evenodd" clip-rule="evenodd" d="M4.58216 4.56662C4.82024 4.2095 5 3.65854 5 3C5 2.34146 4.82024 1.7905 4.58216 1.43338C4.33942 1.06927 4.1139 1 4 1C3.8861 1 3.66058 1.06927 3.41784 1.43338C3.17976 1.7905 3 2.34146 3 3C3 3.65854 3.17976 4.2095 3.41784 4.56662C3.66058 4.93073 3.8861 5 4 5C4.1139 5 4.33942 4.93073 4.58216 4.56662ZM4 6C5.10457 6 6 4.65685 6 3C6 1.34315 5.10457 0 4 0C2.89543 0 2 1.34315 2 3C2 4.65685 2.89543 6 4 6Z" fill="#FC6E8E"/>
<path d="M13 3C13 4.65685 12.1046 6 11 6C9.89543 6 9 4.65685 9 3C9 1.34315 9.89543 0 11 0C12.1046 0 13 1.34315 13 3Z" fill="#FC6E8E"/>
<path fill-rule="evenodd" clip-rule="evenodd" d="M11.5822 4.56662C11.8202 4.2095 12 3.65854 12 3C12 2.34146 11.8202 1.7905 11.5822 1.43338C11.3394 1.06927 11.1139 1 11 1C10.8861 1 10.6606 1.06927 10.4178 1.43338C10.1798 1.7905 10 2.34146 10 3C10 3.65854 10.1798 4.2095 10.4178 4.56662C10.6606 4.93073 10.8861 5 11 5C11.1139 5 11.3394 4.93073 11.5822 4.56662ZM11 6C12.1046 6 13 4.65685 13 3C13 1.34315 12.1046 0 11 0C9.89543 0 9 1.34315 9 3C9 4.65685 9.89543 6 11 6Z" fill="#FC6E8E"/>
<path fill-rule="evenodd" clip-rule="evenodd" d="M8.07669 11C6.13227 11.0052 4.16623 11.7319 1.51934 13.3399C1.04732 13.6266 0.432229 13.4764 0.145488 13.0044C-0.141254 12.5324 0.00893998 11.9173 0.480955 11.6306C3.24994 9.94844 5.59114 9.00662 8.07138 9.00003C10.5434 8.99347 12.9977 9.91677 15.9934 11.6153C16.4738 11.8877 16.6424 12.498 16.37 12.9784C16.0976 13.4589 15.4873 13.6275 15.0069 13.3551C12.1171 11.7166 10.0293 10.9948 8.07669 11Z" fill="#FC6E8E"/>
</svg>
