<svg width="11" height="19" viewBox="0 0 11 19" fill="none" xmlns="http://www.w3.org/2000/svg">
<path d="M5.48685 9.82407C2.79619 9.82407 0.559852 7.59534 0.559852 4.95811C0.559852 2.22968 2.79619 0 5.4878 0C8.27085 0 10.4148 2.22873 10.4148 4.95811C10.41 6.25303 9.88995 7.49306 8.96892 8.40568C8.0479 9.31829 6.80127 9.82881 5.50304 9.82502L5.48685 9.82407ZM5.48685 2.86619C4.34773 2.86619 3.481 3.82095 3.481 4.95906C3.481 6.09528 4.34773 6.95979 5.4878 6.95979C6.6736 6.95979 7.4946 6.09528 7.4946 4.95906C7.49556 3.82 6.6736 2.86619 5.48685 2.86619ZM7.44888 13.873L10.2329 16.5568C10.7805 17.1468 10.7805 18.0113 10.2329 18.5575C9.64046 19.1475 8.72707 19.1475 8.27085 18.5575L5.4878 15.8281L2.79619 18.5575C2.52284 18.8302 2.1571 18.966 1.74565 18.966C1.42658 18.966 1.06179 18.8292 0.741769 18.5575C0.194113 18.0113 0.194113 17.1468 0.741769 16.5559L3.57053 13.8721C2.54897 13.5703 1.569 13.143 0.653191 12.6C-0.0316166 12.2362 -0.167816 11.327 0.196971 10.6439C0.653192 9.96182 1.4742 9.78037 2.20472 10.2354C3.19393 10.8376 4.33037 11.1561 5.48923 11.1561C6.64809 11.1561 7.78453 10.8376 8.77374 10.2354C9.50426 9.78037 10.37 9.96182 10.7805 10.6439C11.192 11.327 11.0082 12.2352 10.3691 12.6C9.50331 13.1463 8.49943 13.5557 7.44984 13.874L7.44888 13.873Z" fill="black"/>
</svg>
