<svg width="15" height="14" viewBox="0 0 15 14" fill="none" xmlns="http://www.w3.org/2000/svg">
<path d="M0.767064 8.34019C0.975211 8.22002 1.22257 8.18745 1.45473 8.24965C1.68688 8.31186 1.88482 8.46373 2.005 8.67187C2.56164 9.63674 3.36266 10.4379 4.32741 10.9947C5.29216 11.5516 6.38659 11.8444 7.5005 11.8437C8.61442 11.8444 9.70884 11.5516 10.6736 10.9947C11.6383 10.4379 12.4394 9.63674 12.996 8.67187C13.0551 8.56798 13.1341 8.47679 13.2286 8.40356C13.323 8.33034 13.431 8.27652 13.5464 8.2452C13.6617 8.21389 13.7821 8.2057 13.9006 8.2211C14.0192 8.23651 14.1335 8.2752 14.237 8.33496C14.3405 8.39472 14.4311 8.47436 14.5037 8.5693C14.5763 8.66424 14.6294 8.77261 14.66 8.88815C14.6905 9.0037 14.6979 9.12415 14.6817 9.24256C14.6655 9.36098 14.6261 9.47502 14.5656 9.57812C13.8499 10.8185 12.8201 11.8485 11.5798 12.5644C10.3395 13.2803 8.93257 13.6569 7.5005 13.6562C6.06844 13.6569 4.66146 13.2803 3.42119 12.5644C2.18091 11.8485 1.15109 10.8185 0.435378 9.57812C0.315207 9.36998 0.282641 9.12262 0.344844 8.89046C0.407047 8.65831 0.558923 8.46037 0.767064 8.34019ZM5.688 2.78125C5.688 4.282 4.876 5.5 3.8755 5.5C2.875 5.5 2.063 4.282 2.063 2.78125C2.063 1.2805 2.875 0.0625 3.8755 0.0625C4.876 0.0625 5.688 1.2805 5.688 2.78125ZM12.938 2.78125C12.938 4.282 12.126 5.5 11.1255 5.5C10.125 5.5 9.313 4.282 9.313 2.78125C9.313 1.2805 10.125 0.0625 11.1255 0.0625C12.126 0.0625 12.938 1.2805 12.938 2.78125Z" fill="#FC6E8E"/>
</svg>
