<?xml version="1.0" encoding="utf-8"?>
<!-- Generator: Adobe Illustrator 25.4.1, SVG Export Plug-In . SVG Version: 6.00 Build 0)  -->
<svg version="1.1" id="Layer_1" xmlns="http://www.w3.org/2000/svg" xmlns:xlink="http://www.w3.org/1999/xlink" x="0px" y="0px"
	 viewBox="0 0 62.88 58.2" style="enable-background:new 0 0 62.88 58.2;" xml:space="preserve">
<style type="text/css">
	.st0{fill:#FFFFFF;}
	.st1{fill:#231F20;}
</style>
<rect class="st0" width="62.88" height="58.2"/>
<g>
	<g>
		<path class="st1" d="M31.16,57.39c-13.3,0-25.48-7.82-31.02-19.92c-0.35-0.75-0.01-1.64,0.74-1.99c0.75-0.34,1.64-0.01,1.99,0.74
			c5.06,11.04,16.16,18.17,28.3,18.17c12.72,0,24.04-7.62,28.83-19.4c0.31-0.77,1.19-1.14,1.95-0.82c0.77,0.31,1.14,1.19,0.82,1.95
			C57.52,49.04,45.11,57.39,31.16,57.39z"/>
	</g>
	<g>
		<ellipse class="st1" cx="45.43" cy="8.08" rx="4.55" ry="7.37"/>
	</g>
	<g>
		<path class="st1" d="M21.22,8.08c0,4.07-2.04,7.37-4.55,7.37s-4.55-3.3-4.55-7.37s2.04-7.37,4.55-7.37
			C19.19,0.71,21.22,4.01,21.22,8.08z"/>
	</g>
</g>
</svg>
