<svg width="71" height="71" viewBox="0 0 71 71" fill="none" xmlns="http://www.w3.org/2000/svg">
<path d="M51.7706 41.4166C52.4303 41.4166 53.0634 41.3161 53.6935 41.2243C53.4894 41.9107 53.2793 42.6088 52.9421 43.236C52.6048 44.1472 52.0783 44.937 51.5546 45.7328C51.1168 46.5937 50.3447 47.1765 49.7767 47.9131C49.182 48.629 48.3715 49.1053 47.7295 49.7C47.0994 50.3212 46.274 50.6318 45.6172 51.0697C44.9309 51.4631 44.3333 51.898 43.6943 52.1051L42.0998 52.7618L40.6975 53.3446L42.1323 59.0779L43.8985 58.6519C44.4635 58.5099 45.1528 58.3442 45.9367 58.146C46.7385 57.9981 47.5934 57.5928 48.546 57.223C49.4867 56.8029 50.5754 56.5189 51.5872 55.8444C52.6048 55.1995 53.7793 54.6611 54.8147 53.7973C55.8176 52.9068 57.0275 52.1347 57.921 51.0016C58.8972 49.9425 59.8616 48.8302 60.6101 47.5641C61.4769 46.3571 62.0656 45.0317 62.6868 43.7212C63.2489 42.4106 63.7015 41.0705 64.0713 39.7688C64.7725 37.1596 65.086 34.6805 65.2073 32.5594C65.3079 30.4353 65.2488 28.6692 65.1245 27.3912C65.0801 26.7877 64.9973 26.2019 64.9381 25.7966L64.8642 25.2996L64.7873 25.3174C64.2611 22.8595 63.0498 20.6008 61.2936 18.8026C59.5373 17.0044 57.3079 15.7401 54.8631 15.156C52.4184 14.572 49.8582 14.692 47.4788 15.5021C45.0994 16.3123 42.9979 17.7796 41.4176 19.7342C39.8372 21.6888 38.8425 24.0509 38.5486 26.5472C38.2546 29.0435 38.6733 31.572 39.7564 33.8403C40.8395 36.1085 42.5425 38.0238 44.6687 39.3646C46.7948 40.7054 49.257 41.4168 51.7706 41.4166ZM19.2289 41.4166C19.8886 41.4166 20.5217 41.316 21.1518 41.2243C20.9477 41.9107 20.7377 42.6088 20.4004 43.236C20.0632 44.1472 19.5366 44.937 19.013 45.7328C18.5751 46.5937 17.803 47.1765 17.235 47.9131C16.6404 48.629 15.8298 49.1053 15.1878 49.7C14.5577 50.3212 13.7323 50.6318 13.0756 51.0697C12.3892 51.4631 11.7917 51.898 11.1527 52.1051L9.55812 52.7618L8.15587 53.3446L9.59066 59.0779L11.3568 58.6519C11.9218 58.5099 12.6111 58.3442 13.3951 58.146C14.1968 57.9981 15.0517 57.5928 16.0043 57.223C16.9421 56.8 18.0337 56.5189 19.0455 55.8415C20.0632 55.1965 21.2376 54.6581 22.273 53.7943C23.2759 52.9038 24.4859 52.1317 25.3793 51.0016C26.3555 49.9425 27.32 48.8302 28.0684 47.564C28.9352 46.357 29.5239 45.0317 30.1452 43.7212C30.7072 42.4106 31.1599 41.0705 31.5297 39.7688C32.2308 37.1596 32.5444 34.6805 32.6657 32.5594C32.7662 30.4353 32.7071 28.6692 32.5828 27.3912C32.5385 26.7877 32.4556 26.2019 32.3965 25.7966L32.3225 25.2996L32.2456 25.3174C31.7194 22.8595 30.5081 20.6008 28.7519 18.8026C26.9957 17.0044 24.7662 15.7401 22.3214 15.156C19.8767 14.572 17.3165 14.692 14.9371 15.5021C12.5577 16.3123 10.4563 17.7796 8.87591 19.7342C7.29555 21.6888 6.30086 24.0509 6.00688 26.5472C5.71291 29.0435 6.13167 31.572 7.21473 33.8403C8.29778 36.1085 10.0009 38.0238 12.127 39.3646C14.2531 40.7054 16.7153 41.4168 19.2289 41.4166Z" fill="#2D3351"/>
</svg>
