<svg width="14" height="14" viewBox="0 0 14 14" fill="none" xmlns="http://www.w3.org/2000/svg">
<path d="M6.66667 0.0175781C2.99067 0.0175781 0 3.06058 0 6.80091C0 10.5412 2.99067 13.5842 6.66667 13.5842C10.3427 13.5842 13.3333 10.5412 13.3333 6.80091C13.3333 3.06058 10.3427 0.0175781 6.66667 0.0175781ZM6.66667 12.2276C3.726 12.2276 1.33333 9.79304 1.33333 6.80091C1.33333 3.80878 3.726 1.37424 6.66667 1.37424C9.60733 1.37424 12 3.80878 12 6.80091C12 9.79304 9.60733 12.2276 6.66667 12.2276Z" fill="#4F4F4F"/>
<path d="M7.33333 3.40918H6V7.08168L8.19533 9.31543L9.138 8.35626L7.33333 6.52002V3.40918Z" fill="#4F4F4F"/>
</svg>
