<svg width="20" height="12" viewBox="0 0 20 12" fill="none" xmlns="http://www.w3.org/2000/svg">
<path d="M19.5414 0.812637C19.6812 0.343808 19.5414 0 18.8807 0H16.6919C16.135 0 15.8805 0.297429 15.7407 0.624097C15.7407 0.624097 14.6279 3.36548 13.0509 5.143C12.5419 5.66022 12.3093 5.82356 12.0319 5.82356C11.8931 5.82356 11.6915 5.66023 11.6915 5.1914V0.812637C11.6915 0.250042 11.5308 0 11.0667 0H7.62734C7.28001 0 7.07041 0.260125 7.07041 0.50815C7.07041 1.0405 7.85889 1.1635 7.93974 2.66375V5.91833C7.93974 6.63115 7.81298 6.76122 7.53352 6.76122C6.79194 6.76122 4.98741 4.00975 3.91647 0.860024C3.70787 0.248026 3.49728 0.00100864 2.93835 0.00100864H0.750557C0.12476 0.00100864 0 0.298438 0 0.625105C0 1.2119 0.741575 4.11561 3.45436 7.95597C5.26288 10.5784 7.80899 12 10.1285 12C11.5189 12 11.6905 11.6844 11.6905 11.14V9.15779C11.6905 8.52663 11.8233 8.3996 12.2634 8.3996C12.5868 8.3996 13.1437 8.56495 14.4422 9.82826C15.9254 11.3265 16.1709 11.999 17.0043 11.999H19.1921C19.8169 11.999 20.1293 11.6834 19.9497 11.0603C19.753 10.4403 19.0444 9.53789 18.1042 8.47017C17.5932 7.8612 16.8296 7.20585 16.5971 6.87817C16.2727 6.45572 16.3665 6.2692 16.5971 5.89414C16.5981 5.89514 19.264 2.10217 19.5414 0.812637Z" fill="black"/>
</svg>
