<svg width="316" height="272" viewBox="0 0 316 272" fill="none" xmlns="http://www.w3.org/2000/svg">
<path d="M41.3976 94.9321C54.8561 94.9321 65.7663 84.0218 65.7663 70.5633C65.7663 57.1048 54.8561 46.1946 41.3976 46.1946C27.9391 46.1946 17.0288 57.1048 17.0288 70.5633C17.0288 84.0218 27.9391 94.9321 41.3976 94.9321Z" fill="white" stroke="black" stroke-linecap="round" stroke-linejoin="round"/>
<path d="M39.5836 92.5115C53.0421 92.5115 63.9524 81.6012 63.9524 68.1427C63.9524 54.6842 53.0421 43.7739 39.5836 43.7739C26.1251 43.7739 15.2148 54.6842 15.2148 68.1427C15.2148 81.6012 26.1251 92.5115 39.5836 92.5115Z" fill="white" stroke="black" stroke-linecap="round" stroke-linejoin="round"/>
<path d="M39.5839 90.0908C51.7055 90.0908 61.532 80.2643 61.532 68.1427C61.532 56.0211 51.7055 46.1946 39.5839 46.1946C27.4622 46.1946 17.6357 56.0211 17.6357 68.1427C17.6357 80.2643 27.4622 90.0908 39.5839 90.0908Z" fill="black" stroke="black" stroke-linecap="round" stroke-linejoin="round"/>
<path d="M37.008 51.6427C37.008 51.6427 34.5873 45.5876 30.3529 41.3532C26.1186 37.1189 8.85648 34.3877 8.85648 34.3877C11.6439 37.0763 14.1787 40.015 16.4289 43.167C20.3598 48.6152 33.3664 61.0289 33.3664 61.0289C33.3664 61.0289 27.0149 55.5807 21.2561 54.9738C15.4974 54.3669 0.973509 57.3944 0.084293 57.3944C-0.804924 57.3944 5.53251 59.8151 10.0774 61.9323C14.6223 64.0494 32.1737 65.8702 32.1737 65.8702C32.1737 65.8702 24.6083 67.9874 19.4706 69.8082C14.3329 71.629 9.46341 84.939 9.46341 84.939C9.46341 84.939 16.1255 78.8838 21.8772 77.3736C27.6288 75.8633 35.8012 73.1392 35.8012 73.1392C35.8012 73.1392 30.6564 78.8909 29.4496 82.8288C28.2428 86.7668 29.1462 95.8425 29.1462 95.8425C29.1462 95.8425 31.8703 87.3737 35.2013 84.0356C38.5323 80.6976 42.1527 74.9882 42.1527 74.9882C43.8294 77.7213 45.3469 80.5489 46.6976 83.4569C49.1182 88.6017 50.6285 96.16 50.6285 96.16C50.6285 96.16 54.5664 87.6913 54.263 83.4569C53.9595 79.2226 49.4217 71.6501 49.4217 71.6501C49.4217 71.6501 52.4493 69.5329 56.9871 71.3467C61.5249 73.1604 69.4008 80.7328 69.4008 80.7328C69.4008 80.7328 67.5801 70.7397 64.5525 66.8088C61.5249 62.8779 48.5113 61.657 48.5113 61.657C48.5113 61.657 55.7803 57.4227 60.3181 56.5123C64.856 55.6019 70.904 57.7261 70.904 57.7261C70.904 57.7261 63.9456 48.0365 58.4973 47.4296C53.0491 46.8226 44.8768 55.2773 44.8768 55.2773L47.3045 43.167C47.9044 40.1394 46.6976 32.5811 46.6976 32.5811C46.6976 32.5811 43.3666 34.3948 39.4286 40.1464C38.2761 41.8031 37.468 43.6743 37.0522 45.6491C36.6364 47.6239 36.6214 49.662 37.008 51.6427Z" fill="#FC6E8E"/>
<path opacity="0.5" d="M37.008 51.6427C37.008 51.6427 34.5873 45.5876 30.3529 41.3532C26.1186 37.1189 8.85648 34.3877 8.85648 34.3877C11.6439 37.0763 14.1787 40.015 16.4289 43.167C20.3598 48.6152 33.3664 61.0289 33.3664 61.0289C33.3664 61.0289 27.0149 55.5807 21.2561 54.9738C15.4974 54.3669 0.973509 57.3944 0.084293 57.3944C-0.804924 57.3944 5.53251 59.8151 10.0774 61.9323C14.6223 64.0494 32.1737 65.8702 32.1737 65.8702C32.1737 65.8702 24.6083 67.9874 19.4706 69.8082C14.3329 71.629 9.46341 84.939 9.46341 84.939C9.46341 84.939 16.1255 78.8838 21.8772 77.3736C27.6288 75.8633 35.8012 73.1392 35.8012 73.1392C35.8012 73.1392 30.6564 78.8909 29.4496 82.8288C28.2428 86.7668 29.1462 95.8425 29.1462 95.8425C29.1462 95.8425 31.8703 87.3737 35.2013 84.0356C38.5323 80.6976 42.1527 74.9882 42.1527 74.9882C43.8294 77.7213 45.3469 80.5489 46.6976 83.4569C49.1182 88.6017 50.6285 96.16 50.6285 96.16C50.6285 96.16 54.5664 87.6913 54.263 83.4569C53.9595 79.2226 49.4217 71.6501 49.4217 71.6501C49.4217 71.6501 52.4493 69.5329 56.9871 71.3467C61.5249 73.1604 69.4008 80.7328 69.4008 80.7328C69.4008 80.7328 67.5801 70.7397 64.5525 66.8088C61.5249 62.8779 48.5113 61.657 48.5113 61.657C48.5113 61.657 55.7803 57.4227 60.3181 56.5123C64.856 55.6019 70.904 57.7261 70.904 57.7261C70.904 57.7261 63.9456 48.0365 58.4973 47.4296C53.0491 46.8226 44.8768 55.2773 44.8768 55.2773L47.3045 43.167C47.9044 40.1394 46.6976 32.5811 46.6976 32.5811C46.6976 32.5811 43.3666 34.3948 39.4286 40.1464C38.2761 41.8031 37.468 43.6743 37.0522 45.6491C36.6364 47.6239 36.6214 49.662 37.008 51.6427Z" fill="black"/>
<path d="M42.9712 42.426C43.1829 41.5579 43.4158 40.6899 43.6769 39.8359" stroke="black" stroke-width="0.5" stroke-linecap="round" stroke-linejoin="round"/>
<path d="M22.7524 42.426C25.5754 44.4938 29.104 47.3661 30.953 49.8291C34.284 54.3669 40.9461 64.0566 40.9461 64.0566C40.7553 57.5485 41.2711 51.0388 42.4846 44.642" stroke="black" stroke-width="0.5" stroke-linecap="round" stroke-linejoin="round"/>
<path d="M18.5459 39.5325C18.5459 39.5325 19.4281 40.0971 20.7478 41.0074" stroke="black" stroke-width="0.5" stroke-linecap="round" stroke-linejoin="round"/>
<path d="M40.9458 64.0564C40.9458 64.0564 52.4492 52.5531 57.2904 51.6427C62.1317 50.7323 66.3732 54.3668 66.3732 54.3668" stroke="black" stroke-width="0.5" stroke-linecap="round" stroke-linejoin="round"/>
<path d="M20.3883 73.6755C17.5654 75.454 17.3325 76.4984 17.3325 76.4984" stroke="black" stroke-width="0.5" stroke-linecap="round" stroke-linejoin="round"/>
<path d="M66.0699 74.6495C66.0699 74.6495 64.2562 70.1046 57.8976 67.9874C51.539 65.8702 41.56 65.5668 41.56 65.5668C41.56 65.5668 27.5513 70.154 22.4277 72.5464" stroke="black" stroke-width="0.5" stroke-linecap="round" stroke-linejoin="round"/>
<path d="M35.4341 63.8378C38.8216 64.8258 41.5527 65.5668 41.5527 65.5668" stroke="black" stroke-width="0.5" stroke-linecap="round" stroke-linejoin="round"/>
<path d="M14.1143 58.4601C17.4029 58.6577 21.6373 59.1093 23.9944 60.1185C25.914 60.9442 29.6967 62.1369 33.2677 63.2026" stroke="black" stroke-width="0.5" stroke-linecap="round" stroke-linejoin="round"/>
<path d="M9.46338 58.3048C9.46338 58.3048 10.5714 58.3048 12.2016 58.3683" stroke="black" stroke-width="0.5" stroke-linecap="round" stroke-linejoin="round"/>
<path d="M40.946 67.3805C40.946 67.3805 32.4773 80.0836 31.8633 83.1253C31.4996 84.9197 31.2965 86.743 31.2563 88.5735" stroke="black" stroke-width="0.5" stroke-linecap="round" stroke-linejoin="round"/>
<path d="M44.7144 71.382C46.3446 73.4991 48.2994 76.322 49.1181 78.5804C50.071 81.3357 50.7795 84.1695 51.2353 87.0491" stroke="black" stroke-width="0.5" stroke-linecap="round" stroke-linejoin="round"/>
<path d="M42.1528 68.2909C42.1528 68.2909 42.8586 69.039 43.7689 70.1893" stroke="black" stroke-width="0.5" stroke-linecap="round" stroke-linejoin="round"/>
<path d="M33.1616 54.2539C33.1616 54.2539 31.602 47.9024 32.5688 42.0096C33.5357 36.1167 45.9776 23.8159 45.9776 23.8159C45.2861 27.6254 44.9436 31.4899 44.9543 35.3616C44.9543 42.0801 41.6021 59.7516 41.6021 59.7516C41.6021 59.7516 43.5852 51.6216 47.9043 47.7542C52.2233 43.8868 65.7945 37.874 66.5284 37.3588C67.2624 36.8436 63.515 42.5036 61.0661 46.8791C58.6172 51.2546 45.3989 62.9908 45.3989 62.9908C45.3989 62.9908 52.7809 60.295 58.0174 58.7565C63.2538 57.218 74.9548 65.2209 74.9548 65.2209C74.9548 65.2209 66.0132 64.1906 60.4592 66.3148C54.9051 68.4391 46.6763 70.9938 46.6763 70.9938C46.6763 70.9938 54.2135 72.6664 57.4881 75.1576C60.7626 77.6488 65.3358 85.5741 65.3358 85.5741C65.3358 85.5741 58.1797 80.2741 53.5289 79.5119C48.8782 78.7497 42.576 76.2021 42.576 76.2021C42.8151 79.399 43.2345 82.5798 43.8322 85.7294C44.8697 91.3258 48.0666 98.3549 48.0666 98.3549C48.0666 98.3549 39.9296 93.7676 37.6995 90.1472C35.4694 86.5269 34.7495 77.7335 34.7495 77.7335C34.7495 77.7335 31.0515 77.7758 28.398 81.8973C25.7444 86.0187 23.7896 96.7599 23.7896 96.7599C23.7896 96.7599 19.4423 87.5855 19.6046 82.6454C19.7669 77.7053 29.633 69.1095 29.633 69.1095C29.633 69.1095 21.2631 69.907 17.0428 71.8124C12.8226 73.7179 9.13867 78.9756 9.13867 78.9756C9.13867 78.9756 9.13867 67.0488 13.2178 63.379C17.2969 59.7092 28.8779 61.8264 28.8779 61.8264L19.8446 53.4071C17.5862 51.2899 14.1564 44.4443 14.1564 44.4443C14.1564 44.4443 17.925 43.9786 24.4741 46.3569C26.3778 47.0234 28.1279 48.066 29.6203 49.4226C31.1128 50.7793 32.3171 52.4223 33.1616 54.2539Z" fill="#FC6E8E"/>
<path d="M22.9425 50.2455C22.2368 49.6597 21.5734 49.0951 20.8677 48.5447" stroke="black" stroke-width="0.5" stroke-linecap="round" stroke-linejoin="round"/>
<path d="M39.3652 38.4528C38.2713 41.7838 37.0504 46.1664 37.0222 49.2433C36.9657 54.8892 37.2057 66.6254 37.2057 66.6254C33.563 61.2293 29.3438 56.2457 24.6226 51.7628" stroke="black" stroke-width="0.5" stroke-linecap="round" stroke-linejoin="round"/>
<path d="M41.101 33.6467C41.101 33.6467 40.7058 34.6206 40.1694 36.1238" stroke="black" stroke-width="0.5" stroke-linecap="round" stroke-linejoin="round"/>
<path d="M37.2058 66.6254C37.2058 66.6254 21.1505 63.993 16.6903 66.082C12.2301 68.1709 10.9033 73.5768 10.9033 73.5768" stroke="black" stroke-width="0.5" stroke-linecap="round" stroke-linejoin="round"/>
<path d="M59.5205 62.4475C62.8304 62.264 63.6208 62.9344 63.6208 62.9344" stroke="black" stroke-width="0.5" stroke-linecap="round" stroke-linejoin="round"/>
<path d="M22.9782 89.8861C22.9782 89.8861 21.8067 85.1366 25.7305 79.7095C29.6544 74.2825 37.6009 68.2132 37.6009 68.2132C37.6009 68.2132 51.6519 63.7601 57.206 62.7227" stroke="black" stroke-width="0.5" stroke-linecap="round" stroke-linejoin="round"/>
<path d="M41.56 63.2379C39.3863 66.0114 37.6079 68.2133 37.6079 68.2133" stroke="black" stroke-width="0.5" stroke-linecap="round" stroke-linejoin="round"/>
<path d="M55.7382 46.4344C53.1835 48.5516 50.0077 51.3745 48.6809 53.5411C47.6012 55.3337 45.2229 58.4812 42.9434 61.4523" stroke="black" stroke-width="0.5" stroke-linecap="round" stroke-linejoin="round"/>
<path d="M59.4221 43.5905C59.4221 43.5905 58.5259 44.2397 57.2344 45.2419" stroke="black" stroke-width="0.5" stroke-linecap="round" stroke-linejoin="round"/>
<path d="M39.1465 69.3424C39.1465 69.3424 53.4516 74.7201 55.7028 76.8302C57.0453 78.0752 58.2735 79.438 59.3726 80.9022" stroke="black" stroke-width="0.5" stroke-linecap="round" stroke-linejoin="round"/>
<path d="M38.4194 74.7765C38.3206 77.4441 38.37 80.8669 39.0404 83.1958C39.8724 85.9938 40.9517 88.7121 42.2656 91.3187" stroke="black" stroke-width="0.5" stroke-linecap="round" stroke-linejoin="round"/>
<path d="M38.6947 70.7539C38.6947 70.7539 38.5818 71.756 38.4971 73.2381" stroke="black" stroke-width="0.5" stroke-linecap="round" stroke-linejoin="round"/>
<path d="M80.2547 86.5834H240.222C242.219 86.5834 244.134 87.3767 245.547 88.7889C246.959 90.2011 247.752 92.1164 247.752 94.1135V197.855C247.752 198.937 247.539 200.008 247.125 201.007C246.711 202.006 246.105 202.914 245.34 203.679C244.575 204.444 243.667 205.05 242.668 205.464C241.669 205.878 240.598 206.091 239.516 206.091H80.9604C79.8789 206.091 78.8079 205.878 77.8087 205.464C76.8095 205.05 75.9016 204.444 75.1368 203.679C74.3721 202.914 73.7654 202.006 73.3515 201.007C72.9376 200.008 72.7246 198.937 72.7246 197.855V94.1135C72.7246 92.1164 73.518 90.2011 74.9301 88.7889C76.3423 87.3767 78.2576 86.5834 80.2547 86.5834Z" fill="white" stroke="black" stroke-linecap="round" stroke-linejoin="round"/>
<path d="M138.802 98.3478H128.95V104.819H138.802V98.3478Z" fill="black"/>
<path d="M106.882 138.271H97.7358V147.346H106.882V138.271Z" fill="black"/>
<path d="M147.292 106.372H138.075V115.447H147.292V106.372Z" fill="black"/>
<path d="M127.391 98.3478H117.539V104.819H127.391V98.3478Z" fill="black"/>
<path d="M158.062 106.372H148.845V115.447H158.062V106.372Z" fill="black"/>
<path d="M150.207 98.3478H140.355V104.819H150.207V98.3478Z" fill="black"/>
<path d="M101.356 127.635H84.0234V136.711H101.356V127.635Z" fill="black"/>
<path d="M125.746 106.372H116.529V115.447H125.746V106.372Z" fill="black"/>
<path d="M96.1831 138.271H84.0234V147.346H96.1831V138.271Z" fill="black"/>
<path d="M161.618 98.3478H151.766V104.819H161.618V98.3478Z" fill="black"/>
<path d="M104.2 106.372H94.9834V115.447H104.2V106.372Z" fill="black"/>
<path d="M104.575 98.3478H94.7227V104.819H104.575V98.3478Z" fill="black"/>
<path d="M115.986 98.3478H106.134V104.819H115.986V98.3478Z" fill="black"/>
<path d="M114.97 106.372H105.753V115.447H114.97V106.372Z" fill="black"/>
<path d="M136.516 106.372H127.299V115.447H136.516V106.372Z" fill="black"/>
<path d="M207.258 98.3478H197.406V104.819H207.258V98.3478Z" fill="black"/>
<path d="M218.662 98.3478H208.81V104.819H218.662V98.3478Z" fill="black"/>
<path d="M211.93 106.372H202.713V115.447H211.93V106.372Z" fill="black"/>
<path d="M222.706 106.372H213.489V115.447H222.706V106.372Z" fill="black"/>
<path d="M239.749 138.271H226.178V147.346H239.749V138.271Z" fill="black"/>
<path d="M230.074 98.3478H220.222V104.819H230.074V98.3478Z" fill="black"/>
<path d="M93.4308 106.372H84.0234V115.447H93.4308V106.372Z" fill="black"/>
<path d="M173.03 98.3478H163.178V104.819H173.03V98.3478Z" fill="black"/>
<path d="M184.434 98.3478H174.583V104.819H184.434V98.3478Z" fill="black"/>
<path d="M179.614 106.372H170.397V115.447H179.614V106.372Z" fill="black"/>
<path d="M201.16 106.372H191.943V115.447H201.16V106.372Z" fill="black"/>
<path d="M168.838 106.372H159.621V115.447H168.838V106.372Z" fill="black"/>
<path d="M190.384 106.372H181.167V115.447H190.384V106.372Z" fill="black"/>
<path d="M195.846 98.3478H185.994V104.819H195.846V98.3478Z" fill="black"/>
<path d="M181.809 138.271H172.663V147.346H181.809V138.271Z" fill="black"/>
<path d="M229.799 127.635H220.652V136.711H229.799V127.635Z" fill="black"/>
<path d="M219.093 127.635H209.946V136.711H219.093V127.635Z" fill="black"/>
<path d="M224.618 138.271H215.472V147.346H224.618V138.271Z" fill="black"/>
<path d="M213.92 138.271H204.773V147.346H213.92V138.271Z" fill="black"/>
<path d="M192.508 138.271H183.362V147.346H192.508V138.271Z" fill="black"/>
<path d="M203.214 138.271H194.068V147.346H203.214V138.271Z" fill="black"/>
<path d="M208.386 127.635H199.24V136.711H208.386V127.635Z" fill="black"/>
<path d="M197.688 127.635H188.542V136.711H197.688V127.635Z" fill="black"/>
<path d="M239.756 98.3478H231.633V104.819H239.756V98.3478Z" fill="black"/>
<path d="M93.1697 98.3478H84.0234V104.819H93.1697V98.3478Z" fill="black"/>
<path d="M239.756 148.899H84.0234V158.335H239.756V148.899Z" fill="black"/>
<path d="M239.749 106.372H224.259V115.447H239.749V106.372Z" fill="black"/>
<path d="M239.749 127.635H231.351V136.711H239.749V127.635Z" fill="black"/>
<path d="M228.768 126.012H227.208V117.007H218.062V126.012H216.51V117.007H207.363V126.012H205.804V117.007H196.658V126.012H195.098V117.007H185.952V126.012H184.399V117.007H175.253V126.012H173.693V117.007H164.547V126.012H162.987V117.007H153.841V126.012H152.288V117.007H143.142V126.012H141.583V117.007H132.436V126.012H130.877V117.007H121.73V126.012H120.178V117.007H111.032V126.012H109.472V117.007H100.326V126.012H98.7661V117.007H84.0234V126.083H239.749V117.007H228.768V126.012Z" fill="black"/>
<path d="M154.871 127.635H145.725V136.711H154.871V127.635Z" fill="black"/>
<path d="M186.982 127.635H177.836V136.711H186.982V127.635Z" fill="black"/>
<path d="M133.467 127.635H124.32V136.711H133.467V127.635Z" fill="black"/>
<path d="M138.993 138.271H129.847V147.346H138.993V138.271Z" fill="black"/>
<path d="M144.166 127.635H135.02V136.711H144.166V127.635Z" fill="black"/>
<path d="M122.761 127.635H113.615V136.711H122.761V127.635Z" fill="black"/>
<path d="M117.588 138.271H108.442V147.346H117.588V138.271Z" fill="black"/>
<path d="M128.287 138.271H119.141V147.346H128.287V138.271Z" fill="black"/>
<path d="M165.577 127.635H156.431V136.711H165.577V127.635Z" fill="black"/>
<path d="M171.103 138.271H161.957V147.346H171.103V138.271Z" fill="black"/>
<path d="M176.276 127.635H167.13V136.711H176.276V127.635Z" fill="black"/>
<path d="M149.698 138.271H140.552V147.346H149.698V138.271Z" fill="black"/>
<path d="M160.397 138.271H151.251V147.346H160.397V138.271Z" fill="black"/>
<path d="M112.055 127.635H102.909V136.711H112.055V127.635Z" fill="black"/>
<path d="M257.745 21.6564H61.7932C60.8322 21.6571 59.8843 21.8789 59.0228 22.3044C58.1612 22.73 57.409 23.348 56.8244 24.1106C56.2398 24.8733 55.8384 25.7602 55.6512 26.7027C55.4641 27.6453 55.4962 28.6182 55.7451 29.5464L70.0714 82.8853C70.4284 84.2167 71.2145 85.3933 72.3079 86.2328C73.4013 87.0723 74.741 87.5279 76.1195 87.529H96.1198V91.2199H224.343V87.5501H243.398C244.777 87.5491 246.116 87.0935 247.21 86.254C248.303 85.4145 249.089 84.2379 249.446 82.9064L263.772 29.5676C264.025 28.6398 264.06 27.6663 263.876 26.7227C263.692 25.779 263.293 24.8903 262.71 24.1255C262.128 23.3606 261.377 22.7401 260.516 22.312C259.655 21.8838 258.707 21.6595 257.745 21.6564Z" fill="black" stroke="black" stroke-linecap="round" stroke-linejoin="round"/>
<path d="M235.586 82.8218H83.9532L68.7871 28.2479H250.745L235.586 82.8218Z" fill="#FC6E8E" stroke="black" stroke-linecap="round" stroke-linejoin="round"/>
<path d="M94.0165 58.8694V59.5751H91.3418V58.8694H94.0165Z" fill="black"/>
<path d="M97.3478 58.8694V59.5751H94.666V58.8694H97.3478Z" fill="black"/>
<path d="M100.679 58.8694V59.5751H98.0181V58.8694H100.679Z" fill="black"/>
<path d="M104.003 58.8694V59.5751H101.328V58.8694H104.003Z" fill="black"/>
<path d="M107.334 58.8694V59.5751H104.652V58.8694H107.334Z" fill="black"/>
<path d="M110.665 58.8694V59.5751H107.983V58.8694H110.665Z" fill="black"/>
<path d="M113.989 58.8694V59.5751H111.314V58.8694H113.989Z" fill="black"/>
<path d="M117.284 62.5886L114.334 54.7268H115.04L117.99 62.5886H117.284Z" fill="black"/>
<path d="M91.3207 47.4225V48.1282H88.646V47.4225H91.3207Z" fill="black"/>
<path d="M94.6518 47.4225V48.1282H91.9771V47.4225H94.6518Z" fill="black"/>
<path d="M98.0182 47.4225V48.1282H95.3364V47.4225H98.0182Z" fill="black"/>
<path d="M101.314 47.4225V48.1282H98.6323V47.4225H101.314Z" fill="black"/>
<path d="M104.638 47.4225V48.1282H101.963V47.4225H104.638Z" fill="black"/>
<path d="M110.27 47.4225V48.1282H107.588V47.4225H110.27Z" fill="black"/>
<path d="M113.594 47.4225V48.1282H110.919V47.4225H113.594Z" fill="black"/>
<path d="M116.925 47.4225V48.1282H114.25V47.4225H116.925Z" fill="black"/>
<path d="M120.255 47.4225V48.1282H117.574V47.4225H120.255Z" fill="black"/>
<path d="M123.579 47.4225V48.1282H120.905V47.4225H123.579Z" fill="black"/>
<path d="M126.911 47.4225V48.1282H124.236V47.4225H126.911Z" fill="black"/>
<path d="M130.241 47.4225V48.1282H127.56V47.4225H130.241Z" fill="black"/>
<path d="M135.866 47.4225V48.1282H133.191V47.4225H135.866Z" fill="black"/>
<path d="M139.197 47.4225V48.1282H136.516V47.4225H139.197Z" fill="black"/>
<path d="M142.528 47.4225V48.1282H139.847V47.4225H142.528Z" fill="black"/>
<path d="M148.125 47.4225V48.1282H145.45V47.4225H148.125Z" fill="black"/>
<path d="M151.484 47.4225V48.1282H148.831V47.4225H151.484Z" fill="black"/>
<path d="M154.815 47.4225V48.1282H152.133V47.4225H154.815Z" fill="black"/>
<path d="M167.335 47.4225V48.1282H164.66V47.4225H167.335Z" fill="black"/>
<path d="M170.666 47.4225V48.1282H167.984V47.4225H170.666Z" fill="black"/>
<path d="M173.997 47.4225V48.1282H171.315V47.4225H173.997Z" fill="black"/>
<path d="M177.321 47.4225V48.1282H174.646V47.4225H177.321Z" fill="black"/>
<path d="M180.652 47.4225V48.1282H177.97V47.4225H180.652Z" fill="black"/>
<path d="M186.276 47.4225V48.1282H183.602V47.4225H186.276Z" fill="black"/>
<path d="M189.607 47.4225V48.1282H186.939V47.4225H189.607Z" fill="black"/>
<path d="M192.939 47.4225V48.1282H190.257V47.4225H192.939Z" fill="black"/>
<path d="M198.563 47.4225V48.1282H195.888V47.4225H198.563Z" fill="black"/>
<path d="M204.195 47.4225V48.1282H201.513V47.4225H204.195Z" fill="black"/>
<path d="M248.825 163.409L241.274 192.541L248.416 194.637L248.825 163.409Z" fill="white" stroke="black" stroke-linecap="round" stroke-linejoin="round"/>
<path d="M252.213 132.618C251.361 131.309 251.049 129.72 251.345 128.186C251.733 125.314 255.198 124.657 255.198 124.657C255.198 124.657 255.953 124.086 258.727 125.137C261.5 126.189 282.947 129.096 296.652 130.952C310.358 132.808 314.797 131.609 314.606 136.316C314.415 141.023 302.39 183.268 302.206 184.595C302.023 185.921 252.213 132.618 252.213 132.618Z" fill="white" stroke="black" stroke-miterlimit="10"/>
<path d="M309.859 140.435L252.207 132.619L242.89 201.342L300.543 209.158L309.859 140.435Z" fill="white" stroke="black" stroke-linecap="round" stroke-linejoin="round"/>
<path d="M299.144 154.143L302.496 154.601" stroke="black" stroke-width="0.5" stroke-linecap="round" stroke-linejoin="round"/>
<path d="M278.148 151.298L296.49 153.79" stroke="black" stroke-width="0.5" stroke-linecap="round" stroke-linejoin="round"/>
<path d="M255.917 148.285L275.494 150.939" stroke="black" stroke-width="0.5" stroke-linecap="round" stroke-linejoin="round"/>
<path d="M293.893 159.654L301.67 160.713" stroke="black" stroke-width="0.5" stroke-linecap="round" stroke-linejoin="round"/>
<path d="M255.092 154.397L285.94 158.575" stroke="black" stroke-width="0.5" stroke-linecap="round" stroke-linejoin="round"/>
<path d="M270.745 162.738L300.844 166.817" stroke="black" stroke-width="0.5" stroke-linecap="round" stroke-linejoin="round"/>
<path d="M254.259 160.501L267.647 162.322" stroke="black" stroke-width="0.5" stroke-linecap="round" stroke-linejoin="round"/>
<path d="M280.745 170.318L300.011 172.929" stroke="black" stroke-width="0.5" stroke-linecap="round" stroke-linejoin="round"/>
<path d="M264.394 168.095L278.536 170.014" stroke="black" stroke-width="0.5" stroke-linecap="round" stroke-linejoin="round"/>
<path d="M253.434 166.613L261.959 167.77" stroke="black" stroke-width="0.5" stroke-linecap="round" stroke-linejoin="round"/>
<path d="M292.291 178.102L299.186 179.034" stroke="black" stroke-width="0.5" stroke-linecap="round" stroke-linejoin="round"/>
<path d="M252.608 172.724L287.654 177.474" stroke="black" stroke-width="0.5" stroke-linecap="round" stroke-linejoin="round"/>
<path d="M278.868 182.499L298.36 185.145" stroke="black" stroke-width="0.5" stroke-linecap="round" stroke-linejoin="round"/>
<path d="M251.775 178.829L275.551 182.054" stroke="black" stroke-width="0.5" stroke-linecap="round" stroke-linejoin="round"/>
<path d="M284.888 189.542L297.527 191.25" stroke="black" stroke-width="0.5" stroke-linecap="round" stroke-linejoin="round"/>
<path d="M259.256 186.063L281.797 189.119" stroke="black" stroke-width="0.5" stroke-linecap="round" stroke-linejoin="round"/>
<path d="M250.949 184.94L256.602 185.703" stroke="black" stroke-width="0.5" stroke-linecap="round" stroke-linejoin="round"/>
<path d="M309.864 140.437C309.864 140.437 310.852 130.854 314.38 134.707" stroke="black" stroke-linecap="round" stroke-linejoin="round"/>
<path d="M290.315 214.264L290.252 220.354L286.702 215.343L272.453 167.417L276.066 166.338L290.315 214.264Z" fill="white" stroke="black" stroke-linecap="round" stroke-linejoin="round"/>
<path d="M274.652 168.386L272.681 168.961L286.681 216.961L288.652 216.386L274.652 168.386Z" fill="#FC6E8E" stroke="black" stroke-width="0.5" stroke-linecap="round" stroke-linejoin="round"/>
<path d="M290.315 214.278L286.708 215.35L290.251 220.354L290.315 214.278Z" stroke="black" stroke-linecap="round" stroke-linejoin="round"/>
<path d="M288.48 217.849L290.251 220.354L290.287 217.312L288.48 217.849Z" fill="black" stroke="black" stroke-linecap="round" stroke-linejoin="round"/>
<path d="M272.664 161.51C272.186 161.654 271.784 161.981 271.547 162.42C271.309 162.859 271.254 163.374 271.394 163.853L272.453 167.417L276.066 166.345L275.008 162.781C274.864 162.303 274.537 161.901 274.098 161.663C273.659 161.425 273.144 161.37 272.664 161.51Z" fill="white" stroke="black" stroke-linecap="round" stroke-linejoin="round"/>
<path d="M272.664 161.51C272.186 161.654 271.784 161.981 271.547 162.42C271.309 162.859 271.254 163.374 271.394 163.853L271.902 165.554L275.509 164.482L275.008 162.781C274.864 162.303 274.537 161.901 274.098 161.663C273.659 161.425 273.144 161.37 272.664 161.51Z" fill="black" stroke="black" stroke-linecap="round" stroke-linejoin="round"/>
<path d="M94.9478 133.204C94.4961 133.839 94.0515 134.502 93.6069 135.201" stroke="white" stroke-linecap="round" stroke-linejoin="round"/>
<path d="M102.33 124.707C100.363 126.529 98.5441 128.505 96.8887 130.614" stroke="white" stroke-linecap="round" stroke-linejoin="round"/>
<path d="M94.3198 128.454C92.3916 131.159 90.6447 133.988 89.0903 136.923" stroke="white" stroke-linecap="round" stroke-linejoin="round"/>
<path d="M144.095 143.973C143.65 144.608 143.199 145.272 142.754 145.963" stroke="white" stroke-linecap="round" stroke-linejoin="round"/>
<path d="M151.477 135.476C149.514 137.3 147.697 139.275 146.043 141.383" stroke="white" stroke-linecap="round" stroke-linejoin="round"/>
<path d="M143.474 139.209C141.547 141.929 139.8 144.772 138.245 147.72" stroke="white" stroke-linecap="round" stroke-linejoin="round"/>
<path d="M214.541 126.506C213.899 126.069 213.221 125.631 212.522 125.194" stroke="white" stroke-linecap="round" stroke-linejoin="round"/>
<path d="M223.151 133.761C221.295 131.828 219.292 130.042 217.159 128.419" stroke="white" stroke-linecap="round" stroke-linejoin="round"/>
<path d="M219.283 125.801C216.537 123.915 213.67 122.21 210.702 120.698" stroke="white" stroke-linecap="round" stroke-linejoin="round"/>
<path d="M141.949 170.261C141.582 172.915 141.032 176.613 140.481 178.808" stroke="black" stroke-linecap="round" stroke-linejoin="round"/>
<path d="M142.359 167.036C142.359 167.036 142.302 167.537 142.196 168.349" stroke="black" stroke-linecap="round" stroke-linejoin="round"/>
<path d="M144.243 174.566C143.473 177.137 142.53 179.653 141.42 182.097" stroke="black" stroke-linecap="round" stroke-linejoin="round"/>
<path d="M179.529 178.328C179.529 178.328 180.002 184.447 183.291 187.742" stroke="black" stroke-linecap="round" stroke-linejoin="round"/>
<path d="M179.057 184.447C179.057 184.447 180.468 188.681 183.291 190.565" stroke="black" stroke-linecap="round" stroke-linejoin="round"/>
<g style="mix-blend-mode:multiply">
<path d="M83.1978 217.15C83.1978 217.15 86.3312 214.63 86.3312 192.972C86.3312 171.313 89.9375 155.491 94.3835 148.553C98.8296 141.616 102.986 138.835 104.934 138.835C106.882 138.835 105.485 141.334 102.711 144.94C99.9376 148.546 97.4393 150.494 96.3243 154.94C95.2092 159.386 95.2163 164.933 96.6066 164.376C97.9969 163.818 100.213 152.717 102.154 148.553C104.094 144.389 108.823 139.111 111.596 136.612C114.37 134.114 120.481 126.619 123.255 128.56C126.028 130.501 124.37 133.281 122.704 134.389C121.039 135.497 114.37 142.152 111.321 146.33C108.272 150.508 106.324 161.045 107.99 161.32C109.655 161.595 114.652 146.055 117.426 142.724C120.199 139.393 131.307 130.225 133.805 129.95C136.304 129.675 136.586 133.557 134.363 135.504C132.14 137.452 124.645 145.773 122.147 150.769C119.649 155.766 118.534 164.933 120.735 162.71C122.937 160.487 126.565 151.327 129.62 148.271C132.676 145.215 141.837 135.504 144.06 136.612C146.283 137.72 145.725 140.501 143.784 142.442C141.844 144.382 134.342 154.94 132.401 160.487C130.46 166.034 128.23 181.588 129.345 179.372C130.46 177.156 134.067 165.766 136.007 161.023C137.948 156.281 141.837 154.086 142.394 156.302C142.952 158.518 141.837 159.633 140.446 164.637C139.056 169.64 139.035 182.986 134.899 190.452C130.764 197.919 114.165 213.897 111.949 219.444C110.344 223.264 108.427 226.946 106.219 230.453" fill="#FC6E8E"/>
</g>
<g style="mix-blend-mode:multiply">
<path d="M237.434 219.027C237.434 219.027 234.223 214.63 234.223 192.972C234.223 171.313 230.61 155.491 226.171 148.553C221.732 141.616 217.561 138.835 215.62 138.835C213.68 138.835 215.063 141.334 217.843 144.94C220.624 148.546 223.115 150.494 224.195 154.94C225.275 159.386 225.31 164.933 223.92 164.376C222.53 163.818 220.314 152.717 218.366 148.553C216.418 144.389 211.704 139.111 208.93 136.612C206.157 134.114 200.045 126.619 197.264 128.56C194.484 130.501 196.156 133.281 197.822 134.389C199.488 135.497 206.15 142.152 209.205 146.33C212.261 150.508 214.202 161.045 212.536 161.32C210.871 161.595 205.896 146.055 203.122 142.738C200.348 139.421 189.233 130.24 186.735 129.964C184.237 129.689 183.962 133.571 186.185 135.518C188.408 137.466 195.902 145.787 198.401 150.783C200.899 155.78 202.007 164.947 199.812 162.724C197.617 160.501 193.983 151.341 190.934 148.285C187.885 145.229 178.718 135.518 176.495 136.626C174.272 137.734 174.829 140.515 176.77 142.456C178.711 144.396 186.213 154.954 188.154 160.501C190.094 166.048 192.317 181.602 191.209 179.386C190.101 177.17 186.488 165.78 184.547 161.038C182.606 156.295 178.718 154.1 178.16 156.316C177.603 158.532 178.718 159.647 180.101 164.651C181.484 169.654 181.513 183 185.655 190.466C189.798 197.933 205.924 212.506 208.147 218.06C210.37 223.614 214.392 232.365 214.392 232.365" fill="#FC6E8E"/>
</g>
<path d="M82.1392 222.485C82.1392 222.485 86.3029 208.886 86.3029 187.199C86.3029 165.512 89.9092 149.718 94.3553 142.78C98.8014 135.843 102.958 133.063 104.906 133.063C106.854 133.063 105.456 135.561 102.683 139.167C99.9094 142.773 97.4111 144.721 96.296 149.16C95.181 153.599 95.1881 159.16 96.5783 158.603C97.9686 158.045 100.185 146.944 102.125 142.78C104.066 138.617 108.794 133.338 111.568 130.839C114.341 128.341 120.453 120.846 123.227 122.787C126 124.728 124.342 127.508 122.676 128.616C121.011 129.724 114.341 136.379 111.293 140.557C108.244 144.735 106.296 155.272 107.962 155.547C109.627 155.822 114.624 140.282 117.397 136.944C120.171 133.606 131.279 124.453 133.777 124.177C136.276 123.902 136.558 127.784 134.335 129.732C132.112 131.679 124.617 140 122.119 144.996C119.62 149.993 118.505 159.16 120.707 156.937C122.909 154.714 126.536 145.554 129.592 142.498C132.648 139.442 141.808 129.732 144.031 130.839C146.254 131.947 145.697 134.728 143.756 136.669C141.815 138.61 134.314 149.16 132.373 154.714C130.432 160.268 128.202 175.815 129.317 173.592C130.432 171.369 134.038 159.993 135.979 155.244C137.92 150.494 141.808 148.299 142.366 150.522C142.923 152.745 141.808 153.853 140.418 158.85C139.028 163.846 139.007 177.199 134.871 184.672C130.736 192.146 114.603 212.436 112.38 217.99C110.157 223.544 105.16 235.76 105.16 235.76" fill="white"/>
<path d="M82.1392 222.485C82.1392 222.485 86.3029 208.886 86.3029 187.199C86.3029 165.512 89.9092 149.718 94.3553 142.78C98.8014 135.843 102.958 133.063 104.906 133.063C106.854 133.063 105.456 135.561 102.683 139.167C99.9094 142.773 97.4111 144.721 96.296 149.16C95.181 153.599 95.1881 159.16 96.5783 158.603C97.9686 158.045 100.185 146.944 102.125 142.78C104.066 138.617 108.794 133.338 111.568 130.839C114.341 128.341 120.453 120.846 123.227 122.787C126 124.728 124.342 127.508 122.676 128.616C121.011 129.724 114.341 136.379 111.293 140.557C108.244 144.735 106.296 155.272 107.962 155.547C109.627 155.822 114.624 140.282 117.397 136.944C120.171 133.606 131.279 124.453 133.777 124.177C136.276 123.902 136.558 127.784 134.335 129.732C132.112 131.679 124.617 140 122.119 144.996C119.62 149.993 118.505 159.16 120.707 156.937C122.909 154.714 126.536 145.554 129.592 142.498C132.648 139.442 141.808 129.732 144.031 130.839C146.254 131.947 145.697 134.728 143.756 136.669C141.815 138.61 134.314 149.16 132.373 154.714C130.432 160.268 128.202 175.815 129.317 173.592C130.432 171.369 134.038 159.993 135.979 155.244C137.92 150.494 141.808 148.299 142.366 150.522C142.923 152.745 141.808 153.853 140.418 158.85C139.028 163.846 139.007 177.199 134.871 184.672C130.736 192.146 114.603 212.436 112.38 217.99C110.157 223.544 105.16 235.76 105.16 235.76" stroke="black" stroke-linecap="round" stroke-linejoin="round"/>
<path d="M238.38 222.485C238.38 222.485 234.216 208.886 234.216 187.199C234.216 165.512 230.603 149.718 226.164 142.78C221.725 135.843 217.554 133.063 215.613 133.063C213.673 133.063 215.056 135.561 217.836 139.167C220.617 142.773 223.108 144.721 224.188 149.16C225.268 153.599 225.303 159.16 223.913 158.603C222.522 158.045 220.306 146.944 218.359 142.78C216.411 138.617 211.696 133.338 208.923 130.839C206.149 128.341 200.038 120.846 197.257 122.787C194.477 124.728 196.149 127.508 197.815 128.616C199.48 129.724 206.142 136.379 209.198 140.557C212.254 144.735 214.195 155.272 212.529 155.547C210.864 155.822 205.867 140.282 203.094 136.944C200.32 133.606 189.205 124.453 186.707 124.177C184.208 123.902 183.933 127.784 186.156 129.732C188.379 131.679 195.874 140 198.372 144.996C200.871 149.993 201.979 159.16 199.784 156.937C197.589 154.714 193.955 145.554 190.906 142.498C187.857 139.442 178.69 129.732 176.467 130.839C174.244 131.947 174.801 134.728 176.742 136.669C178.683 138.61 186.184 149.16 188.125 154.714C190.066 160.268 192.289 175.815 191.181 173.592C190.073 171.369 186.46 159.993 184.519 155.244C182.578 150.494 178.69 148.299 178.132 150.522C177.575 152.745 178.69 153.853 180.073 158.85C181.456 163.846 181.484 177.199 185.627 184.672C189.77 192.146 205.895 212.436 208.118 217.99C210.342 223.544 215.338 235.76 215.338 235.76" fill="white"/>
<path d="M238.38 222.485C238.38 222.485 234.216 208.886 234.216 187.199C234.216 165.512 230.603 149.718 226.164 142.78C221.725 135.843 217.554 133.063 215.613 133.063C213.673 133.063 215.056 135.561 217.836 139.167C220.617 142.773 223.108 144.721 224.188 149.16C225.268 153.599 225.303 159.16 223.913 158.603C222.522 158.045 220.306 146.944 218.359 142.78C216.411 138.617 211.696 133.338 208.923 130.839C206.149 128.341 200.038 120.846 197.257 122.787C194.477 124.728 196.149 127.508 197.815 128.616C199.48 129.724 206.142 136.379 209.198 140.557C212.254 144.735 214.195 155.272 212.529 155.547C210.864 155.822 205.867 140.282 203.094 136.944C200.32 133.606 189.205 124.453 186.707 124.177C184.208 123.902 183.933 127.784 186.156 129.732C188.379 131.679 195.874 140 198.372 144.996C200.871 149.993 201.979 159.16 199.784 156.937C197.589 154.714 193.955 145.554 190.906 142.498C187.857 139.442 178.69 129.732 176.467 130.839C174.244 131.947 174.801 134.728 176.742 136.669C178.683 138.61 186.184 149.16 188.125 154.714C190.066 160.268 192.289 175.815 191.181 173.592C190.073 171.369 186.46 159.993 184.519 155.244C182.578 150.494 178.69 148.299 178.132 150.522C177.575 152.745 178.69 153.853 180.073 158.85C181.456 163.846 181.484 177.199 185.627 184.672C189.77 192.146 205.895 212.436 208.118 217.99C210.342 223.544 215.338 235.76 215.338 235.76" stroke="black" stroke-linecap="round" stroke-linejoin="round"/>
<path d="M64.5664 264.829H106.91C107.461 262.712 108.152 260.34 109.027 257.771C112.358 247.792 123.142 235.315 123.142 235.315C115.413 228.508 106.331 223.414 96.4935 220.368C80.2618 215.371 68.3773 216.839 68.3773 216.839C70.5651 225.859 70.8057 235.242 69.0831 244.363C66.9659 254.638 65.5544 261.138 64.5664 264.829Z" fill="black" stroke="black" stroke-linecap="round" stroke-linejoin="round"/>
<path d="M213.334 264.829H257.329C255.917 261.173 252.869 253.234 249.82 245.294C245.656 234.483 247.322 219.931 245.656 219.931C243.991 219.931 225.282 218.681 216.136 221.589C206.989 224.497 196.587 232.817 196.587 232.817C201.296 238.289 205.344 244.296 208.648 250.714C210.771 255.214 212.345 259.953 213.334 264.829Z" fill="black" stroke="black" stroke-linecap="round" stroke-linejoin="round"/>
<path d="M91.0173 225.449C90.7138 224.25 86.1972 226.056 86.1972 226.056C86.1972 226.056 87.7074 220.34 85.3009 220.34C82.8944 220.34 82.5909 224.574 82.5909 224.574C82.5909 224.574 78.0742 222.775 78.0742 225.478C78.0742 228.18 81.0806 228.131 81.0806 228.131C81.0806 228.131 77.4673 232.648 80.1773 233.544C82.8873 234.44 84.6869 231.137 84.6869 231.137C84.6869 231.137 86.4936 234.151 88.9213 232.944C91.349 231.737 89.5211 229.034 89.5211 229.034C89.5211 229.034 91.3137 226.656 91.0173 225.449ZM84.9974 229.966C84.7703 229.915 84.562 229.802 84.3966 229.638C84.2313 229.474 84.1155 229.267 84.0628 229.041C84.01 228.814 84.0223 228.577 84.0983 228.357C84.1743 228.137 84.311 227.943 84.4924 227.797C84.6739 227.652 84.8928 227.56 85.124 227.534C85.3552 227.507 85.5892 227.546 85.7991 227.647C86.009 227.747 86.1862 227.905 86.3103 228.102C86.4344 228.299 86.5004 228.526 86.5006 228.759C86.4497 229.113 86.2662 229.435 85.9871 229.659C85.708 229.883 85.3543 229.993 84.9974 229.966ZM97.637 259.183C97.3335 257.983 92.8169 259.79 92.8169 259.79C92.8169 259.79 94.3271 254.074 91.9136 254.074C89.5 254.074 89.2106 258.308 89.2106 258.308C89.2106 258.308 84.694 256.501 84.694 259.204C84.694 261.907 87.7074 261.914 87.7074 261.914C87.7074 261.914 84.0941 266.431 86.8041 267.334C89.5141 268.238 91.3137 264.921 91.3137 264.921C91.3137 264.921 93.1203 267.934 95.548 266.727C97.9757 265.521 96.1479 262.818 96.1479 262.818C96.1479 262.818 97.9334 260.355 97.637 259.183ZM91.6171 263.7C91.39 263.649 91.1817 263.536 91.0164 263.372C90.851 263.208 90.7353 263.001 90.6825 262.774C90.6297 262.548 90.642 262.311 90.7181 262.091C90.7941 261.871 90.9307 261.677 91.1122 261.531C91.2936 261.385 91.5126 261.294 91.7437 261.267C91.9749 261.241 92.2089 261.28 92.4188 261.38C92.6287 261.481 92.8059 261.639 92.93 261.835C93.0541 262.032 93.1201 262.26 93.1203 262.493C93.0694 262.844 92.8845 263.163 92.6043 263.381C92.3242 263.599 91.9705 263.701 91.6171 263.664V263.7ZM71.1511 263.7C70.8476 262.493 66.338 264.3 66.338 264.3C66.338 264.3 67.8412 258.583 65.4347 258.583C63.0281 258.583 62.7247 262.818 62.7247 262.818C62.7247 262.818 58.208 261.011 58.208 263.721C58.208 266.431 61.2215 266.431 61.2215 266.431C61.2215 266.431 57.6081 270.941 60.3181 271.844C63.0281 272.747 64.8277 269.437 64.8277 269.437C64.8277 269.437 66.6344 272.444 69.0621 271.244C71.4898 270.044 69.669 267.334 69.669 267.334C69.669 267.334 71.4545 264.864 71.1581 263.664L71.1511 263.7ZM65.1312 268.209C64.9037 268.159 64.6952 268.045 64.5298 267.881C64.3643 267.717 64.2487 267.509 64.1961 267.282C64.1436 267.055 64.1564 266.818 64.233 266.598C64.3096 266.378 64.4469 266.184 64.629 266.039C64.8111 265.893 65.0306 265.802 65.2622 265.776C65.4938 265.751 65.7279 265.791 65.9376 265.892C66.1474 265.994 66.3241 266.153 66.4474 266.35C66.5707 266.548 66.6355 266.777 66.6344 267.01C66.5818 267.358 66.3973 267.674 66.1188 267.891C65.8404 268.107 65.4894 268.209 65.1383 268.174L65.1312 268.209ZM103.946 240.227H107.256C109.663 240.227 111.166 242.937 111.166 242.937C106.056 244.405 103.953 240.192 103.953 240.192L103.946 240.227ZM100.636 263.7H103.946C106.353 263.7 107.856 266.41 107.856 266.41C102.746 267.878 100.643 263.664 100.643 263.664L100.636 263.7ZM71.758 259.183H75.0678C77.4744 259.183 78.9776 261.893 78.9776 261.893C73.861 263.361 71.758 259.183 71.758 259.183ZM87.7568 237.948L89.6905 240.637C91.102 242.598 89.7681 245.393 89.7681 245.393C85.562 242.083 87.7568 237.912 87.7568 237.912V237.948ZM71.2005 246.939L72.7107 243.996C73.8187 241.879 76.9098 241.752 76.9098 241.752C75.8724 246.988 71.2005 246.939 71.2005 246.939Z" fill="white"/>
<path d="M232.734 231.166C232.431 229.966 227.914 231.773 227.914 231.773C227.914 231.773 229.424 226.056 227.018 226.056C224.611 226.056 224.308 230.291 224.308 230.291C224.308 230.291 219.791 228.491 219.791 231.194C219.791 233.897 222.805 233.904 222.805 233.904C222.805 233.904 219.191 238.42 221.901 239.324C224.611 240.227 226.411 236.91 226.411 236.91C226.411 236.91 228.218 239.924 230.645 238.717C233.073 237.51 231.245 234.807 231.245 234.807C231.245 234.807 233.031 232.365 232.734 231.166ZM226.714 235.682C226.487 235.632 226.279 235.518 226.114 235.354C225.948 235.191 225.832 234.983 225.78 234.757C225.727 234.53 225.739 234.293 225.815 234.073C225.891 233.853 226.028 233.659 226.209 233.514C226.391 233.368 226.61 233.277 226.841 233.25C227.072 233.223 227.306 233.262 227.516 233.363C227.726 233.463 227.903 233.621 228.027 233.818C228.151 234.015 228.217 234.243 228.218 234.475C228.175 234.833 227.994 235.16 227.713 235.386C227.431 235.612 227.073 235.718 226.714 235.682ZM246.87 254.638C246.574 253.431 242.057 255.238 242.057 255.238C242.057 255.238 243.56 249.522 241.154 249.522C238.747 249.522 238.451 253.756 238.451 253.756C238.451 253.756 233.934 251.949 233.934 254.659C233.934 257.369 236.94 257.369 236.94 257.369C236.94 257.369 233.334 261.879 236.044 262.782C238.754 263.686 240.554 260.376 240.554 260.376C240.554 260.376 242.36 263.382 244.788 262.182C247.216 260.983 245.388 258.273 245.388 258.273C245.388 258.273 247.173 255.838 246.87 254.638ZM240.857 259.183C240.63 259.132 240.421 259.018 240.256 258.854C240.09 258.69 239.975 258.483 239.922 258.256C239.87 258.029 239.882 257.792 239.959 257.571C240.036 257.351 240.173 257.158 240.355 257.012C240.537 256.867 240.757 256.776 240.988 256.75C241.22 256.724 241.454 256.764 241.664 256.866C241.873 256.967 242.05 257.126 242.173 257.324C242.297 257.522 242.361 257.75 242.36 257.983C242.316 258.34 242.134 258.665 241.853 258.889C241.572 259.114 241.215 259.219 240.857 259.183ZM231.831 263.7C231.527 262.493 227.018 264.3 227.018 264.3C227.018 264.3 228.521 258.583 226.114 258.583C223.708 258.583 223.404 262.817 223.404 262.817C223.404 262.817 218.888 261.011 218.888 263.721C218.888 266.431 221.901 266.431 221.901 266.431C221.901 266.431 218.288 270.94 220.998 271.844C223.708 272.747 225.508 269.437 225.508 269.437C225.508 269.437 227.314 272.444 229.742 271.244C232.17 270.044 230.349 267.334 230.349 267.334C230.349 267.334 232.106 264.864 231.831 263.664V263.7ZM225.811 268.209C225.584 268.159 225.375 268.045 225.21 267.881C225.044 267.717 224.928 267.509 224.876 267.282C224.823 267.055 224.836 266.818 224.913 266.598C224.989 266.378 225.127 266.184 225.309 266.038C225.491 265.893 225.71 265.802 225.942 265.776C226.174 265.75 226.408 265.791 226.617 265.892C226.827 265.994 227.004 266.153 227.127 266.35C227.25 266.548 227.315 266.777 227.314 267.01C227.262 267.36 227.076 267.676 226.796 267.893C226.516 268.11 226.163 268.211 225.811 268.174V268.209ZM245.67 245.944H248.98C251.387 245.944 252.89 248.654 252.89 248.654C247.773 250.121 245.67 245.908 245.67 245.908V245.944ZM210.165 263.064H213.475C215.881 263.064 217.385 265.767 217.385 265.767C212.268 267.278 210.165 263.064 210.165 263.064ZM229.474 243.657L231.407 246.346C232.819 248.308 231.485 251.102 231.485 251.102C227.279 247.8 229.474 243.657 229.474 243.657ZM249.044 260.482L250.97 263.17C252.382 265.125 251.048 267.927 251.048 267.927C246.842 264.645 249.044 260.482 249.044 260.482ZM212.889 252.655L214.399 249.712C215.507 247.595 218.634 247.468 218.634 247.468C217.589 252.704 212.882 252.655 212.882 252.655H212.889Z" fill="white"/>
</svg>
